<?xml version="1.0" encoding="UTF-8"?><svg id="Layer_1" xmlns="http://www.w3.org/2000/svg" width="500" height="500" viewBox="0 0 500 500"><path d="M201.51,285.04c0,1.42,0,3.9,1.53,3.9,1.34,0,4.6-2.57,4.89-11.98h.67c0,2.13-.58,10.56-4.98,12.69-2.21,1.16-5.08,1.68-7.76,1.68-1.92,0-3.65-.26-5.08-.8-5.37-1.95-7-3.99-8.53-9.22-2.01,5.86-4.88,8.25-7.57,9.22-1.44,.54-3.16,.62-5.27,.62-8.15,0-16.48-2.13-16.48-11.8,0-1.42,.29-2.84,.67-4.08,2.11-6.3,6.42-6.92,13.03-7.98l2.3-.36c12.75-1.95,13.32-8.07,13.32-13.31,0-8.6-3.26-9.32-6.9-9.32-2.01,0-7.95,.27-9.87,4.61,.58-.26,1.34-.35,2.11-.35,3.45,0,8.05,2.4,8.05,7.37,0,5.32-4.98,8.69-9.68,8.69s-9.3-3.46-9.3-8.87c0-7.36,9.97-12.25,21.94-12.25,5.85,0,12.08,1.16,16.29,3.91,6.33,4.08,6.61,9.4,6.61,14.46v23.15Zm-29.61-11.62c-.29,1.78-.39,3.28-.39,4.7,0,2.04,.19,3.9,.39,6.03,.1,1.78,.28,5.14,2.68,5.14,.67,0,1.44-.18,1.92-.62,5.46-3.28,5.65-11.18,5.65-17.92v-11.45c-.38,2.13-1.92,3.64-2.88,4.26-6.23,4.26-6.71,4.88-7.38,9.85" fill="#fff"/><path d="M210.78,244.05h27.41v7.9c2.4-5.68,8.05-8.43,14.95-8.43,4.03,0,7.38,.98,9.97,2.84,4.69,3.46,5.46,7.72,5.46,13.4v21.73c0,6.56,.67,8.7,8.15,8.7v.53h-31.53v-.53c3.93,0,4.22-3.02,4.22-8.7v-23.69c0-8.96-1.82-10.65-4.6-10.65-.58,0-3.45,.27-4.98,3.11-1.05,1.95-1.63,3.37-1.63,10.56v20.67c0,5.68,.29,8.7,4.22,8.7v.53h-31.63v-.53c7.47,0,8.14-2.13,8.14-8.7v-28.13c0-6.56-.67-8.7-8.14-8.7v-.62Z" fill="#fff"/><path d="M285.23,276.97v-32.29h-4.98v-.62c6.32-.26,11.31-2.3,15.62-5.06,3.07-1.95,7.48-5.41,8.15-11.89h.58v16.94h8.72v.62h-8.72v34.78c0,7.63,.38,8.34,2.2,8.34,.77,0,2.4-.27,3.83-3.55,.86-1.95,1.63-6.48,1.63-10.74h.67c0,2.75-.38,5.59-.96,8.25-.77,3.55-2.21,9.4-13.23,9.4s-13.51-4.34-13.51-14.19" fill="#fff"/><path d="M338.31,266.94v5.41c0,11.27,2.2,18.01,11.02,18.01,10.26,0,16.1-10.11,17.15-19.07h.67c-.57,4.62-2.59,13.4-10.54,17.83-2.68,1.51-6.71,2.13-10.83,2.13-21.47,0-26.84-13.84-26.84-22.63,0-6.38,2.59-13.13,9.3-19.16,4.79-4.26,11.12-5.95,16.77-5.95,12.46,0,17.92,6.75,20.7,13.4,1.25,3.19,1.34,6.21,1.34,10.02h-28.75Zm0-3.2v2.57h11.21c.19-3.46,.29-8.07,.29-11.36,0-4.7-.1-8.25-2.88-10.47-.38-.35-1.15-.44-2.11-.44-5.46,0-6.52,6.12-6.52,19.69" fill="#fff"/><path d="M145.27,266.86c-4.41-9.94-15.72-12.15-23.29-12.87l-2.88-.26c4.12-.62,15.91-3.02,20.22-9.23,1.44-2.13,2.11-4.7,2.11-7.1,0-12.95-16.87-16.14-29.52-16.14h-39.42s-4.51,.02-4.5,.04c-4.35,.33-8.44,1.42-11.19,4.71-2.31,2.68-3.39,6.58-3.39,9.87,0,8.27,6.94,9.64,9.92,9.64,5.29,0,8.68-3.52,8.68-7.35s-3.55-7.57-9.26-7.57c-2.73,0-5.45,.92-7.11,2.37,0-2.75,.17-4.29,1.16-5.74,2.73-4.29,7.52-5.05,11.49-5.43h2.7c10.16,0,10.83,2.66,10.83,10.29v47.82c0,7.63-.67,10.29-10.83,10.29h-.58v.53h45.43c12.84,0,21.75-.8,27.79-8.7,1.92-2.48,2.97-5.58,2.97-8.78,0-2.13-.38-4.26-1.34-6.39m-41.5-45.07h2.11c6.42,0,12.36,.44,13.03,6.75,.38,2.84,.67,6.74,.67,10.64,0,13.66-2.97,14.28-10.93,14.28h-4.89v-31.67Zm16.96,62.11c-1.44,5.23-3.16,6.3-10.16,6.3-5.85,0-6.81-.71-6.81-8.07v-28.03h3.26c3.83,0,8.91,.26,11.21,2.66,2.68,2.75,3.54,9.49,3.54,15.7,0,4.79-.48,9.23-1.05,11.45" fill="#fff"/><path d="M418.23,294.92c-2.75-3.29-6.84-4.38-11.19-4.71l-.26-.03c-7.47,0-8.05-2.13-8.05-8.69v-22.26c0-5.68,.38-9.32,3.16-12.24,1.63-1.77,4.5-2.84,7.76-2.84,1.53,0,5.75,.45,6.13,4.35-1.63-1.24-3.64-1.87-5.75-1.87-5.37,0-9.01,3.37-9.01,8.16,0,5.32,4.22,8.34,8.91,8.34,5.08,0,9.2-3.64,9.2-9.32,0-5.32-3.16-10.29-9.87-10.29-7.09,0-10.06,4.79-11.4,9.76v-9.22h-26.63v.62c7.47,0,8.14,1.86,8.14,8.43v28.38c0,6.56-.67,8.69-8.14,8.69v.53h35.53c3.96,.38,8.74,1.16,11.46,5.43,.99,1.45,1.16,2.98,1.16,5.74-1.65-1.46-4.38-2.37-7.11-2.37-5.7,0-9.26,3.9-9.26,7.57s3.39,7.35,8.68,7.35c2.98,0,9.92-1.38,9.92-9.64,0-3.29-1.08-7.19-3.39-9.87" fill="#fff"/><path d="M205.76,319.61v-.04c0-4.02,3.33-7.43,8-7.43,2.71,0,4.37,.7,5.97,1.95l-1.73,1.91c-1.2-.94-2.37-1.54-4.35-1.54-2.86,0-5.03,2.32-5.03,5.07v.04c0,2.96,2.11,5.13,5.28,5.13,1.46,0,2.79-.43,3.75-1.09v-2.69h-3.97v-2.2h6.61v6.03c-1.53,1.21-3.73,2.24-6.48,2.24-4.85,0-8.05-3.2-8.05-7.39" fill="#fff"/><path d="M226.05,312.38h6.92c1.95,0,3.48,.54,4.48,1.44,.82,.78,1.29,1.85,1.29,3.1v.04c0,2.36-1.53,3.78-3.68,4.35l4.19,5.44h-3.24l-3.81-5.01h-3.42v5.01h-2.73v-14.37Zm6.72,7.12c1.95,0,3.19-.94,3.19-2.4v-.04c0-1.54-1.2-2.38-3.22-2.38h-3.97v4.82h3.99Z" fill="#fff"/><path d="M243.62,319.61v-.04c0-4.04,3.37-7.43,8.14-7.43s8.09,3.35,8.09,7.39v.04c0,4.04-3.37,7.43-8.14,7.43s-8.09-3.35-8.09-7.39m13.37,0v-.04c0-2.79-2.19-5.11-5.28-5.11s-5.23,2.28-5.23,5.07v.04c0,2.79,2.19,5.09,5.28,5.09s5.23-2.26,5.23-5.05" fill="#fff"/><path d="M265.13,320.66v-8.27h2.73v8.17c0,2.67,1.49,4.08,3.92,4.08s3.9-1.33,3.9-3.98v-8.27h2.73v8.15c0,4.29-2.62,6.44-6.67,6.44s-6.61-2.15-6.61-6.32" fill="#fff"/><path d="M284.38,312.39h6.12c3.64,0,5.9,1.91,5.9,4.8v.04c0,3.22-2.79,4.9-6.21,4.9h-3.08v4.62h-2.73v-14.37Zm5.9,7.47c2.06,0,3.35-1.07,3.35-2.57v-.04c0-1.68-1.31-2.57-3.35-2.57h-3.17v5.17h3.17Z" fill="#fff"/><path d="M429.97,247.35h.69c.15,0,.29,0,.43-.02,.14-.01,.27-.04,.39-.08,.12-.04,.21-.11,.28-.2,.07-.09,.11-.21,.11-.37s-.04-.28-.11-.37c-.07-.09-.17-.16-.28-.2-.12-.04-.25-.07-.39-.08-.15,0-.29-.01-.43-.01h-.69v1.33Zm-.94-2.06h1.97c.62,0,1.07,.12,1.37,.37,.29,.24,.44,.6,.44,1.06,0,.42-.11,.73-.34,.94-.23,.21-.52,.33-.87,.37l1.32,2.01h-.99l-1.28-1.94h-.69v1.94h-.94v-4.73Zm-1.96,2.39c0,.47,.1,.91,.29,1.33s.45,.78,.79,1.09c.33,.31,.72,.55,1.17,.73,.45,.18,.92,.27,1.43,.27s.98-.09,1.43-.27c.45-.18,.84-.42,1.17-.73,.33-.31,.6-.67,.79-1.09,.19-.42,.29-.86,.29-1.33s-.1-.91-.29-1.33c-.19-.42-.45-.78-.79-1.09-.33-.31-.73-.55-1.17-.73-.45-.18-.93-.27-1.43-.27s-.98,.09-1.43,.27c-.45,.18-.84,.42-1.17,.73-.33,.31-.6,.67-.79,1.09s-.29,.86-.29,1.33m-.79,0c0-.57,.12-1.11,.36-1.61,.24-.5,.56-.94,.96-1.31,.41-.37,.88-.67,1.42-.89,.54-.22,1.12-.33,1.74-.33s1.2,.11,1.74,.33c.54,.22,1.01,.52,1.42,.89,.41,.38,.73,.81,.96,1.31,.24,.5,.35,1.04,.35,1.61s-.12,1.11-.35,1.61c-.24,.5-.56,.94-.96,1.31s-.88,.67-1.42,.89c-.54,.22-1.12,.33-1.74,.33s-1.2-.11-1.74-.33c-.54-.22-1.01-.52-1.42-.89s-.73-.81-.96-1.31c-.24-.5-.36-1.04-.36-1.61" fill="#fff"/></svg>