<?xml version="1.0" encoding="UTF-8"?><svg id="a" xmlns="http://www.w3.org/2000/svg" width="552.426" height="552.426" xmlns:xlink="http://www.w3.org/1999/xlink" viewBox="0 0 552.426 552.426"><defs><clipPath id="b"><path d="M367.5321,297.4388l.77-4.49c.045-.265-.042-.536-.236-.724l-3.261-3.18c-.486-.472-.218-1.298,.452-1.395l4.508-.655c.267-.039,.497-.206,.617-.447l2.016-4.086c.3-.608,1.166-.608,1.467,0l2.016,4.086c.119,.241,.349,.408,.616,.447l4.509,.655c.67,.097,.938,.923,.452,1.395l-3.262,3.18c-.193,.188-.28,.459-.235,.724l.77,4.49c.115,.668-.587,1.178-1.187,.863l-4.032-2.121c-.238-.125-.523-.125-.761,0l-4.032,2.121c-.126,.065-.255,.095-.381,.095-.477,0-.897-.429-.806-.958m-96.252-43.213l1.923-11.207c.045-.265-.043-.536-.235-.724l-8.143-7.937c-.486-.473-.218-1.297,.453-1.396l11.253-1.634c.266-.039,.497-.206,.615-.447l5.032-10.197c.301-.608,1.168-.608,1.467,0l5.033,10.197c.119,.241,.349,.408,.616,.447l11.252,1.634c.672,.099,.939,.923,.454,1.396l-8.142,7.937c-.194,.188-.281,.459-.236,.724l1.922,11.207c.116,.668-.586,1.177-1.186,.862l-10.065-5.291c-.238-.125-.523-.125-.761,0l-10.065,5.291c-.125,.066-.255,.096-.38,.096-.477,0-.897-.43-.807-.958m58.398-61.779l1.921-11.207c.046-.265-.042-.536-.235-.723l-8.142-7.937c-.486-.474-.218-1.298,.453-1.395l11.252-1.636c.267-.038,.497-.206,.617-.447l5.032-10.196c.299-.608,1.166-.608,1.467,0l5.032,10.196c.119,.241,.35,.409,.616,.447l11.253,1.636c.67,.097,.938,.921,.453,1.395l-8.143,7.937c-.192,.187-.281,.458-.235,.723l1.923,11.207c.114,.669-.587,1.178-1.187,.862l-10.065-5.291c-.239-.125-.523-.125-.761,0l-10.065,5.291c-.125,.066-.255,.096-.381,.096-.476,0-.897-.429-.805-.958m-10.279-63.431c-.313,.182-.615,.376-.916,.573-8.342,5.829-3.114,21.763-24.787,43.18-8.37,8.27-16.76,13.291-24.675,16.14-18.06,6.504-33.63,1.649-40.724-2.077-5.34-2.805-10.462-10.378-14.134-16.96-.705-1.262-1.358-2.49-1.947-3.638v-.002c-5.592-9.321-14.13-9.834-20.976-8.227-20.368,5.165-47.665,56.876-47.665,56.876v-.001c-9.327,17.789-15.622,33.133-16.796,36.044-5.314,14.295-9.28,27.933-12.032,40.613-1.241,5.72-2.24,11.247-3.012,16.556-.761,5.231-1.298,10.248-1.634,15.032,100.119-34.713,175.949-29.692,243.117-17.298l-.028-.011s90.249,16.517,80.408-25.024v-.004c-.6-2.196-1.22-4.346-1.85-6.463-.17-.568-.344-1.115-.515-1.678-.474-1.557-.951-3.099-1.437-4.611-.19-.59-.382-1.163-.574-1.746-.481-1.467-.966-2.913-1.455-4.331-.19-.549-.379-1.088-.57-1.629-.254-.724-.506-1.469-.761-2.179-.23-.637-.461-1.237-.691-1.863-.231-.628-.46-1.248-.692-1.864-.208-.556-.416-1.139-.624-1.686-.347-.909-.692-1.787-1.038-2.669-.058-.15-.117-.302-.175-.45-.599-1.52-1.196-3.013-1.788-4.452-.071-.174-.141-.333-.212-.505-.145-.351-.286-.678-.431-1.024-.441-1.056-.884-2.123-1.318-3.131-.131-.303-.259-.594-.39-.893-.003-.009-.007-.018-.01-.027-.188-.43-.376-.866-.561-1.288-.49-1.112-.97-2.18-1.445-3.225l-7.408,7.221c-.193,.188-.281,.459-.235,.724l1.922,11.207c.114,.668-.587,1.177-1.187,.862l-10.065-5.291c-.238-.125-.523-.125-.761,0l-10.065,5.291c-.599,.315-1.3-.194-1.186-.862l1.921-11.207c.046-.265-.042-.536-.235-.724l-8.142-7.937c-.486-.473-.218-1.297,.453-1.395l11.253-1.635c.266-.039,.496-.206,.616-.447l5.032-10.197c.3-.608,1.166-.608,1.467,0l5.032,10.197c.12,.241,.35,.408,.616,.447l9.914,1.44c-5.478-11.793-9.613-18.645-9.613-18.645-1.376-2.512-2.729-4.911-4.067-7.246h.002s-.06-.104-.155-.268c-.075-.131-.189-.328-.322-.556-5.38-9.334-10.449-17.272-15.23-23.952-.016-.025-.034-.051-.051-.075-.567-.829-1.149-1.67-1.738-2.518-.195-.278-.392-.56-.588-.841-.435-.622-.875-1.247-1.321-1.876-.213-.303-.428-.604-.645-.908-.505-.71-1.018-1.424-1.537-2.141-.146-.201-.289-.4-.434-.602-.651-.895-1.313-1.795-1.981-2.696-.007-.009-.013-.018-.019-.027-.006-.006-.011-.013-.016-.02-.177-.238-.358-.479-.536-.718-.509-.681-1.022-1.365-1.541-2.048-.235-.31-.471-.62-.708-.93-.511-.668-1.026-1.336-1.545-2.003-.21-.269-.418-.539-.629-.808-.673-.858-1.351-1.714-2.036-2.568-.046-.056-.09-.114-.136-.171-.042-.052-.084-.103-.126-.154-.075-.093-.15-.185-.225-.278-.621-.768-1.247-1.533-1.876-2.295-.241-.291-.484-.581-.726-.872-.532-.636-1.067-1.269-1.604-1.899-.246-.288-.491-.577-.738-.863-.671-.777-1.345-1.549-2.023-2.311-.024-.028-.05-.057-.074-.085-.069-.077-.138-.157-.207-.235-.04-.045-.082-.089-.122-.134-.727-.814-1.459-1.617-2.194-2.41-.226-.245-.455-.487-.684-.73-.561-.6-1.125-1.194-1.69-1.779-.264-.274-.53-.548-.795-.819-.593-.606-1.187-1.2-1.781-1.787-.178-.175-.354-.353-.531-.526-.026-.024-.05-.049-.075-.074-.015-.015-.031-.029-.046-.044-.761-.74-1.522-1.464-2.284-2.17-.011-.011-.023-.022-.034-.032-.027-.026-.055-.05-.083-.076-.151-.139-.302-.272-.453-.41-.618-.565-1.237-1.12-1.857-1.661-.262-.229-.525-.454-.788-.679-.566-.483-1.131-.954-1.698-1.415-.244-.2-.49-.403-.735-.599-.762-.607-1.523-1.196-2.282-1.758-.03-.022-.06-.046-.088-.068-.051-.036-.1-.069-.15-.106-.015-.011-.03-.02-.046-.031-.724-.531-1.448-1.036-2.17-1.521-.244-.165-.488-.321-.732-.48-.56-.365-1.119-.715-1.677-1.05-.255-.154-.509-.307-.763-.455-.636-.367-1.27-.713-1.902-1.039-.139-.072-.28-.152-.418-.223-.007-.003-.015-.008-.022-.011-.012-.006-.023-.01-.035-.016-.757-.378-1.51-.724-2.258-1.038-.204-.087-.408-.159-.611-.24-.566-.225-1.129-.432-1.688-.617-.248-.082-.495-.159-.741-.234-.556-.166-1.106-.309-1.654-.434-.203-.047-.407-.101-.609-.142-.405-.081-.804-.124-1.204-.181-4.197,.039-7.121,.673-9.259,1.846" fill="none"/></clipPath><clipPath id="c"><path d="M177.4821,314.9578c-1.488,.369-4.557,.884-9.975,1.6-.026,.004-.048,.006-.074,.01-7.12,.94-13.425,2.381-18.885,3.984-14.406,4.231-22.725,9.59-23.468,10.082-7.18,4.793-13.964,11.553-14.403,20.136,.589,4.423,1.418,8.442,2.487,11.964,.233,.547,.474,1.061,.723,1.545,.994,1.936,2.096,3.385,3.197,4.468,.276,.272,.55,.52,.824,.748,.547,.455,1.086,.826,1.604,1.13,.519,.303,1.016,.538,1.48,.72,.463,.182,.891,.311,1.271,.403,.759,.183,1.325,.215,1.588,.219h.05c.028,0,.055-.001,.083-.001,.015,0,.03,0,.046,.001h.004c.222,.006,.458-.009,.689-.018,.232-.007,.457-.007,.69-.017,.336-.013,.669-.021,1.015-.05h.001c.095-.008,.195-.024,.291-.034,.292-.032,.585-.065,.879-.104,.351-.045,.699-.084,1.056-.144,.404-.067,.818-.155,1.23-.238,.363-.075,.723-.142,1.092-.23,.259-.06,.522-.132,.784-.202,.161-.043,.322-.082,.483-.125,.002,0,.003-.001,.005-.001,.374-.1,.744-.194,1.122-.304h.001c.431-.126,.866-.269,1.3-.408,.003-.001,.005-.002,.008-.003,.38-.121,.757-.237,1.139-.368q.001-.001,.002-.001c.244-.084,.49-.175,.735-.265,.2-.074,.401-.144,.602-.218,.38-.14,.759-.274,1.141-.42,.456-.178,.914-.367,1.372-.554,.375-.153,.749-.301,1.124-.46,.001,0,.002-.001,.003-.001,.452-.191,.903-.395,1.354-.595,.007-.002,.014-.006,.021-.01,.373-.164,.746-.325,1.117-.495,.001,0,.003-.001,.004-.002,.054-.025,.106-.051,.16-.075,.411-.191,.818-.385,1.227-.58,.358-.17,.718-.336,1.074-.511,.002-.001,.003-.001,.005-.002,.008-.003,.015-.008,.022-.011,.459-.224,.911-.454,1.366-.683,.345-.174,.695-.347,1.038-.523,.002-.001,.004-.002,.006-.003,.442-.228,.873-.459,1.307-.688,.018-.01,.037-.02,.055-.03,.332-.176,.67-.35,.997-.527,.002-.001,.004-.001,.006-.002,.426-.231,.837-.46,1.254-.691,.026-.013,.051-.028,.076-.042,.317-.175,.641-.35,.951-.525,.003-.001,.006-.002,.008-.003,.414-.232,.81-.463,1.213-.693,.039-.023,.08-.046,.12-.069,.278-.16,.566-.322,.838-.48,.476-.277,.931-.547,1.387-.819,.224-.133,.459-.269,.679-.401,.002-.001,.005-.003,.008-.005,.375-.226,.726-.441,1.086-.661,.106-.064,.214-.129,.318-.193,.169-.104,.35-.212,.516-.313,.002-.002,.006-.004,.009-.006,.308-.191,.59-.369,.885-.553,.195-.123,.39-.243,.584-.366,.094-.058,.198-.122,.289-.18,1.225-.901,2.483-1.746,3.756-2.567,.8-.517,1.601-1.032,2.417-1.521,.093-.065,.157-.111,.157-.111l.006,.01c1.395-.833,2.818-1.615,4.259-2.364,.291-.152,.587-.292,.878-.441,1.258-.635,2.525-1.249,3.811-1.825,.157-.071,.314-.14,.472-.21,3.073-1.356,6.22-2.555,9.424-3.605,.579-.189,1.147-.405,1.729-.585,.824-.252,1.646-.459,2.47-.692,1.412-.401,2.822-.779,4.232-1.133,1.513-.372,3.027-.734,4.538-1.046,.003,0,.006-.001,.009-.002,.007-.001,.012-.002,.018-.003,1.177-.242,2.349-.442,3.523-.647,.528-.093,1.059-.207,1.587-.293,.071-.012,.142-.021,.212-.033,.49-.079,.978-.133,1.467-.205,1.223-.181,2.447-.367,3.668-.513,.564-.067,1.126-.109,1.69-.17,1.142-.12,2.284-.244,3.423-.334,.673-.054,1.341-.082,2.013-.126,1.022-.064,2.046-.135,3.063-.176,.728-.03,1.449-.037,2.174-.054h.001c.795-.02,1.595-.054,2.388-.059,.08,0,.159,.001,.238,.002,.079,.001,.159,.003,.239,.002,.15,0,.301-.008,.45-.008,1.03,0,2.053,.024,3.078,.047,.337,.008,.676,.006,1.013,.016,1.528,.045,3.051,.114,4.567,.208,.383,.023,.763,.059,1.144,.085,1.132,.079,2.261,.164,3.385,.269,.542,.05,1.08,.11,1.62,.166,.964,.1,1.926,.204,2.883,.321,.579,.072,1.154,.149,1.731,.226,.917,.124,1.832,.254,2.743,.393,.578,.088,1.154,.178,1.73,.272,.923,.151,1.842,.312,2.759,.478,.541,.098,1.083,.194,1.621,.297,.996,.191,1.985,.395,2.973,.602,.444,.095,.892,.182,1.335,.279,1.388,.305,2.769,.622,4.138,.957,.035,.009,.071,.016,.106,.025,1.417,.348,2.823,.714,4.22,1.093,.397,.107,.788,.222,1.183,.332,.989,.275,1.973,.554,2.949,.842,.488,.145,.971,.295,1.456,.442,.877,.269,1.752,.54,2.62,.818,.506,.162,1.009,.326,1.511,.492,.848,.279,1.69,.563,2.528,.852,.489,.169,.977,.337,1.462,.508,.863,.305,1.717,.615,2.567,.929,.44,.162,.881,.321,1.318,.485,.975,.367,1.939,.739,2.896,1.117,.295,.116,.595,.228,.888,.345,1.265,.503,2.517,1.014,3.752,1.533,.124,.052,.244,.105,.366,.157,1.094,.462,2.177,.929,3.247,1.401,.374,.164,.74,.332,1.111,.498,.814,.363,1.625,.729,2.424,1.097,.42,.195,.834,.389,1.25,.585,.739,.346,1.474,.693,2.2,1.044,.423,.203,.842,.406,1.26,.611,.715,.35,1.421,.7,2.122,1.051,.399,.2,.798,.399,1.191,.599,.735,.374,1.458,.748,2.177,1.123,.337,.175,.679,.351,1.013,.527,.871,.459,1.727,.918,2.572,1.377,.165,.09,.336,.179,.501,.269,1.01,.551,2.001,1.101,2.973,1.649,.254,.143,.497,.284,.747,.426,.71,.404,1.414,.805,2.101,1.206,.331,.191,.653,.381,.978,.573,.594,.348,1.183,.696,1.759,1.041,.346,.206,.684,.411,1.023,.616,.538,.325,1.067,.647,1.588,.968,.337,.206,.67,.412,1,.618,.522,.324,1.031,.644,1.536,.963,.3,.189,.601,.379,.895,.566,.542,.344,1.066,.684,1.587,1.021,.234,.152,.475,.306,.704,.456,.294,.192,.574,.379,.861,.567l1.15-6.703c.045-.265-.043-.535-.236-.723l-8.142-7.937c-.485-.474-.218-1.298,.453-1.395l11.253-1.636c.266-.038,.496-.206,.616-.447l5.032-10.197c.3-.607,1.167-.607,1.467,0l5.032,10.197c.119,.241,.35,.409,.616,.447l11.253,1.636c.67,.097,.938,.921,.453,1.395l-8.143,7.937c-.193,.188-.28,.458-.235,.723l1.922,11.207c.115,.668-.586,1.178-1.186,.862l-10.065-5.291c-.238-.125-.523-.125-.761,0l-5.978,3.143c3.709,2.732,7.391,5.433,11.013,8.041,.001,.001,.007,.008,.007,.008h.001v-.001c1.47,1.058,2.929,2.101,4.382,3.132,.463,.328,.921,.647,1.382,.972,.99,.699,1.98,1.395,2.961,2.078,.551,.382,1.096,.756,1.644,1.133,.882,.608,1.764,1.215,2.639,1.809,.589,.4,1.173,.791,1.759,1.183,.827,.556,1.653,1.107,2.473,1.647,.599,.396,1.195,.784,1.789,1.17,.803,.522,1.603,1.036,2.4,1.543,.59,.376,1.179,.748,1.765,1.115,.798,.499,1.59,.986,2.379,1.467,.568,.346,1.137,.693,1.701,1.03,.808,.483,1.608,.948,2.406,1.411,.534,.309,1.07,.624,1.599,.923,.864,.488,1.718,.953,2.57,1.416,.447,.243,.899,.497,1.343,.732,1.15,.61,2.288,1.19,3.416,1.748,.139,.069,.282,.146,.42,.214,1.26,.617,2.503,1.196,3.734,1.743,.379,.168,.748,.314,1.124,.476,.845,.363,1.689,.722,2.52,1.05,.461,.181,.911,.341,1.368,.511,.733,.273,1.465,.543,2.186,.785,.48,.163,.955,.307,1.431,.455,.681,.213,1.361,.418,2.03,.601,.481,.132,.956,.249,1.43,.365,.652,.16,1.298,.304,1.937,.434,.469,.094,.936,.181,1.399,.26,.631,.107,1.255,.191,1.874,.266,.449,.055,.897,.11,1.338,.147,.627,.053,1.244,.075,1.857,.093,.431,.013,.865,.035,1.288,.03,.358-.005,.708-.028,1.06-.046,.27-.013,.536-.039,.805-.058,.268-.02,.54-.031,.805-.06h.001c.359-.039,.712-.091,1.066-.145,.511-.077,1.017-.167,1.516-.275,.348-.076,.694-.157,1.036-.248h.001c.493-.13,.978-.281,1.458-.443l.001-.001c.328-.111,.656-.22,.979-.346,.491-.191,.971-.414,1.449-.642,.292-.139,.589-.269,.877-.422,.447-.239,.881-.514,1.314-.79,.077-.048,.155-.09,.231-.139,.001,0,.002-.001,.003-.001,.222-.143,.45-.268,.668-.419,0-.001,.001-.001,.001-.001,.721-.502,1.425-1.047,2.109-1.649v-.001c.054-.046,.102-.103,.153-.15,.004-.001,.006-.005,.008-.008,.624-.559,1.232-1.158,1.822-1.805,.001,0,.001-.001,.002-.001,.173-.189,.336-.405,.505-.601-1.419-9.944-11.481-19.537-14.127-21.911-3.426-3.017-6.411-5.43-8.552-7.098-1.137-.824-2.293-1.687-3.485-2.623-56.01-43.965-115.783-60.653-167.63-64.788-5.093-.263-10.1-.386-15.01-.386-15.002,0-29.112,1.153-42.102,3.016" fill="none"/></clipPath><clipPath id="d"><path d="M358.7571,411.9478c2.71,3.982,10.619,14.92,21.968,24.82,7.588,6.616,19.281,6.814,27.111,.446,4.801-3.904,8.042-7.507,10.175-10.251,1.659-2.135,2.649-3.751,3.18-4.588,.072-.116,.69-1.028,1.467-2.173,1.505-2.219,3.625-5.331,3.625-5.331-5.977,4.651-12.775,6.943-19.71,7.732-23.621,2.689-48.855-12.223-48.855-12.223,.357,.507,.698,1.039,1.039,1.568" fill="none"/></clipPath><clipPath id="e"><path d="M217.2391,311.9508c28.899,3.324,81.9,12.088,122.741,34.016l.598-1.211c.3-.607,1.167-.607,1.467,0l1.594,3.23c4.844,2.747,9.494,5.691,13.888,8.843l1.419,.207c.606,.088,.883,.77,.572,1.25,18.969,14.15,32.772,32.406,35.948,55.902,.156,.054,.312,.108,.468,.16,.48,.163,.955,.307,1.431,.455,.681,.213,1.361,.418,2.03,.601,.481,.132,.956,.249,1.43,.365,.652,.16,1.298,.304,1.937,.434,.469,.094,.936,.181,1.399,.26,.631,.107,1.255,.191,1.874,.266,.449,.055,.897,.11,1.338,.147,.627,.053,1.244,.075,1.857,.093,.431,.013,.865,.035,1.288,.03,.358-.005,.708-.028,1.06-.046,.27-.013,.536-.039,.805-.058,.268-.02,.54-.031,.805-.06h.001c.359-.039,.712-.091,1.066-.145,.511-.077,1.017-.167,1.516-.275,.348-.076,.694-.157,1.036-.248h.001c.493-.13,.978-.281,1.458-.443l.001-.001c.328-.111,.656-.22,.979-.346,.491-.191,.971-.414,1.449-.642,.292-.139,.589-.269,.877-.422,.447-.239,.881-.514,1.314-.79,.077-.048,.155-.09,.231-.139,.001,0,.002-.001,.003-.001,.222-.143,.45-.268,.668-.419,0-.001,.001-.001,.001-.001,.721-.502,1.425-1.047,2.109-1.649v-.001c.054-.046,.102-.103,.153-.15,.004-.001,.006-.005,.008-.008,.624-.559,1.232-1.158,1.822-1.805,.001,0,.001-.001,.002-.001,.173-.189,.336-.405,.505-.601-1.419-9.944-11.481-19.537-14.127-21.911-3.426-3.017-6.411-5.43-8.552-7.098-1.137-.824-2.293-1.687-3.485-2.623-56.01-43.965-115.783-60.653-167.63-64.788-5.093-.263-10.099-.386-15.01-.386-.785,0-1.566,.003-2.345,.009" fill="none"/></clipPath><clipPath id="f"><path d="M367.5321,297.4388l.77-4.49c.045-.265-.042-.536-.236-.724l-3.261-3.18c-.486-.472-.218-1.298,.452-1.395l4.508-.655c.267-.039,.497-.206,.617-.447l2.016-4.086c.3-.608,1.166-.608,1.467,0l2.016,4.086c.119,.241,.349,.408,.616,.447l4.509,.655c.67,.097,.938,.923,.452,1.395l-3.262,3.18c-.193,.188-.28,.459-.235,.724l.77,4.49c.115,.668-.587,1.178-1.187,.863l-4.032-2.121c-.238-.125-.523-.125-.761,0l-4.032,2.121c-.125,.065-.255,.095-.381,.095-.477,0-.897-.429-.806-.958m-74.264-50.654l1.276,7.441c.116,.668-.586,1.177-1.186,.862l-9.366-4.924c-1.905,.655-3.871,1.309-5.865,1.949l-5.66,2.975c-.125,.066-.254,.095-.38,.095-.477,0-.898-.429-.807-.957-80.88,24.007-132.084,48.649-160.829,64.603-.134,1.452-.251,2.884-.35,4.296,100.119-34.713,175.949-29.692,243.117-17.298l-.028-.011s90.249,16.517,80.408-25.024v-.004c-.6-2.196-1.22-4.346-1.85-6.463-.17-.568-.344-1.115-.515-1.678-.474-1.557-.951-3.099-1.437-4.611-.19-.59-.382-1.163-.574-1.746-.481-1.467-.966-2.913-1.455-4.331-.19-.549-.379-1.088-.57-1.629-.254-.724-.506-1.469-.761-2.179-.23-.637-.461-1.237-.691-1.863-.231-.628-.46-1.248-.692-1.864-.208-.556-.416-1.139-.624-1.686-.347-.909-.692-1.787-1.038-2.669-.058-.15-.117-.302-.175-.45-.599-1.52-1.196-3.013-1.788-4.452-.071-.174-.141-.333-.212-.505-.145-.351-.286-.678-.431-1.024-.441-1.056-.884-2.123-1.318-3.131-.131-.303-.259-.594-.39-.893-.003-.009-.007-.018-.01-.027-.188-.43-.376-.866-.561-1.288-.49-1.112-.97-2.18-1.445-3.225l-7.408,7.221c-.193,.188-.281,.459-.235,.724l1.922,11.207c.114,.668-.587,1.177-1.187,.862l-10.065-5.291c-.238-.125-.523-.125-.761,0l-10.065,5.291c-.599,.315-1.3-.194-1.186-.862l1.921-11.207c.046-.265-.042-.536-.235-.724l-8.142-7.937c-.486-.473-.218-1.297,.453-1.395l11.253-1.635c.266-.039,.496-.206,.616-.447l5.032-10.197c.3-.608,1.166-.608,1.467,0l5.032,10.197c.12,.241,.35,.408,.616,.447l9.914,1.44c-5.478-11.793-9.613-18.645-9.613-18.645-1.376-2.512-2.729-4.911-4.067-7.246h.002s-.06-.104-.155-.268c-.075-.131-.189-.328-.322-.556-5.38-9.334-10.449-17.272-15.23-23.952-.016-.025-.034-.051-.051-.075-.567-.829-1.149-1.67-1.738-2.518-.195-.278-.392-.56-.588-.841-.435-.622-.875-1.247-1.321-1.876-.213-.303-.428-.604-.645-.908-.505-.71-1.018-1.424-1.537-2.141-.146-.201-.289-.4-.434-.602-.651-.895-1.313-1.795-1.981-2.696-.007-.009-.013-.018-.019-.027-.006-.006-.011-.013-.016-.02-.177-.238-.358-.479-.536-.718-.509-.681-1.022-1.365-1.541-2.048-.235-.31-.471-.62-.708-.93-.511-.668-1.026-1.336-1.545-2.003-.21-.269-.418-.539-.629-.808-.673-.858-1.351-1.714-2.036-2.568-.046-.056-.09-.114-.136-.171-.042-.052-.084-.103-.126-.154-.075-.093-.15-.185-.225-.278-.621-.768-1.247-1.533-1.876-2.295-.241-.291-.484-.581-.726-.872-.532-.636-1.067-1.269-1.604-1.899-.246-.288-.491-.577-.738-.863-.671-.777-1.345-1.549-2.023-2.311-.024-.028-.05-.057-.074-.085-.069-.077-.138-.157-.207-.235-.04-.045-.082-.089-.122-.134-.727-.814-1.459-1.617-2.194-2.41-.226-.245-.455-.487-.684-.73-.561-.6-1.125-1.194-1.69-1.779-.264-.274-.53-.548-.795-.819-.593-.606-1.187-1.2-1.781-1.787-.178-.175-.354-.353-.531-.526-.026-.024-.05-.049-.075-.074-.015-.015-.031-.029-.046-.044-.761-.74-1.522-1.464-2.284-2.17-.011-.011-.023-.022-.034-.032-.027-.026-.055-.05-.083-.076-.151-.139-.302-.272-.453-.41-.618-.565-1.237-1.12-1.857-1.661,0,0,49.113,66.066-57.661,107.278" fill="none"/></clipPath></defs><g><path d="M552.426,276.213c0,152.548-123.665,276.213-276.213,276.213S0,428.761,0,276.213,123.665,0,276.213,0s276.213,123.665,276.213,276.213" fill="#fff"/><path d="M431.7834,276.2133c0,85.919-69.651,155.571-155.571,155.571s-155.57-69.652-155.57-155.571S190.2934,120.6423,276.2124,120.6423s155.571,69.652,155.571,155.571" fill="#fff"/><path d="M276.2129,120.6426c85.919,0,155.571,69.651,155.571,155.571s-69.652,155.57-155.571,155.57-155.571-69.651-155.571-155.57S190.2939,120.6426,276.2129,120.6426m0-101.065c-34.601,0-68.221,6.799-99.925,20.209-30.572,12.931-58.007,31.422-81.544,54.958-23.536,23.536-42.027,50.971-54.958,81.543-13.409,31.705-20.209,65.324-20.209,99.926s6.8,68.221,20.209,99.925c12.931,30.572,31.422,58.007,54.958,81.544,23.537,23.536,50.972,42.026,81.544,54.957,31.704,13.41,65.324,20.209,99.925,20.209s68.221-6.799,99.925-20.209c30.572-12.931,58.007-31.421,81.544-54.957,23.536-23.537,42.026-50.972,54.957-81.544,13.41-31.704,20.21-65.324,20.21-99.925s-6.8-68.221-20.21-99.926c-12.931-30.572-31.421-58.007-54.957-81.543-23.537-23.536-50.972-42.027-81.544-54.958-31.704-13.41-65.324-20.209-99.925-20.209" fill="#fff"/><path d="M276.2118,542.9051c-147.054,0-266.691-119.637-266.691-266.692S129.1578,9.5201,276.2138,9.5201s266.691,119.639,266.691,266.693-119.637,266.692-266.693,266.692m.002-504.509c-131.134,0-237.817,106.684-237.817,237.817s106.683,237.817,237.815,237.817,237.817-106.684,237.817-237.817S407.3458,38.3961,276.2138,38.3961" fill="#1b6a36"/><path d="M276.2129,120.6425c85.919,0,155.571,69.651,155.571,155.571s-69.652,155.571-155.571,155.571-155.571-69.652-155.571-155.571S190.2939,120.6425,276.2129,120.6425" fill="#1b6a36"/><path d="M395.5228,457.9037c-9.043,0-17.701-3.209-24.381-9.037-10.456-9.118-21.973-24.09-22.457-24.725-.286-.373-27.598-36.059-43.063-47.115l-.101-.055c-.788-.426-1.587-.855-2.401-1.283l-13.75-6.654c-.988-.437-1.979-.866-2.987-1.289l-.382-.168c-1.133-.475-2.291-.944-3.461-1.41l-.809-.313c-.889-.354-1.769-.695-2.659-1.026l-1.225-.451c-.785-.29-1.564-.574-2.358-.852l-1.407-.492c-.724-.252-1.498-.51-2.274-.765l-1.443-.469c-.747-.241-1.541-.487-2.34-.73l-1.387-.42c-.835-.246-1.73-.501-2.633-.753l-1.182-.331c-1.194-.324-2.468-.657-3.754-.973-1.341-.327-2.595-.617-3.85-.892l-1.199-.246c-.906-.191-1.784-.377-2.67-.542l-1.512-.278c-.838-.156-1.666-.295-2.494-.431l-1.579-.25c-.77-.118-1.596-.234-2.419-.344l-1.616-.212c-.779-.095-1.639-.188-2.5-.275l-1.552-.162c-.93-.087-1.924-.162-2.917-.229l-1.098-.081c-1.286-.081-2.627-.142-3.974-.18l-1.445-.029c-.727-.014-1.451-.029-2.181-.029l-.154,.006-.776-.003-3.937,.102c-.631,.023-1.262,.066-1.897,.107l-2.529,.153c-.811,.064-1.61,.151-2.409,.238l-2.051,.206c-.91,.107-1.77,.234-2.633,.362l-4.194,.683c-.49,.087-.977,.171-1.466,.264l-1.498,.501h-.889c-.814,.185-1.628,.382-2.444,.582-1.165,.296-2.422,.632-3.676,.988l-1.057,.292c-.412,.111-.739,.197-1.069,.299l-1.359,.466c-2.835,.927-5.503,1.947-8.02,3.065l-.446,.194c-1.011,.454-2.054,.958-3.082,1.48l-.826,.408c-1.158,.609-2.282,1.226-3.328,1.854-.794,.478-1.442,.895-2.088,1.315-1.185,.765-2.126,1.405-2.978,2.031l-.432,.292-3.811,2.39-11.931,6.621-4.079,1.964-8.866,3.586c-.524,.183-.915,.31-1.309,.432l-5.145,1.457c-.538,.13-1.022,.229-1.509,.324l-.263,.052c-.516,.107-1.06,.217-1.591,.31-.599,.096-1.06,.157-1.523,.215-.539,.069-.968,.121-1.396,.165-.107,.014-.446,.052-.774,.078-.451,.037-.97,.061-1.491,.078l-1.037,.035c-.38,.011-.797,.02-1.182,.02-1.952-.023-3.693-.243-5.466-.672-1.106-.264-2.251-.623-3.363-1.063-1.309-.521-2.543-1.124-3.71-1.805-1.321-.77-2.59-1.662-3.786-2.659-.582-.483-1.222-1.06-1.854-1.685-2.39-2.355-4.472-5.232-6.164-8.528-.405-.782-.808-1.645-1.199-2.56l-.608-1.663c-1.307-4.313-2.329-9.191-3.036-14.5-.295-2.213-.515-4.232-.675-6.161-.356-4.423-.509-9.136-.452-14.008l.003-.307c.015-1.341,.064-2.812,.119-4.295,.064-1.666,.151-3.346,.261-5.049l.049-.866c.385-5.457,.982-10.943,1.781-16.427,.835-5.749,1.915-11.69,3.21-17.648,3.009-13.869,7.273-28.268,12.669-42.797l.131-.33c1.248-3.099,7.809-19.097,17.498-37.577,7.198-13.637,32.621-58.565,57.94-64.984,16.191-3.795,30.59,2.027,38.689,15.528l.399,.707c.638,1.237,1.194,2.282,1.796,3.36,4.858,8.71,7.717,10.654,7.746,10.671,1.135,.591,12.895,6.404,27.659,1.095,6.497-2.338,12.829-6.529,18.825-12.455,10.169-10.046,12.547-17.968,14.647-24.96,1.938-6.442,4.351-14.454,12.233-19.96l.341-.232c.559-.368,1.09-.701,1.631-1.022l.371-.209c4.684-2.572,10.034-3.789,16.875-3.852l1.228-.012,1.466,.212c.579,.078,1.193,.17,1.822,.298,.24,.043,.643,.136,1.051,.234,.852,.195,1.73,.423,2.619,.687l1.231,.388c.854,.284,1.712,.6,2.578,.944,.336,.128,.64,.249,.944,.38,.976,.405,2.06,.901,3.152,1.445l.741,.388c.785,.406,1.642,.875,2.5,1.37,.24,.137,.57,.336,.904,.536,.793,.475,1.514,.93,2.242,1.399l.909,.597c.901,.605,1.758,1.205,2.621,1.834l.539,.393c.889,.658,1.782,1.347,2.671,2.057l.869,.71c.646,.524,1.303,1.071,1.967,1.636l.895,.774c.741,.646,1.457,1.286,2.169,1.937l.704,.641c.831,.776,1.602,1.506,2.369,2.25l.837,.826c.707,.698,1.362,1.355,2.019,2.027l3.45,3.621c.808,.869,1.613,1.755,2.41,2.647l.345,.383c.811,.915,1.535,1.746,2.256,2.581l3.259,3.861c.695,.837,1.364,1.657,2.027,2.479l.388,.478c.849,1.06,1.562,1.958,2.268,2.856l3.051,3.963c.527,.689,1.074,1.419,1.616,2.149l.828,1.112c.632,.852,1.243,1.686,1.848,2.517l4.652,6.546c.658,.945,1.26,1.814,1.842,2.668,5.069,7.085,10.471,15.578,15.966,25.116l.443,.762c1.417,2.476,2.793,4.91,4.189,7.456,.651,1.086,4.814,8.211,10.175,19.745l1.11,2.422c.498,1.089,1.008,2.227,1.529,3.409l.988,2.271c.414,.956,.822,1.938,1.231,2.92l.84,2.004c.631,1.53,1.257,3.1,1.888,4.696l.218,.567c.327,.832,.698,1.767,1.066,2.743l3.473,9.582c.55,1.593,1.057,3.111,1.567,4.649l.593,1.822c.525,1.628,1.029,3.253,1.527,4.892l.515,1.675c.69,2.328,1.341,4.591,1.973,6.899,2.245,8.218,4.128,16.479,5.593,24.554,.73,4.023,1.367,8.053,1.897,11.975,.617,4.562,1.11,9.127,1.466,13.57,.461,5.75,.718,11.479,.759,17.026,.038,4.756-.11,9.839-.437,15.111-3.158,38.041-18.272,63.982-22.828,71.029l-.898,1.336c-.646,1.025-1.938,3.079-3.945,5.663-3.531,4.536-7.809,8.857-12.722,12.852-6.529,5.309-14.848,8.234-23.418,8.234m-169.443-118.318c.924,0,1.692,.014,2.462,.029l1.503,.032c1.585,.043,3.103,.11,4.641,.208l1.129,.084c1.087,.076,2.213,.157,3.337,.267l1.593,.165c.95,.096,1.915,.2,2.859,.316l1.692,.223c.924,.124,1.83,.252,2.734,.388l1.683,.263c.973,.163,1.889,.319,2.813,.49l1.538,.281c1.022,.194,2.01,.397,2.995,.605l1.245,.258c1.448,.316,2.818,.634,4.293,.994,1.413,.347,2.809,.709,4.177,1.083l1.213,.339c.953,.263,1.924,.541,2.897,.828l1.457,.441c.88,.269,1.755,.538,2.601,.813l1.48,.481c.86,.284,1.697,.565,2.52,.846l1.451,.507c.866,.304,1.715,.617,2.575,.933l1.26,.463c1,.374,1.967,.75,2.914,1.121l.834,.325c1.313,.524,2.558,1.028,3.919,1.601l.365,.162c.948,.394,2.031,.864,3.132,1.35l6.905,3.187,7.696,3.878c.898,.472,1.755,.93,2.572,1.373l1.217,.713c17.286,12.087,45.493,48.94,46.684,50.501,.101,.13,11.096,14.422,20.423,22.555,3.98,3.473,9.176,5.385,14.634,5.385,5.173,0,10.169-1.744,14.062-4.91,4.044-3.287,7.531-6.804,10.37-10.45,1.555-2.002,2.546-3.575,3.079-4.42l1.051-1.579c4.125-6.396,17.606-29.646,20.459-63.997,.292-4.773,.431-9.512,.397-13.926-.038-5.191-.278-10.558-.713-15.954-.333-4.177-.799-8.473-1.379-12.768-.501-3.705-1.103-7.511-1.793-11.314-1.387-7.653-3.174-15.491-5.306-23.292-.6-2.204-1.225-4.368-1.863-6.523l-.501-1.627c-.481-1.588-.961-3.132-1.451-4.652l-.576-1.767c-.481-1.457-.971-2.911-1.46-4.336l-3.398-9.374c-.307-.808-.652-1.68-.979-2.514l-.217-.565c-.576-1.457-1.173-2.957-1.761-4.379l-.832-1.984c-.391-.936-.77-1.848-1.152-2.732l-.974-2.236c-.475-1.086-.955-2.155-1.422-3.175l-1.092-2.381c-5.147-11.079-9.144-17.863-9.582-18.601-1.483-2.688-2.812-5.052-4.159-7.404l-.432-.741c-5.271-9.148-10.407-17.229-15.285-24.05l-6.355-9.012c-.567-.785-1.15-1.578-1.741-2.375l-.816-1.098c-.507-.677-1.014-1.355-1.524-2.021l-5.451-6.972c-.617-.765-1.24-1.533-1.886-2.309l-3.102-3.676c-.655-.756-1.338-1.541-2.065-2.36l-.331-.365c-.756-.849-1.491-1.66-2.215-2.439l-3.21-3.369c-.599-.614-1.202-1.214-1.828-1.836l-.787-.774c-.667-.646-1.362-1.306-2.054-1.952l-.649-.588c-.634-.579-1.263-1.144-1.894-1.694l-.829-.716c-.533-.452-1.103-.93-1.677-1.396l-.82-.669c-.68-.542-1.428-1.121-2.131-1.642l-.49-.357c-.715-.518-1.422-1.014-2.109-1.477l-.799-.524c-.524-.342-1.095-.698-1.634-1.02l-.764-.46c-.725-.418-1.373-.771-2.019-1.104l-.49-.261c-.77-.385-1.547-.741-2.297-1.051l-.559-.223c-.707-.284-1.286-.495-1.856-.684l-.852-.269c-.521-.154-1.115-.307-1.744-.452l-.481-.113c-.42-.084-.732-.125-1.042-.168l-.501-.055c-4.293,.041-7.421,.675-9.831,1.999-.334,.194-.667,.405-.994,.62-3.516,2.453-4.779,6.195-6.555,12.096-2.352,7.82-5.57,18.535-18.428,31.239-7.537,7.45-15.687,12.788-24.226,15.861-20.305,7.311-36.668-.396-39.744-2.013-2.873-1.515-7.566-5.599-13.631-16.475-.695-1.243-1.344-2.462-1.926-3.607l-.151-.257c-5.981-9.964-15.465-10.17-22.344-8.557-14.306,3.63-34.611,31.492-48.332,57.479-9.35,17.84-15.665,33.233-16.838,36.138-5.167,13.906-9.231,27.624-12.09,40.812-1.222,5.625-2.242,11.222-3.03,16.635-.744,5.124-1.3,10.248-1.654,15.227l-.046,.829c-.107,1.639-.188,3.186-.246,4.707-.049,1.344-.093,2.682-.107,3.887l-.003,.31c-.052,4.44,.084,8.692,.405,12.655,.136,1.689,.333,3.458,.591,5.402,.594,4.44,1.422,8.464,2.471,11.968l.18,.496c.223,.507,.449,.988,.677,1.436,.977,1.898,2.121,3.5,3.41,4.768,.321,.319,.619,.588,.903,.823,.574,.478,1.185,.909,1.779,1.257,.539,.313,1.101,.585,1.706,.828,.429,.168,.907,.319,1.361,.429,.927,.223,1.608,.255,2.042,.261l1.677-.047c.261-.008,.554-.02,.835-.043l1.225-.142c.559-.07,.84-.101,1.164-.156,.302-.053,.684-.128,1.063-.209l.325-.064c.336-.069,.634-.127,.93-.197l8.547-2.78,7.702-3.502,11.198-6.228,3.074-1.938c1.008-.733,2.12-1.489,3.478-2.366,.771-.498,1.564-1.008,2.373-1.492,1.43-.86,2.803-1.622,4.365-2.436l.903-.449c1.191-.605,2.436-1.208,3.737-1.79l.481-.211c2.934-1.298,6.068-2.5,9.283-3.549l.782-.269c.339-.119,.643-.223,.942-.313,.486-.15,1.005-.295,1.526-.431l.933-.261c1.355-.385,2.757-.759,4.104-1.101,1.237-.301,2.433-.591,3.627-.849l1.474-.307c.73-.144,1.46-.272,2.187-.402l4.603-.747c1.016-.151,2.027-.302,3.05-.42l2.242-.229c.938-.099,1.874-.197,2.795-.27,.402-.034,.831-.055,1.257-.078l1.254-.075c1.002-.067,1.776-.116,2.532-.145l2.963-.075c.64-.021,1.103-.035,1.584-.038l.632,.006,.066-.006h.206Z" fill="#1b6a36"/><path d="M429.3072,425.7939c3.921-6.065,18.623-30.973,21.655-67.461,.298-4.817,.458-9.71,.422-14.6-.042-5.388-.289-10.936-.736-16.491-.345-4.3-.823-8.73-1.423-13.167-.521-3.86-1.142-7.777-1.843-11.644-1.43-7.868-3.262-15.915-5.449-23.921-.617-2.258-1.254-4.469-1.911-6.678l-.521-1.696c-.486-1.601-.977-3.188-1.478-4.746l-.59-1.799c-.497-1.508-.994-2.993-1.497-4.448l-3.434-9.484c-.358-.94-.713-1.846-1.054-2.712l-.193-.497c-.615-1.56-1.228-3.096-1.827-4.552l-.851-2.027c-.394-.945-.79-1.892-1.185-2.809l-.976-2.243c-.506-1.148-1.001-2.253-1.481-3.303l-1.095-2.387c-5.208-11.211-9.252-18.13-9.949-19.302-1.375-2.507-2.729-4.906-4.096-7.295l-.46-.791c-5.373-9.327-10.643-17.612-15.661-24.63-.572-.837-1.161-1.688-1.787-2.588l-2.572-3.652c-.517-.729-1.046-1.464-1.663-2.316l-.356-.491c-.589-.812-1.188-1.626-1.791-2.444l-.829-1.112c-.524-.701-1.052-1.406-1.578-2.096l-.737-.97c-.527-.686-1.055-1.375-1.582-2.048l-.653-.844c-.692-.879-1.39-1.759-2.1-2.646l-.169-.21c-.062-.079-.126-.156-.19-.231l-.138-.172c-.642-.796-1.289-1.589-1.957-2.395l-.744-.893c-.55-.656-1.101-1.311-1.645-1.949l-.778-.909c-.701-.814-1.407-1.62-2.155-2.462l-.371-.417c-.764-.855-1.532-1.701-2.288-2.515l-.719-.767c-.592-.634-1.189-1.26-1.766-1.86l-.855-.88c-.629-.643-1.259-1.271-1.913-1.92l-.812-.797c-.73-.709-1.461-1.405-2.193-2.084l-.712-.649c-.67-.613-1.339-1.213-2.014-1.802l-.854-.735c-.619-.527-1.234-1.041-1.849-1.542l-.806-.656c-.818-.653-1.638-1.286-2.406-1.857l-.542-.395c-.788-.574-1.57-1.12-2.333-1.634l-.863-.566c-.647-.42-1.294-.827-1.906-1.193-.315-.191-.632-.383-.924-.549-.756-.437-1.51-.848-2.252-1.233-.177-.097-.353-.191-.584-.307-.936-.467-1.864-.893-2.762-1.268-.223-.096-.445-.182-.78-.309-.724-.289-1.443-.552-2.148-.786-.317-.105-.634-.205-1.011-.319-.742-.221-1.479-.413-2.257-.591-.274-.067-.548-.131-.781-.176-.47-.094-.934-.161-1.397-.225l-.913-.129-.662,.005c-5.576,.053-9.812,.979-13.338,2.915l-.201,.112c-.44,.259-.872,.533-1.296,.81l-.208,.141c-5.77,4.032-7.603,10.125-9.375,16.018-2.241,7.453-5.032,16.728-16.537,28.099-6.768,6.687-14.011,11.451-21.528,14.157-17.359,6.249-31.182-.232-33.78-1.6-1.016-.534-4.786-3.085-10.607-13.521-.651-1.167-1.254-2.298-1.796-3.361l-.286-.512c-6.457-10.765-17.521-15.202-30.51-12.156-22.931,5.815-48.326,52.014-53.194,61.237-9.525,18.171-15.964,33.866-17.158,36.827l-.085,.222c-5.273,14.187-9.437,28.247-12.375,41.789-1.263,5.81-2.311,11.581-3.119,17.143-.773,5.315-1.347,10.587-1.714,15.769l-.053,.939c-.107,1.636-.191,3.248-.253,4.837-.052,1.418-.098,2.822-.113,4.086l-.003,.33c-.055,4.653,.09,9.134,.429,13.32,.148,1.809,.357,3.702,.634,5.781,.655,4.916,1.59,9.4,2.781,13.331l.327,.894c.318,.747,.647,1.446,.98,2.093,1.33,2.59,2.952,4.837,4.796,6.652,.465,.462,.934,.884,1.373,1.249,.887,.739,1.828,1.401,2.77,1.949,.845,.495,1.738,.932,2.695,1.313,.8,.315,1.618,.572,2.396,.757,1.493,.36,2.725,.45,3.67,.462h.045c.302,0,.627-.004,.948-.017l1.01-.03c.405-.015,.811-.032,1.201-.064,.195-.015,.395-.038,.553-.058,.36-.04,.718-.081,1.044-.126l.212-.026c.374-.047,.745-.094,1.171-.163,.452-.077,.915-.169,1.376-.265l.298-.062c.394-.076,.784-.157,1.172-.247,.136-.032,.272-.066,.428-.105l4.287-1.23c.323-.104,.645-.207,1.004-.33l1.871-.676c.3-.108,.599-.219,.897-.333,.343-.134,.686-.272,1.084-.434l4.381-1.881-.002-.002,.825-.386,3.173-1.54,11.56-6.425,3.46-2.181c.958-.705,2.014-1.425,3.327-2.273,.72-.465,1.44-.928,2.174-1.369l.144-.09c1.163-.694,2.41-1.386,3.833-2.125l.777-.388c1.134-.574,2.278-1.129,3.471-1.663l.405-.179c2.748-1.215,5.647-2.323,8.623-3.296l.882-.302c.232-.081,.467-.165,.694-.237,.424-.129,.847-.244,1.271-.358l1.015-.279c1.328-.377,2.657-.734,3.934-1.056,1.133-.278,2.266-.55,3.395-.797h.497l.823-.274c.801-.158,1.6-.296,2.399-.437l3.766-.611c1.035-.154,2.068-.31,3.109-.434,.263-.03,.523-.054,.786-.078l.945-.094c1.013-.109,2.029-.22,3.027-.298,.353-.028,.705-.047,1.056-.066l1.328-.081c.793-.052,1.584-.105,2.357-.135,.444-.018,.887-.026,1.328-.033l1.539-.04c.475-.015,.949-.03,1.444-.034l.503,.006,.341-.009c.893,0,1.78,.02,2.669,.039l1.167,.021c1.436,.043,2.865,.107,4.317,.197l1.05,.078c1.061,.074,2.123,.152,3.179,.252l1.538,.159c.911,.094,1.823,.193,2.715,.302l1.63,.214c.868,.116,1.735,.238,2.595,.369l1.632,.257c.876,.145,1.746,.295,2.626,.456l1.541,.283c.94,.178,1.874,.371,2.804,.568l1.271,.263c1.317,.289,2.63,.593,4.038,.936,1.349,.33,2.684,.677,3.993,1.033l1.157,.326c.94,.259,1.874,.526,2.809,.803l1.394,.422c.836,.255,1.671,.514,2.479,.773l1.455,.474c.812,.268,1.617,.538,2.408,.81l1.416,.494c.826,.29,1.641,.588,2.468,.892l1.249,.462c.932,.348,1.855,.707,2.761,1.063l.863,.336c1.213,.484,2.415,.971,3.728,1.524l.234,.104c1.051,.44,2.088,.888,3.142,1.354l1.046,.468c.786,.353,1.572,.706,2.297,1.039l1.246,.584c.711,.332,1.416,.667,2.102,.997l4.394,2.17c.711,.366,1.412,.728,2.11,1.092l.985,.512c.843,.444,1.671,.889,2.462,1.316l.501,.27c16.539,11.564,45.037,48.922,45.037,48.922v-.001c3.974,5.493,11.429,14.914,21.447,23.65,5.501,4.797,12.5,7.209,19.507,7.209,6.667,0,13.343-2.185,18.739-6.574,4.484-3.647,8.366-7.565,11.543-11.648,1.762-2.269,2.895-4.062,3.503-5.024l.111-.176c.107-.164,.43-.643,.859-1.274" fill="#fff"/><path d="M331.3643,180.5162c.193,.188,.281,.459,.235,.724l-1.922,11.207c-.114,.668,.587,1.178,1.187,.862l10.065-5.291c.238-.125,.523-.125,.761,0l10.065,5.291c.6,.316,1.301-.194,1.186-.862l-1.922-11.207c-.046-.265,.042-.536,.235-.724l8.143-7.937c.485-.473,.217-1.297-.454-1.395l-11.252-1.635c-.267-.039-.497-.206-.616-.447l-5.033-10.197c-.3-.608-1.167-.608-1.467,0l-5.032,10.197c-.119,.241-.349,.408-.616,.447l-11.252,1.635c-.671,.098-.939,.922-.454,1.395l8.143,7.937Z" fill="#fff"/><path d="M334.9535,377.0116l5.978-3.142c.238-.126,.522-.126,.761,0l10.065,5.291c.6,.315,1.301-.194,1.186-.862l-1.922-11.207c-.046-.266,.042-.537,.235-.724l8.142-7.937c.486-.474,.218-1.298-.453-1.395l-11.253-1.635c-.266-.039-.496-.206-.615-.448l-5.033-10.196c-.3-.608-1.167-.608-1.467,0l-5.032,10.196c-.119,.242-.349,.409-.616,.448l-11.252,1.635c-.671,.097-.939,.921-.454,1.395l8.143,7.937c.193,.187,.281,.458,.235,.724l-1.149,6.703c.435,.287,.876,.577,1.296,.857,1.075,.795,2.136,1.572,3.205,2.36" fill="#fff"/><path d="M331.7482,374.6519c-.418-.279-.862-.57-1.296-.856,.434,.286,.878,.577,1.296,.856,1.075,.795,2.136,1.572,3.205,2.36-1.069-.788-2.129-1.565-3.205-2.36" fill="#fff"/><path d="M331.7482,374.6519c-.419-.28-.86-.57-1.296-.858v.002c.434,.286,.878,.577,1.296,.856" fill="#fff"/><path d="M334.9533,377.0116h0c-1.069-.788-2.13-1.565-3.205-2.36,1.075,.795,2.136,1.572,3.205,2.36" fill="#fff"/><path d="M272.9674,242.2946c.193,.188,.281,.459,.235,.724l-1.922,11.207c-.114,.668,.587,1.178,1.187,.862l10.065-5.291c.238-.125,.522-.125,.761,0l10.065,5.291c.6,.316,1.301-.194,1.186-.862l-1.922-11.207c-.046-.265,.042-.536,.235-.724l8.143-7.937c.485-.473,.217-1.297-.454-1.395l-11.252-1.635c-.267-.039-.497-.206-.616-.447l-5.033-10.197c-.3-.608-1.167-.608-1.467,0l-5.032,10.197c-.119,.241-.349,.408-.616,.447l-11.252,1.635c-.671,.098-.939,.922-.454,1.395l8.143,7.937Z" fill="#fff"/><path d="M417.061,235.0737h0c-.141-.312-.285-.631-.425-.937-.214-.466-.423-.916-.633-1.368,.347,.748,.7,1.518,1.058,2.305" fill="#fff"/><path d="M405.4734,230.8805l-5.033-10.197c-.3-.608-1.166-.608-1.466,0l-5.033,10.197c-.119,.241-.349,.409-.615,.447l-11.253,1.635c-.671,.098-.939,.922-.453,1.395l8.142,7.937c.193,.188,.281,.459,.236,.724l-1.923,11.207c-.114,.668,.587,1.178,1.187,.862l10.065-5.291c.238-.125,.523-.125,.761,0l10.065,5.291c.6,.316,1.301-.194,1.186-.862l-1.922-11.207c-.045-.265,.043-.536,.235-.724l7.409-7.221c-.358-.787-.711-1.557-1.059-2.305l-9.913-1.441c-.267-.038-.497-.206-.616-.447" fill="#fff"/><path d="M368.0666,292.2248c.193,.188,.281,.459,.235,.724l-.77,4.49c-.114,.668,.587,1.178,1.187,.862l4.032-2.12c.239-.125,.523-.125,.761,0l4.033,2.12c.6,.316,1.301-.194,1.187-.862l-.77-4.49c-.046-.265,.042-.536,.235-.724l3.262-3.18c.485-.473,.218-1.297-.453-1.395l-4.509-.655c-.266-.038-.496-.206-.616-.447l-2.016-4.085c-.3-.608-1.167-.608-1.467,0l-2.016,4.085c-.119,.241-.349,.409-.616,.447l-4.508,.655c-.671,.098-.939,.922-.453,1.395l3.262,3.18Z" fill="#fff"/><path d="M353.1902,305.8151l.028,.012c5.339,.985,10.63,2.011,15.868,3.074,26.237,5.32,43.997,7.136,55.99,7.316,2.458-.006,15.299-.589,13.802-12.243-1.469-8.087-3.276-15.845-5.28-23.183,9.842,41.542-80.408,25.024-80.408,25.024" fill="#fff"/><path d="M434.8991,285.7052c.563,2.214,1.105,4.463,1.625,6.745-.52-2.282-1.062-4.531-1.625-6.745" fill="#fff"/><path d="M177.4822,314.9575c-3.404,.488-6.73,1.024-9.976,1.6,5.419-.716,8.488-1.231,9.976-1.6" fill="#1b6a36"/><path d="M433.5986,280.7911c0-.001,0-.002-.001-.003-.599-2.196-1.219-4.346-1.85-6.463-.169-.568-.343-1.116-.514-1.678-.474-1.557-.951-3.1-1.437-4.611-.19-.59-.383-1.164-.574-1.747-.482-1.466-.966-2.912-1.455-4.33-.19-.549-.38-1.088-.57-1.63-.255-.723-.506-1.469-.762-2.178-.23-.638-.461-1.237-.691-1.864-.23-.627-.46-1.247-.691-1.863-.208-.557-.416-1.139-.625-1.686-.346-.909-.692-1.787-1.038-2.669-.058-.15-.117-.302-.175-.451-.598-1.52-1.195-3.013-1.787-4.451-.072-.174-.141-.333-.213-.506-.145-.351-.286-.678-.431-1.023-.441-1.056-.884-2.123-1.318-3.131-.131-.303-.259-.594-.389-.893-.004-.009-.007-.018-.011-.027-.187-.43-.376-.866-.561-1.287-.489-1.113-.97-2.182-1.444-3.227l-.001,.001-7.408,7.221c-.193,.188-.281,.458-.235,.723l1.922,11.208c.115,.668-.586,1.177-1.186,.862l-10.065-5.291c-.238-.126-.523-.126-.761,0l-10.065,5.291c-.6,.315-1.301-.194-1.187-.862l1.922-11.208c.046-.265-.042-.535-.235-.723l-8.142-7.937c-.486-.473-.218-1.298,.453-1.395l11.252-1.635c.267-.039,.497-.206,.616-.448l5.033-10.196c.299-.608,1.166-.608,1.466,0l5.033,10.196c.119,.242,.349,.409,.616,.448l9.913,1.44c-5.478-11.793-9.612-18.646-9.612-18.646-1.377-2.511-2.729-4.91-4.067-7.245h.001s-.059-.104-.154-.269c-.076-.13-.19-.327-.323-.555-5.379-9.335-10.449-17.272-15.229-23.953-.017-.024-.035-.05-.052-.074-.567-.829-1.148-1.671-1.738-2.518-.194-.279-.392-.56-.588-.841-.434-.622-.874-1.247-1.32-1.876-.214-.303-.428-.605-.645-.908-.506-.71-1.019-1.424-1.537-2.141-.146-.201-.289-.401-.435-.602-.651-.895-1.312-1.795-1.981-2.697-.006-.008-.012-.017-.019-.026-.005-.006-.01-.013-.015-.02-.177-.239-.358-.479-.537-.718-.509-.682-1.022-1.365-1.54-2.049-.235-.309-.472-.619-.709-.929-.51-.668-1.026-1.336-1.545-2.002-.209-.27-.417-.54-.628-.809-.673-.858-1.352-1.714-2.037-2.567-.045-.057-.09-.115-.136-.172-.041-.052-.084-.103-.125-.154-.075-.093-.151-.185-.226-.278-.62-.768-1.246-1.533-1.875-2.295-.241-.291-.484-.581-.727-.872-.532-.636-1.066-1.269-1.603-1.899-.246-.288-.492-.577-.739-.863-.67-.778-1.345-1.549-2.022-2.312-.025-.027-.05-.056-.074-.083-.07-.079-.138-.159-.208-.236-.04-.045-.081-.089-.121-.134-.728-.814-1.459-1.617-2.194-2.41-.227-.246-.456-.487-.684-.73-.562-.6-1.125-1.194-1.69-1.78-.265-.274-.53-.547-.796-.818-.592-.605-1.186-1.2-1.781-1.787-.177-.175-.354-.353-.531-.527-.025-.024-.05-.049-.074-.073-.016-.015-.031-.029-.047-.044-.76-.74-1.521-1.464-2.284-2.17-.011-.011-.022-.022-.033-.032-.028-.026-.056-.051-.084-.076-.15-.139-.301-.272-.452-.41-.619-.566-1.238-1.12-1.857-1.661-.263-.229-.526-.454-.789-.679-.566-.484-1.131-.955-1.697-1.416-.245-.199-.49-.403-.735-.598-.762-.607-1.523-1.196-2.283-1.758-.029-.022-.059-.046-.088-.068-.05-.037-.1-.069-.149-.106-.016-.011-.031-.021-.046-.032-.725-.53-1.448-1.036-2.17-1.521-.244-.164-.488-.32-.733-.479-.56-.365-1.119-.715-1.676-1.051-.255-.153-.509-.307-.763-.454-.637-.367-1.27-.713-1.902-1.039-.139-.072-.28-.153-.419-.223-.007-.003-.015-.007-.022-.011-.012-.006-.023-.01-.035-.016-.757-.379-1.509-.724-2.258-1.039-.204-.086-.407-.158-.611-.239-.565-.225-1.128-.432-1.688-.617-.247-.082-.495-.16-.741-.234-.555-.166-1.106-.309-1.654-.434-.202-.047-.407-.102-.608-.142-.405-.082-.804-.124-1.205-.181-4.196,.039-7.121,.673-9.258,1.845-.313,.183-.616,.377-.916,.575-8.342,5.828-3.114,21.762-24.787,43.179-8.37,8.27-16.76,13.29-24.675,16.14-18.061,6.503-33.631,1.648-40.725-2.077-5.34-2.805-10.462-10.378-14.134-16.96-.704-1.263-1.357-2.49-1.946-3.639,0,0-.001,0-.001-.001-5.591-9.322-14.13-9.835-20.976-8.227-20.368,5.165-47.665,56.875-47.665,56.875-9.327,17.789-15.622,33.133-16.796,36.044-5.313,14.295-9.279,27.932-12.032,40.613-1.241,5.719-2.24,11.246-3.012,16.555-.76,5.232-1.298,10.249-1.634,15.033,100.119-34.712,175.95-29.693,243.118-17.298l-.028-.012s90.249,16.518,80.408-25.024m-132.599-46.433l-8.142,7.937c-.193,.188-.281,.458-.235,.723l1.922,11.207c.115,.669-.587,1.178-1.187,.863l-10.064-5.292c-.239-.125-.523-.125-.762,0l-10.064,5.292c-.6,.315-1.302-.194-1.187-.863l1.922-11.207c.046-.265-.042-.535-.235-.723l-8.143-7.937c-.485-.473-.217-1.298,.453-1.395l11.253-1.635c.267-.039,.497-.206,.616-.448l5.032-10.196c.3-.608,1.167-.608,1.467,0l5.033,10.196c.119,.242,.349,.409,.615,.448l11.253,1.635c.671,.097,.939,.922,.453,1.395m58.397-61.779l-8.142,7.937c-.193,.188-.281,.459-.235,.724l1.922,11.207c.115,.668-.587,1.178-1.187,.862l-10.065-5.291c-.238-.125-.522-.125-.761,0l-10.064,5.291c-.6,.316-1.302-.194-1.187-.862l1.922-11.207c.045-.265-.042-.536-.235-.724l-8.143-7.937c-.485-.473-.217-1.297,.453-1.395l11.253-1.635c.267-.038,.497-.206,.616-.447l5.032-10.197c.3-.608,1.167-.608,1.467,0l5.032,10.197c.12,.241,.35,.409,.616,.447l11.253,1.635c.671,.098,.939,.922,.453,1.395m22.062,116.466l-3.262,3.18c-.193,.188-.281,.459-.235,.724l.77,4.49c.114,.668-.587,1.178-1.187,.862l-4.033-2.12c-.238-.125-.522-.125-.761,0l-4.032,2.12c-.6,.316-1.301-.194-1.187-.862l.77-4.49c.046-.265-.042-.536-.235-.724l-3.262-3.18c-.486-.473-.218-1.298,.453-1.395l4.508-.655c.267-.039,.497-.206,.616-.448l2.016-4.085c.3-.608,1.167-.608,1.467,0l2.016,4.085c.12,.242,.35,.409,.616,.448l4.509,.655c.671,.097,.938,.922,.453,1.395" fill="#1b6a36"/><path d="M414.2609,386.8371c-3.426-3.017-6.411-5.431-8.552-7.098-1.137-.825-2.293-1.687-3.485-2.623-56.01-43.965-115.783-60.654-167.629-64.788-20.655-1.066-39.871,.157-57.113,2.629-1.488,.37-4.557,.885-9.976,1.6-.026,.004-.047,.007-.073,.011-7.12,.939-13.425,2.381-18.884,3.984-14.407,4.231-22.725,9.59-23.469,10.082-7.179,4.793-13.963,11.553-14.403,20.135,.59,4.424,1.418,8.443,2.487,11.965,.233,.547,.475,1.061,.723,1.545,.994,1.935,2.096,3.384,3.197,4.468,.275,.272,.551,.52,.824,.748,.547,.455,1.086,.826,1.605,1.129,.518,.304,1.016,.539,1.479,.721,.463,.182,.891,.311,1.271,.403,.76,.183,1.326,.215,1.589,.219h.049c.028-.001,.055-.001,.084-.001h.049c.223,.007,.458-.009,.689-.017,.231-.007,.458-.007,.69-.017,.337-.013,.67-.021,1.015-.05h.001c.095-.008,.195-.024,.292-.035,.291-.031,.583-.064,.878-.103,.351-.045,.699-.085,1.057-.144,.403-.068,.817-.155,1.229-.239,.363-.074,.723-.142,1.093-.229,.258-.06,.521-.133,.784-.203,.161-.042,.321-.081,.482-.124,.002-.001,.004-.001,.005-.002,.374-.099,.744-.193,1.122-.303q.001-.001,.002-.001c.43-.126,.865-.269,1.299-.407,.003-.001,.006-.002,.008-.003,.38-.122,.757-.237,1.139-.368,.001-.001,.002-.001,.003-.001,.243-.084,.489-.176,.734-.266,.201-.073,.401-.144,.602-.217,.38-.14,.759-.274,1.141-.421,.457-.177,.914-.366,1.372-.553,.375-.153,.749-.3,1.124-.46,.001,0,.002-.001,.003-.001,.452-.192,.903-.395,1.354-.595,.007-.003,.014-.006,.021-.01,.373-.165,.746-.325,1.117-.496,.002,0,.003-.001,.004-.002,.054-.024,.107-.05,.16-.075,.41-.19,.818-.385,1.227-.579,.358-.17,.719-.337,1.074-.511,.002-.001,.003-.001,.005-.002,.008-.004,.015-.007,.023-.011,.459-.225,.911-.455,1.364-.683,.347-.175,.697-.347,1.04-.524,.001-.001,.003-.001,.005-.002,.441-.228,.873-.459,1.307-.689,.019-.01,.037-.019,.056-.029,.332-.176,.669-.35,.996-.527,.002-.001,.004-.002,.006-.003,.425-.23,.837-.46,1.254-.69,.025-.014,.051-.028,.076-.042,.317-.175,.641-.35,.952-.525,.002-.001,.005-.002,.007-.004,.414-.232,.81-.462,1.213-.693,.04-.022,.08-.045,.119-.068,.279-.16,.567-.322,.84-.48,.476-.277,.93-.548,1.387-.819,.224-.134,.459-.27,.678-.401,.003-.002,.006-.004,.008-.005,.376-.226,.726-.442,1.086-.661,.106-.064,.214-.13,.319-.194,.168-.103,.349-.211,.514-.313,.003-.002,.007-.004,.01-.005,.308-.191,.59-.369,.885-.554,.195-.122,.39-.243,.585-.365,.093-.059,.197-.122,.289-.18,1.225-.901,2.483-1.746,3.755-2.568,.8-.517,1.602-1.031,2.417-1.521,.093-.065,.157-.11,.157-.11l.006,.009c1.395-.832,2.819-1.614,4.259-2.363,.291-.152,.587-.293,.879-.441,1.257-.635,2.524-1.249,3.81-1.825,.157-.071,.315-.141,.472-.21,3.073-1.357,6.221-2.555,9.424-3.605,.579-.189,1.147-.405,1.73-.585,.823-.252,1.646-.459,2.469-.693,1.412-.399,2.822-.778,4.232-1.133,1.514-.371,3.028-.734,4.538-1.045,.003-.001,.006-.001,.01-.002,.006-.001,.011-.002,.017-.004,1.177-.242,2.35-.441,3.523-.647,.529-.093,1.059-.206,1.587-.292,.071-.012,.142-.022,.212-.034,.49-.079,.978-.132,1.467-.204,1.224-.182,2.448-.367,3.667-.512,.565-.068,1.127-.111,1.691-.171,1.142-.121,2.285-.244,3.422-.335,.673-.053,1.343-.082,2.014-.125,1.022-.065,2.046-.135,3.064-.176,.727-.03,1.449-.037,2.173-.054h.001c.796-.02,1.595-.055,2.388-.06,.16-.001,.318,.006,.478,.005,.149,0,.3-.008,.449-.008,1.03,0,2.054,.024,3.078,.047,.337,.007,.676,.006,1.013,.016,1.529,.045,3.051,.114,4.567,.208,.383,.023,.763,.059,1.145,.085,1.131,.079,2.261,.164,3.384,.268,.542,.05,1.08,.111,1.621,.167,.963,.1,1.925,.204,2.882,.321,.579,.072,1.154,.149,1.73,.226,.918,.124,1.833,.253,2.744,.392,.578,.088,1.155,.178,1.73,.272,.923,.152,1.842,.312,2.759,.479,.541,.098,1.083,.194,1.621,.297,.997,.191,1.985,.394,2.972,.603,.445,.093,.893,.181,1.336,.278,1.389,.304,2.769,.622,4.138,.957,.035,.009,.071,.016,.106,.025,1.418,.348,2.823,.714,4.22,1.092,.397,.108,.788,.223,1.184,.333,.988,.275,1.972,.553,2.948,.842,.488,.145,.971,.294,1.456,.442,.878,.268,1.752,.539,2.62,.817,.506,.162,1.009,.327,1.511,.492,.848,.28,1.691,.564,2.528,.853,.489,.168,.977,.336,1.462,.507,.863,.305,1.717,.616,2.568,.929,.439,.162,.881,.322,1.317,.486,.975,.366,1.938,.739,2.897,1.116,.294,.116,.594,.229,.887,.345,1.265,.504,2.517,1.015,3.753,1.534,.123,.051,.242,.105,.365,.157,1.095,.462,2.178,.929,3.247,1.4,.374,.165,.74,.332,1.111,.498,.815,.364,1.625,.73,2.424,1.098,.42,.195,.834,.389,1.25,.584,.739,.347,1.474,.694,2.2,1.044,.423,.204,.843,.407,1.261,.612,.714,.349,1.421,.7,2.121,1.051,.399,.2,.798,.399,1.191,.599,.735,.374,1.458,.748,2.177,1.122,.337,.176,.679,.352,1.013,.527,.871,.46,1.726,.919,2.572,1.377,.165,.09,.336,.18,.501,.27,1.01,.551,2.001,1.101,2.973,1.648,.253,.143,.497,.285,.747,.427,.71,.403,1.413,.805,2.101,1.205,.331,.192,.653,.382,.979,.574,.593,.348,1.182,.696,1.759,1.041,.345,.206,.684,.411,1.023,.616,.537,.325,1.066,.647,1.587,.968,.337,.206,.67,.412,1,.617,.522,.324,1.031,.644,1.536,.963,.3,.189,.602,.379,.895,.566,.541,.345,1.066,.684,1.587,1.022,.234,.152,.475,.306,.705,.456,.293,.192,.574,.378,.86,.567l1.15-6.703c.045-.265-.043-.536-.235-.724l-8.143-7.937c-.486-.473-.218-1.297,.453-1.395l11.253-1.635c.266-.039,.496-.206,.616-.448l5.032-10.196c.3-.608,1.167-.608,1.467,0l5.032,10.197c.119,.241,.35,.408,.616,.447l11.253,1.635c.671,.098,.939,.922,.453,1.395l-8.142,7.937c-.193,.188-.281,.459-.236,.724l1.923,11.207c.114,.668-.587,1.178-1.187,.862l-10.065-5.291c-.238-.126-.523-.126-.761,0l-5.977,3.142c3.708,2.733,7.39,5.434,11.012,8.043,.001,0,.008,.006,.008,.006v0c1.47,1.058,2.929,2.101,4.382,3.131,.463,.329,.921,.648,1.382,.973,.991,.698,1.98,1.395,2.962,2.077,.55,.383,1.095,.756,1.643,1.134,.882,.608,1.764,1.214,2.639,1.808,.589,.4,1.174,.791,1.759,1.184,.828,.556,1.653,1.107,2.474,1.647,.598,.395,1.193,.783,1.788,1.17,.804,.522,1.604,1.036,2.4,1.543,.59,.376,1.179,.748,1.765,1.115,.798,.498,1.59,.985,2.38,1.467,.567,.346,1.136,.693,1.7,1.03,.808,.483,1.608,.948,2.407,1.41,.533,.309,1.069,.624,1.598,.924,.864,.488,1.718,.953,2.57,1.416,.447,.242,.899,.496,1.343,.732,1.151,.61,2.288,1.19,3.416,1.748,.139,.069,.282,.146,.42,.214,1.26,.617,2.504,1.196,3.734,1.743,.379,.168,.748,.314,1.123,.476,.846,.363,1.69,.722,2.521,1.049,.461,.182,.912,.341,1.368,.511,.733,.274,1.465,.543,2.186,.786,.481,.163,.955,.307,1.431,.455,.682,.213,1.361,.417,2.031,.601,.48,.131,.955,.249,1.429,.365,.652,.159,1.298,.304,1.938,.433,.469,.094,.935,.182,1.397,.261,.632,.106,1.256,.191,1.876,.266,.448,.054,.896,.109,1.337,.146,.627,.053,1.243,.076,1.857,.094,.431,.012,.865,.035,1.289,.03,.357-.005,.707-.029,1.059-.046,.271-.013,.536-.04,.805-.059,.269-.019,.54-.03,.805-.059,.36-.039,.714-.091,1.068-.145,.511-.077,1.016-.168,1.515-.276,.348-.075,.694-.156,1.036-.247h.001c.493-.13,.978-.281,1.459-.444,.328-.111,.657-.22,.979-.346,.491-.192,.971-.414,1.449-.642,.293-.139,.589-.269,.877-.422,.447-.239,.881-.514,1.314-.79,.076-.049,.155-.09,.231-.139,.001-.001,.002-.001,.003-.002,.221-.143,.45-.267,.668-.418,0-.001,.001-.001,.001-.001,.721-.502,1.426-1.047,2.109-1.65h.001c.052-.047,.101-.103,.153-.15,.003-.002,.005-.005,.008-.008,.623-.559,1.231-1.159,1.822-1.805q0-.001,.001-.002c.172-.189,.335-.404,.505-.601-1.418-9.944-11.48-19.537-14.127-21.91" fill="#1b6a36"/><path d="M440.5458,374.6817c-.117,.767-.229,1.533-.356,2.3,.127-.767,.239-1.533,.356-2.3" fill="#1b6a36"/><path d="M441.4562,368.1199c.068-.582,.122-1.163,.184-1.744-.113,1.061-.253,2.126-.385,3.19,.06-.481,.145-.965,.201-1.446" fill="#1b6a36"/><path d="M442.245,359.6257c.175-2.453,.293-4.895,.376-7.329-.083,2.434-.202,4.876-.376,7.329" fill="#1b6a36"/><path d="M441.2557,369.5658c-.212,1.703-.449,3.408-.71,5.116,.261-1.708,.499-3.413,.71-5.116" fill="#1b6a36"/><path d="M441.8798,364.1046c.117-1.238,.209-2.473,.302-3.707-.125,1.665-.269,3.334-.439,5.007,.044-.433,.096-.867,.137-1.3" fill="#1b6a36"/><path d="M441.7427,365.405c-.033,.324-.068,.647-.102,.971,.034-.324,.069-.647,.102-.971" fill="#1b6a36"/><path d="M442.2382,359.7575c.003-.044,.004-.088,.007-.132-.018,.257-.044,.515-.063,.772,.016-.213,.041-.427,.056-.64" fill="#1b6a36"/><path d="M428.5074,408.606c.422-.495,.841-.996,1.246-1.539,0,0,0-.001,.001-.001-.407,.546-.828,1.05-1.252,1.547,.001-.003,.003-.005,.005-.007" fill="#1b6a36"/><path d="M357.7178,410.3792c.358,.508,.698,1.04,1.04,1.569,2.709,3.981,10.618,14.92,21.967,24.819,7.588,6.617,19.281,6.815,27.112,.446,4.8-3.904,8.041-7.506,10.175-10.251,1.659-2.134,2.648-3.751,3.18-4.588,.072-.115,.689-1.027,1.466-2.172,1.506-2.219,3.625-5.331,3.625-5.331-5.977,4.651-12.774,6.943-19.71,7.732-23.62,2.689-48.855-12.224-48.855-12.224" fill="#1b6a36"/><path d="M440.6623,315.2322c-.516-3.815-1.114-7.57-1.784-11.258,1.497,11.654-11.344,12.237-13.802,12.243-11.993-.18-29.753-1.996-55.99-7.317-5.238-1.062-10.529-2.088-15.868-3.073-67.168-12.395-142.999-17.415-243.118,17.298h-.001c-.007,.098-.016,.198-.023,.295-.016,.236-.023,.462-.038,.696h.001c23.073-6.343,69.306-16.194,124.555-11.788,51.847,4.134,111.62,20.823,167.629,64.788,1.193,.936,2.348,1.798,3.485,2.623,2.142,1.667,5.127,4.081,8.553,7.098,2.647,2.373,12.708,11.966,14.127,21.91v.005c.039-.044,.075-.095,.114-.14,.424-.497,.845-1.001,1.252-1.546,.233-.313,.456-.652,.683-.981,.364-.526,.724-1.063,1.072-1.631,.018-.03,.038-.055,.056-.085,.211-.347,.414-.714,.619-1.077,.328-.579,.65-1.176,.964-1.796,.215-.427,.427-.863,.636-1.31,.304-.649,.597-1.325,.886-2.017,.195-.469,.39-.937,.579-1.425,.286-.741,.558-1.52,.827-2.307,.169-.494,.342-.975,.504-1.486,.284-.896,.551-1.84,.814-2.793,.064-.231,.135-.444,.198-.679,.061-.227,.125-.447,.184-.677,.081-.314,.151-.66,.23-.979,.287-1.157,.574-2.312,.832-3.547,1.721-8.221,2.818-16.417,3.4-24.519,.385-5.368,.543-10.695,.503-15.96-.04-5.359-.287-10.653-.706-15.862-.345-4.297-.81-8.534-1.373-12.703" fill="#fed500"/><path d="M110.0398,324.116c-.101,1.559-.181,3.094-.239,4.601-.051,1.346-.093,2.68-.111,3.983-.001,.072,.001,.14,0,.212-.053,4.43,.083,8.611,.401,12.511,.151,1.854,.357,3.621,.587,5.347,.439-8.583,7.223-15.343,14.402-20.136,.081-.054,.163-.104,.244-.158,1.611-1.028,9.755-5.968,23.225-9.924,5.459-1.603,11.764-3.044,18.884-3.984,.026-.004,.047-.007,.073-.01,3.247-.577,6.573-1.112,9.976-1.601,17.242-2.472,36.458-3.695,57.113-2.629-55.249-4.405-101.483,5.445-124.555,11.788" fill="#fff"/></g><g clip-path="url(#b)"><rect x="364.3191" y="281.8548" width="2.733" height="16.762" fill="#005c26"/><rect x="367.0522" y="281.8548" width="3.059" height="16.762" fill="#005b26"/><rect x="370.1111" y="281.8548" width="3.059" height="16.762" fill="#005b25"/><rect x="373.1701" y="281.8548" width="3.059" height="16.762" fill="#005a25"/><rect x="376.2281" y="281.8548" width="3.059" height="16.762" fill="#005a24"/><rect x="379.2871" y="281.8548" width="2.656" height="16.762" fill="#005924"/><rect x="322.7372" y="158.2978" width="1.49" height="35.327" fill="#00612b"/><rect x="324.2261" y="158.2978" width="3.059" height="35.327" fill="#00612b"/><rect x="327.2852" y="158.2978" width="3.059" height="35.327" fill="#00602b"/><rect x="330.3441" y="158.2978" width="3.059" height="35.327" fill="#00602a"/><rect x="333.4031" y="158.2978" width="3.059" height="35.327" fill="#00602a"/><rect x="336.4622" y="158.2978" width="3.059" height="35.327" fill="#005f2a"/><rect x="339.5211" y="158.2978" width="3.059" height="35.327" fill="#005f29"/><rect x="342.5801" y="158.2978" width="3.059" height="35.327" fill="#005e29"/><rect x="345.6391" y="158.2978" width="3.059" height="35.327" fill="#005e29"/><rect x="348.6982" y="158.2978" width="3.059" height="35.327" fill="#005e28"/><rect x="351.7571" y="158.2978" width="3.059" height="35.327" fill="#005d28"/><rect x="354.8161" y="158.2978" width="3.059" height="35.327" fill="#005d27"/><rect x="357.8751" y="158.2978" width="2.007" height="35.327" fill="#005c27"/><rect x="264.3401" y="220.0758" width="1.767" height="35.327" fill="#0f6630"/><rect x="266.1071" y="220.0758" width="3.059" height="35.327" fill="#0e6530"/><rect x="269.1661" y="220.0758" width="3.059" height="35.327" fill="#0e6530"/><rect x="272.2242" y="220.0758" width="3.059" height="35.327" fill="#0d6530"/><rect x="275.2831" y="220.0758" width="3.059" height="35.327" fill="#0c6530"/><rect x="278.3421" y="220.0758" width="3.059" height="35.327" fill="#0b652f"/><rect x="281.4012" y="220.0758" width="3.059" height="35.327" fill="#0a642f"/><rect x="284.4601" y="220.0758" width="3.059" height="35.327" fill="#0a642f"/><rect x="287.5191" y="220.0758" width="3.059" height="35.327" fill="#09642f"/><rect x="290.5782" y="220.0758" width="3.059" height="35.327" fill="#08642e"/><rect x="293.6371" y="220.0758" width="3.059" height="35.327" fill="#07632e"/><rect x="296.6961" y="220.0758" width="3.059" height="35.327" fill="#06632e"/><rect x="299.7551" y="220.0758" width="1.73" height="35.327" fill="#05632e"/><rect x="110.1011" y="127.1698" width="3.059" height="195.955" fill="#1b6a36"/><rect x="113.1591" y="127.1698" width="3.059" height="195.955" fill="#1b6a36"/><rect x="116.2181" y="127.1698" width="3.059" height="195.955" fill="#1b6a36"/><rect x="119.2771" y="127.1698" width="3.059" height="195.955" fill="#1b6a36"/><rect x="122.3361" y="127.1698" width="3.059" height="195.955" fill="#1b6a36"/><rect x="125.3951" y="127.1698" width="3.059" height="195.955" fill="#1b6a35"/><rect x="128.4541" y="127.1698" width="3.059" height="195.955" fill="#1b6a35"/><rect x="131.5131" y="127.1698" width="3.059" height="195.955" fill="#1b6a35"/><rect x="134.5721" y="127.1698" width="3.059" height="195.955" fill="#1b6a35"/><rect x="137.6311" y="127.1698" width="3.059" height="195.955" fill="#1b6a35"/><rect x="140.6901" y="127.1698" width="3.059" height="195.955" fill="#1b6a35"/><rect x="143.7491" y="127.1698" width="3.059" height="195.955" fill="#1b6a35"/><rect x="146.8081" y="127.1698" width="3.059" height="195.955" fill="#1a6a35"/><rect x="149.8671" y="127.1698" width="3.059" height="195.955" fill="#1a6935"/><rect x="152.9261" y="127.1698" width="3.059" height="195.955" fill="#1a6935"/><rect x="155.9851" y="127.1698" width="3.059" height="195.955" fill="#1a6935"/><rect x="159.0441" y="127.1698" width="3.059" height="195.955" fill="#1a6935"/><rect x="162.1031" y="127.1698" width="3.059" height="195.955" fill="#1a6935"/><rect x="165.1611" y="127.1698" width="3.059" height="195.955" fill="#1a6935"/><rect x="168.2201" y="127.1698" width="3.059" height="195.955" fill="#1a6935"/><rect x="171.2791" y="127.1698" width="3.059" height="195.955" fill="#196935"/><rect x="174.3381" y="127.1698" width="3.059" height="195.955" fill="#196935"/><rect x="177.3971" y="127.1698" width="3.059" height="195.955" fill="#196935"/><rect x="180.4561" y="127.1698" width="3.059" height="195.955" fill="#196935"/><rect x="183.5151" y="127.1698" width="3.059" height="195.955" fill="#196935"/><rect x="186.5741" y="127.1698" width="3.059" height="195.955" fill="#186934"/><rect x="189.6331" y="127.1698" width="3.059" height="195.955" fill="#186934"/><rect x="192.6921" y="127.1698" width="3.059" height="195.955" fill="#186934"/><rect x="195.7511" y="127.1698" width="3.059" height="195.955" fill="#186934"/><rect x="198.8101" y="127.1698" width="3.059" height="195.955" fill="#176934"/><rect x="201.8691" y="127.1698" width="3.059" height="195.955" fill="#176834"/><rect x="204.9281" y="127.1698" width="3.059" height="195.955" fill="#176834"/><rect x="207.9871" y="127.1698" width="3.059" height="195.955" fill="#176834"/><rect x="211.0461" y="127.1698" width="3.059" height="195.955" fill="#166834"/><rect x="214.1051" y="127.1698" width="3.059" height="195.955" fill="#166833"/><rect x="217.1631" y="127.1698" width="3.059" height="195.955" fill="#166833"/><rect x="220.2221" y="127.1698" width="3.059" height="195.955" fill="#156833"/><rect x="223.2811" y="127.1698" width="3.059" height="195.955" fill="#156833"/><rect x="226.3401" y="127.1698" width="3.059" height="195.955" fill="#156833"/><rect x="229.3991" y="127.1698" width="3.059" height="195.955" fill="#146832"/><rect x="232.4581" y="127.1698" width="3.059" height="195.955" fill="#146732"/><rect x="235.5172" y="127.1698" width="3.059" height="195.955" fill="#136732"/><rect x="238.5761" y="127.1698" width="3.059" height="195.955" fill="#136732"/><rect x="241.6351" y="127.1698" width="3.059" height="195.955" fill="#136732"/><rect x="244.6942" y="127.1698" width="3.059" height="195.955" fill="#126732"/><rect x="247.7531" y="127.1698" width="3.059" height="195.955" fill="#126731"/><rect x="250.8121" y="127.1698" width="3.059" height="195.955" fill="#116631"/><rect x="253.8712" y="127.1698" width="3.059" height="195.955" fill="#116631"/><rect x="256.9301" y="127.1698" width="3.059" height="195.955" fill="#106631"/><rect x="259.9891" y="127.1698" width="3.059" height="195.955" fill="#106631"/><rect x="263.0482" y="127.1698" width="3.059" height="195.955" fill="#0f6630"/><rect x="266.1071" y="127.1698" width="3.059" height="195.955" fill="#0e6530"/><rect x="269.1661" y="127.1698" width="3.059" height="195.955" fill="#0e6530"/><rect x="272.2242" y="127.1698" width="3.059" height="195.955" fill="#0d6530"/><rect x="275.2831" y="127.1698" width="3.059" height="195.955" fill="#0c6530"/><rect x="278.3421" y="127.1698" width="3.059" height="195.955" fill="#0b652f"/><rect x="281.4012" y="127.1698" width="3.059" height="195.955" fill="#0a642f"/><rect x="284.4601" y="127.1698" width="3.059" height="195.955" fill="#0a642f"/><rect x="287.5191" y="127.1698" width="3.059" height="195.955" fill="#09642f"/><rect x="290.5782" y="127.1698" width="3.059" height="195.955" fill="#08642e"/><rect x="293.6371" y="127.1698" width="3.059" height="195.955" fill="#07632e"/><rect x="296.6961" y="127.1698" width="3.059" height="195.955" fill="#06632e"/><rect x="299.7552" y="127.1698" width="3.059" height="195.955" fill="#05632e"/><rect x="302.8141" y="127.1698" width="3.059" height="195.955" fill="#05632d"/><rect x="305.8731" y="127.1698" width="3.059" height="195.955" fill="#04622d"/><rect x="308.9321" y="127.1698" width="3.059" height="195.955" fill="#03622d"/><rect x="311.9911" y="127.1698" width="3.059" height="195.955" fill="#02622c"/><rect x="315.0501" y="127.1698" width="3.059" height="195.955" fill="#01612c"/><rect x="318.1091" y="127.1698" width="3.059" height="195.955" fill="#00612c"/><rect x="321.1682" y="127.1698" width="3.059" height="195.955" fill="#00612b"/><rect x="324.2261" y="127.1698" width="3.059" height="195.955" fill="#00612b"/><rect x="327.2852" y="127.1698" width="3.059" height="195.955" fill="#00602b"/><rect x="330.3441" y="127.1698" width="3.059" height="195.955" fill="#00602a"/><rect x="333.4031" y="127.1698" width="3.059" height="195.955" fill="#00602a"/><rect x="336.4622" y="127.1698" width="3.059" height="195.955" fill="#005f2a"/><rect x="339.5211" y="127.1698" width="3.059" height="195.955" fill="#005f29"/><rect x="342.5801" y="127.1698" width="3.059" height="195.955" fill="#005e29"/><rect x="345.6391" y="127.1698" width="3.059" height="195.955" fill="#005e29"/><rect x="348.6982" y="127.1698" width="3.059" height="195.955" fill="#005e28"/><rect x="351.7571" y="127.1698" width="3.059" height="195.955" fill="#005d28"/><rect x="354.8161" y="127.1698" width="3.059" height="195.955" fill="#005d27"/><rect x="357.8752" y="127.1698" width="3.059" height="195.955" fill="#005c27"/><rect x="360.9341" y="127.1698" width="3.059" height="195.955" fill="#005c27"/><rect x="363.9931" y="127.1698" width="3.059" height="195.955" fill="#005c26"/><rect x="367.0522" y="127.1698" width="3.059" height="195.955" fill="#005b26"/><rect x="370.1111" y="127.1698" width="3.059" height="195.955" fill="#005b25"/><rect x="373.1701" y="127.1698" width="3.059" height="195.955" fill="#005a25"/><rect x="376.2281" y="127.1698" width="3.059" height="195.955" fill="#005a24"/><rect x="379.2871" y="127.1698" width="3.059" height="195.955" fill="#005924"/><rect x="382.3461" y="127.1698" width="3.059" height="195.955" fill="#005823"/><rect x="385.4052" y="127.1698" width="3.059" height="195.955" fill="#005823"/><rect x="388.4641" y="127.1698" width="3.059" height="195.955" fill="#005722"/><rect x="391.5231" y="127.1698" width="3.059" height="195.955" fill="#005722"/><rect x="394.5822" y="127.1698" width="3.059" height="195.955" fill="#005621"/><rect x="397.6411" y="127.1698" width="3.059" height="195.955" fill="#005621"/><rect x="400.7001" y="127.1698" width="3.059" height="195.955" fill="#005520"/><rect x="403.7592" y="127.1698" width="3.059" height="195.955" fill="#005520"/><rect x="406.8181" y="127.1698" width="3.059" height="195.955" fill="#00541f"/><rect x="409.8771" y="127.1698" width="3.059" height="195.955" fill="#00531e"/><rect x="412.9362" y="127.1698" width="3.059" height="195.955" fill="#00531e"/><rect x="415.9951" y="127.1698" width="3.059" height="195.955" fill="#00521d"/><rect x="419.0541" y="127.1698" width="3.059" height="195.955" fill="#00511d"/><rect x="422.1131" y="127.1698" width="3.059" height="195.955" fill="#00511c"/><rect x="425.1721" y="127.1698" width="3.059" height="195.955" fill="#00501b"/><rect x="428.2311" y="127.1698" width="3.059" height="195.955" fill="#004f1a"/><rect x="431.2892" y="127.1698" width="3.059" height="195.955" fill="#004e1a"/><rect x="434.3481" y="127.1698" width="9.091" height="195.955" fill="#004e1a"/></g><g clip-path="url(#c)"><rect x="110.6781" y="311.2628" width="2.997" height="105.741" fill="#1b6a36"/><rect x="113.6751" y="311.2628" width="2.997" height="105.741" fill="#1b6a36"/><rect x="116.6721" y="311.2628" width="2.997" height="105.741" fill="#1b6a36"/><rect x="119.6691" y="311.2628" width="2.997" height="105.741" fill="#1b6a36"/><rect x="122.6671" y="311.2628" width="2.997" height="105.741" fill="#1b6a36"/><rect x="125.6641" y="311.2628" width="2.997" height="105.741" fill="#1b6a35"/><rect x="128.6611" y="311.2628" width="2.997" height="105.741" fill="#1b6a35"/><rect x="131.6581" y="311.2628" width="2.997" height="105.741" fill="#1b6a35"/><rect x="134.6561" y="311.2628" width="2.997" height="105.741" fill="#1b6a35"/><rect x="137.6531" y="311.2628" width="2.997" height="105.741" fill="#1b6a35"/><rect x="140.6501" y="311.2628" width="2.997" height="105.741" fill="#1b6a35"/><rect x="143.6481" y="311.2628" width="2.997" height="105.741" fill="#1b6a35"/><rect x="146.6451" y="311.2628" width="2.997" height="105.741" fill="#1a6a35"/><rect x="149.6421" y="311.2628" width="2.997" height="105.741" fill="#1a6935"/><rect x="152.6391" y="311.2628" width="2.997" height="105.741" fill="#1a6935"/><rect x="155.6371" y="311.2628" width="2.997" height="105.741" fill="#1a6935"/><rect x="158.6341" y="311.2628" width="2.997" height="105.741" fill="#1a6935"/><rect x="161.6311" y="311.2628" width="2.997" height="105.741" fill="#1a6935"/><rect x="164.6281" y="311.2628" width="2.997" height="105.741" fill="#1a6935"/><rect x="167.6261" y="311.2628" width="2.997" height="105.741" fill="#1a6935"/><rect x="170.6231" y="311.2628" width="2.997" height="105.741" fill="#196935"/><rect x="173.6201" y="311.2628" width="2.997" height="105.741" fill="#196935"/><rect x="176.6171" y="311.2628" width="2.997" height="105.741" fill="#196935"/><rect x="179.6151" y="311.2628" width="2.997" height="105.741" fill="#196935"/><rect x="182.6121" y="311.2628" width="2.997" height="105.741" fill="#196935"/><rect x="185.6091" y="311.2628" width="2.997" height="105.741" fill="#186934"/><rect x="188.6071" y="311.2628" width="2.997" height="105.741" fill="#186934"/><rect x="191.6041" y="311.2628" width="2.997" height="105.741" fill="#186934"/><rect x="194.6011" y="311.2628" width="2.997" height="105.741" fill="#186934"/><rect x="197.5981" y="311.2628" width="2.997" height="105.741" fill="#176934"/><rect x="200.5961" y="311.2628" width="2.997" height="105.741" fill="#176834"/><rect x="203.5931" y="311.2628" width="2.997" height="105.741" fill="#176834"/><rect x="206.5901" y="311.2628" width="2.997" height="105.741" fill="#176834"/><rect x="209.5871" y="311.2628" width="2.997" height="105.741" fill="#166834"/><rect x="212.5851" y="311.2628" width="2.997" height="105.741" fill="#166833"/><rect x="215.5821" y="311.2628" width="2.997" height="105.741" fill="#166833"/><rect x="218.5791" y="311.2628" width="2.997" height="105.741" fill="#156833"/><rect x="221.5771" y="311.2628" width="2.997" height="105.741" fill="#156833"/><rect x="224.5741" y="311.2628" width="2.997" height="105.741" fill="#156833"/><rect x="227.5711" y="311.2628" width="2.997" height="105.741" fill="#146832"/><rect x="230.5681" y="311.2628" width="2.997" height="105.741" fill="#146732"/><rect x="233.5661" y="311.2628" width="2.997" height="105.741" fill="#136732"/><rect x="236.5631" y="311.2628" width="2.997" height="105.741" fill="#136732"/><rect x="239.5601" y="311.2628" width="2.997" height="105.741" fill="#136732"/><rect x="242.5571" y="311.2628" width="2.997" height="105.741" fill="#126732"/><rect x="245.5551" y="311.2628" width="2.997" height="105.741" fill="#126731"/><rect x="248.5521" y="311.2628" width="2.997" height="105.741" fill="#116631"/><rect x="251.5491" y="311.2628" width="2.997" height="105.741" fill="#116631"/><rect x="254.5471" y="311.2628" width="2.997" height="105.741" fill="#106631"/><rect x="257.5441" y="311.2628" width="2.997" height="105.741" fill="#106631"/><rect x="260.5411" y="311.2628" width="2.997" height="105.741" fill="#0f6630"/><rect x="263.5381" y="311.2628" width="2.997" height="105.741" fill="#0e6530"/><rect x="266.5361" y="311.2628" width="2.997" height="105.741" fill="#0e6530"/><rect x="269.5331" y="311.2628" width="2.997" height="105.741" fill="#0d6530"/><rect x="272.5301" y="311.2628" width="2.997" height="105.741" fill="#0c6530"/><rect x="275.5271" y="311.2628" width="2.997" height="105.741" fill="#0b652f"/><rect x="278.5251" y="311.2628" width="2.997" height="105.741" fill="#0a642f"/><rect x="281.5221" y="311.2628" width="2.997" height="105.741" fill="#0a642f"/><rect x="284.5191" y="311.2628" width="2.997" height="105.741" fill="#09642f"/><rect x="287.5171" y="311.2628" width="2.997" height="105.741" fill="#08642e"/><rect x="290.5141" y="311.2628" width="2.997" height="105.741" fill="#07632e"/><rect x="293.5111" y="311.2628" width="2.997" height="105.741" fill="#06632e"/><rect x="296.5081" y="311.2628" width="2.997" height="105.741" fill="#05632e"/><rect x="299.5061" y="311.2628" width="2.997" height="105.741" fill="#05632d"/><rect x="302.5031" y="311.2628" width="2.997" height="105.741" fill="#04622d"/><rect x="305.5001" y="311.2628" width="2.997" height="105.741" fill="#03622d"/><rect x="308.4971" y="311.2628" width="2.997" height="105.741" fill="#02622c"/><rect x="311.4951" y="311.2628" width="2.997" height="105.741" fill="#01612c"/><rect x="314.4921" y="311.2628" width="2.997" height="105.741" fill="#00612c"/><rect x="317.4891" y="311.2628" width="2.997" height="105.741" fill="#00612b"/><rect x="320.4871" y="311.2628" width="2.997" height="105.741" fill="#00612b"/><rect x="323.4841" y="311.2628" width="2.997" height="105.741" fill="#00602b"/><rect x="326.4811" y="311.2628" width="2.997" height="105.741" fill="#00602a"/><rect x="329.4781" y="311.2628" width="2.997" height="105.741" fill="#00602a"/><rect x="332.4761" y="311.2628" width="2.997" height="105.741" fill="#005f2a"/><rect x="335.4731" y="311.2628" width="2.997" height="105.741" fill="#005f29"/><rect x="338.4701" y="311.2628" width="2.997" height="105.741" fill="#005e29"/><rect x="341.4671" y="311.2628" width="2.997" height="105.741" fill="#005e29"/><rect x="344.4651" y="311.2628" width="2.997" height="105.741" fill="#005e28"/><rect x="347.4621" y="311.2628" width="2.997" height="105.741" fill="#005d28"/><rect x="350.4591" y="311.2628" width="2.997" height="105.741" fill="#005d27"/><rect x="353.4571" y="311.2628" width="2.997" height="105.741" fill="#005c27"/><rect x="356.4541" y="311.2628" width="2.997" height="105.741" fill="#005c27"/><rect x="359.4511" y="311.2628" width="2.997" height="105.741" fill="#005c26"/><rect x="362.4481" y="311.2628" width="2.997" height="105.741" fill="#005b26"/><rect x="365.4461" y="311.2628" width="2.997" height="105.741" fill="#005b25"/><rect x="368.4431" y="311.2628" width="2.997" height="105.741" fill="#005a25"/><rect x="371.4401" y="311.2628" width="2.997" height="105.741" fill="#005a24"/><rect x="374.4371" y="311.2628" width="2.997" height="105.741" fill="#005924"/><rect x="377.4351" y="311.2628" width="2.997" height="105.741" fill="#005823"/><rect x="380.4321" y="311.2628" width="2.997" height="105.741" fill="#005823"/><rect x="383.4291" y="311.2628" width="2.997" height="105.741" fill="#005722"/><rect x="386.4271" y="311.2628" width="2.997" height="105.741" fill="#005722"/><rect x="389.4241" y="311.2628" width="2.997" height="105.741" fill="#005621"/><rect x="392.4211" y="311.2628" width="2.997" height="105.741" fill="#005621"/><rect x="395.4181" y="311.2628" width="2.997" height="105.741" fill="#005520"/><rect x="398.4161" y="311.2628" width="2.997" height="105.741" fill="#005520"/><rect x="401.4131" y="311.2628" width="2.997" height="105.741" fill="#00541f"/><rect x="404.4101" y="311.2628" width="2.997" height="105.741" fill="#00531e"/><rect x="407.4071" y="311.2628" width="2.997" height="105.741" fill="#00531e"/><rect x="410.4051" y="311.2628" width="2.997" height="105.741" fill="#00521d"/><rect x="413.4021" y="311.2628" width="2.997" height="105.741" fill="#00511d"/><rect x="416.3991" y="311.2628" width="2.997" height="105.741" fill="#00511c"/><rect x="419.3971" y="311.2628" width="2.997" height="105.741" fill="#00501b"/><rect x="422.3941" y="311.2628" width="2.997" height="105.741" fill="#004f1a"/><rect x="425.3911" y="311.2628" width="2.997" height="105.741" fill="#004e1a"/></g><g clip-path="url(#d)"><rect x="357.7171" y="410.3788" width=".647" height="33.203" fill="#1b6a36"/><rect x="358.3641" y="410.3788" width=".647" height="33.203" fill="#1b6a36"/><rect x="359.0111" y="410.3788" width=".647" height="33.203" fill="#1b6a36"/><rect x="359.6581" y="410.3788" width=".647" height="33.203" fill="#1b6a36"/><rect x="360.3051" y="410.3788" width=".647" height="33.203" fill="#1b6a36"/><rect x="360.9521" y="410.3788" width=".647" height="33.203" fill="#1b6a35"/><rect x="361.5991" y="410.3788" width=".647" height="33.203" fill="#1b6a35"/><rect x="362.2451" y="410.3788" width=".647" height="33.203" fill="#1b6a35"/><rect x="362.8921" y="410.3788" width=".647" height="33.203" fill="#1b6a35"/><rect x="363.5391" y="410.3788" width=".647" height="33.203" fill="#1b6a35"/><rect x="364.1861" y="410.3788" width=".647" height="33.203" fill="#1b6a35"/><rect x="364.8331" y="410.3788" width=".647" height="33.203" fill="#1b6a35"/><rect x="365.4801" y="410.3788" width=".647" height="33.203" fill="#1a6a35"/><rect x="366.1261" y="410.3788" width=".647" height="33.203" fill="#1a6935"/><rect x="366.7731" y="410.3788" width=".647" height="33.203" fill="#1a6935"/><rect x="367.4201" y="410.3788" width=".647" height="33.203" fill="#1a6935"/><rect x="368.0671" y="410.3788" width=".647" height="33.203" fill="#1a6935"/><rect x="368.7141" y="410.3788" width=".647" height="33.203" fill="#1a6935"/><rect x="369.3611" y="410.3788" width=".647" height="33.203" fill="#1a6935"/><rect x="370.0071" y="410.3788" width=".647" height="33.203" fill="#1a6935"/><rect x="370.6541" y="410.3788" width=".647" height="33.203" fill="#196935"/><rect x="371.3011" y="410.3788" width=".647" height="33.203" fill="#196935"/><rect x="371.9481" y="410.3788" width=".647" height="33.203" fill="#196935"/><rect x="372.5951" y="410.3788" width=".647" height="33.203" fill="#196935"/><rect x="373.2421" y="410.3788" width=".647" height="33.203" fill="#196935"/><rect x="373.8891" y="410.3788" width=".647" height="33.203" fill="#186934"/><rect x="374.5351" y="410.3788" width=".647" height="33.203" fill="#186934"/><rect x="375.1821" y="410.3788" width=".647" height="33.203" fill="#186934"/><rect x="375.8291" y="410.3788" width=".647" height="33.203" fill="#186934"/><rect x="376.4761" y="410.3788" width=".647" height="33.203" fill="#176934"/><rect x="377.1231" y="410.3788" width=".647" height="33.203" fill="#176834"/><rect x="377.7701" y="410.3788" width=".647" height="33.203" fill="#176834"/><rect x="378.4161" y="410.3788" width=".647" height="33.203" fill="#176834"/><rect x="379.0631" y="410.3788" width=".647" height="33.203" fill="#166834"/><rect x="379.7101" y="410.3788" width=".647" height="33.203" fill="#166833"/><rect x="380.3571" y="410.3788" width=".647" height="33.203" fill="#166833"/><rect x="381.0041" y="410.3788" width=".647" height="33.203" fill="#156833"/><rect x="381.6511" y="410.3788" width=".647" height="33.203" fill="#156833"/><rect x="382.2971" y="410.3788" width=".647" height="33.203" fill="#156833"/><rect x="382.9441" y="410.3788" width=".647" height="33.203" fill="#146832"/><rect x="383.5911" y="410.3788" width=".647" height="33.203" fill="#146732"/><rect x="384.2381" y="410.3788" width=".647" height="33.203" fill="#136732"/><rect x="384.8851" y="410.3788" width=".647" height="33.203" fill="#136732"/><rect x="385.5321" y="410.3788" width=".647" height="33.203" fill="#136732"/><rect x="386.1791" y="410.3788" width=".647" height="33.203" fill="#126732"/><rect x="386.8251" y="410.3788" width=".647" height="33.203" fill="#126731"/><rect x="387.4721" y="410.3788" width=".647" height="33.203" fill="#116631"/><rect x="388.1191" y="410.3788" width=".647" height="33.203" fill="#116631"/><rect x="388.7661" y="410.3788" width=".647" height="33.203" fill="#106631"/><rect x="389.4131" y="410.3788" width=".647" height="33.203" fill="#106631"/><rect x="390.0601" y="410.3788" width=".647" height="33.203" fill="#0f6630"/><rect x="390.7061" y="410.3788" width=".647" height="33.203" fill="#0e6530"/><rect x="391.3531" y="410.3788" width=".647" height="33.203" fill="#0e6530"/><rect x="392.0001" y="410.3788" width=".647" height="33.203" fill="#0d6530"/><rect x="392.6471" y="410.3788" width=".647" height="33.203" fill="#0c6530"/><rect x="393.2941" y="410.3788" width=".647" height="33.203" fill="#0b652f"/><rect x="393.9411" y="410.3788" width=".647" height="33.203" fill="#0a642f"/><rect x="394.5871" y="410.3788" width=".647" height="33.203" fill="#0a642f"/><rect x="395.2341" y="410.3788" width=".647" height="33.203" fill="#09642f"/><rect x="395.8811" y="410.3788" width=".647" height="33.203" fill="#08642e"/><rect x="396.5281" y="410.3788" width=".647" height="33.203" fill="#07632e"/><rect x="397.1751" y="410.3788" width=".647" height="33.203" fill="#06632e"/><rect x="397.8221" y="410.3788" width=".647" height="33.203" fill="#05632e"/><rect x="398.4691" y="410.3788" width=".647" height="33.203" fill="#05632d"/><rect x="399.1151" y="410.3788" width=".647" height="33.203" fill="#04622d"/><rect x="399.7621" y="410.3788" width=".647" height="33.203" fill="#03622d"/><rect x="400.4091" y="410.3788" width=".647" height="33.203" fill="#02622c"/><rect x="401.0561" y="410.3788" width=".647" height="33.203" fill="#01612c"/><rect x="401.7031" y="410.3788" width=".647" height="33.203" fill="#00612c"/><rect x="402.3501" y="410.3788" width=".647" height="33.203" fill="#00612b"/><rect x="402.9961" y="410.3788" width=".647" height="33.203" fill="#00612b"/><rect x="403.6431" y="410.3788" width=".647" height="33.203" fill="#00602b"/><rect x="404.2901" y="410.3788" width=".647" height="33.203" fill="#00602a"/><rect x="404.9371" y="410.3788" width=".647" height="33.203" fill="#00602a"/><rect x="405.5841" y="410.3788" width=".647" height="33.203" fill="#005f2a"/><rect x="406.2311" y="410.3788" width=".647" height="33.203" fill="#005f29"/><rect x="406.8771" y="410.3788" width=".647" height="33.203" fill="#005e29"/><rect x="407.5241" y="410.3788" width=".647" height="33.203" fill="#005e29"/><rect x="408.1711" y="410.3788" width=".647" height="33.203" fill="#005e28"/><rect x="408.8181" y="410.3788" width=".647" height="33.203" fill="#005d28"/><rect x="409.4651" y="410.3788" width=".647" height="33.203" fill="#005d27"/><rect x="410.1121" y="410.3788" width=".647" height="33.203" fill="#005c27"/><rect x="410.7591" y="410.3788" width=".647" height="33.203" fill="#005c27"/><rect x="411.4051" y="410.3788" width=".647" height="33.203" fill="#005c26"/><rect x="412.0521" y="410.3788" width=".647" height="33.203" fill="#005b26"/><rect x="412.6991" y="410.3788" width=".647" height="33.203" fill="#005b25"/><rect x="413.3461" y="410.3788" width=".647" height="33.203" fill="#005a25"/><rect x="413.9931" y="410.3788" width=".647" height="33.203" fill="#005a24"/><rect x="414.6401" y="410.3788" width=".647" height="33.203" fill="#005924"/><rect x="415.2861" y="410.3788" width=".647" height="33.203" fill="#005823"/><rect x="415.9331" y="410.3788" width=".647" height="33.203" fill="#005823"/><rect x="416.5801" y="410.3788" width=".647" height="33.203" fill="#005722"/><rect x="417.2271" y="410.3788" width=".647" height="33.203" fill="#005722"/><rect x="417.8741" y="410.3788" width=".647" height="33.203" fill="#005621"/><rect x="418.5211" y="410.3788" width=".647" height="33.203" fill="#005621"/><rect x="419.1671" y="410.3788" width=".647" height="33.203" fill="#005520"/><rect x="419.8141" y="410.3788" width=".647" height="33.203" fill="#005520"/><rect x="420.4611" y="410.3788" width=".647" height="33.203" fill="#00541f"/><rect x="421.1081" y="410.3788" width=".647" height="33.203" fill="#00531e"/><rect x="421.7551" y="410.3788" width=".647" height="33.203" fill="#00531e"/><rect x="422.4021" y="410.3788" width=".647" height="33.203" fill="#00521d"/><rect x="423.0481" y="410.3788" width=".647" height="33.203" fill="#00511d"/><rect x="423.6951" y="410.3788" width=".647" height="33.203" fill="#00511c"/><rect x="424.3421" y="410.3788" width=".647" height="33.203" fill="#00501b"/><rect x="424.9891" y="410.3788" width=".647" height="33.203" fill="#004f1a"/><rect x="425.6361" y="410.3788" width=".647" height="33.203" fill="#004e1a"/></g><g clip-path="url(#e)"><rect x="196.1661" y="310.0648" width="3.547" height="184.434" fill="#1b6a36"/><rect x="199.7131" y="310.0648" width="3.547" height="184.434" fill="#1b6a36"/><rect x="203.2591" y="310.0648" width="3.547" height="184.434" fill="#1b6a36"/><rect x="206.8061" y="310.0648" width="3.547" height="184.434" fill="#1b6a36"/><rect x="210.3531" y="310.0648" width="3.547" height="184.434" fill="#1b6a36"/><rect x="213.8991" y="310.0648" width="3.547" height="184.434" fill="#1b6a36"/><rect x="217.4461" y="310.0648" width="3.547" height="184.434" fill="#1b6a36"/><rect x="220.9931" y="310.0648" width="3.547" height="184.434" fill="#1b6a36"/><rect x="224.5401" y="310.0648" width="3.547" height="184.434" fill="#1b6a36"/><rect x="228.0861" y="310.0648" width="3.547" height="184.434" fill="#1b6a36"/><rect x="231.6331" y="310.0648" width="3.547" height="184.434" fill="#1b6b36"/><rect x="235.1801" y="310.0648" width="3.547" height="184.434" fill="#1b6b36"/><rect x="238.7261" y="310.0648" width="3.547" height="184.434" fill="#1b6b36"/><rect x="242.2731" y="310.0648" width="3.547" height="184.434" fill="#1b6b36"/><rect x="245.8201" y="310.0648" width="3.547" height="184.434" fill="#1b6b36"/><rect x="249.3661" y="310.0648" width="3.547" height="184.434" fill="#1b6c36"/><rect x="252.9131" y="310.0648" width="3.547" height="184.434" fill="#1b6c36"/><rect x="256.4601" y="310.0648" width="3.547" height="184.434" fill="#1b6c37"/><rect x="260.0061" y="310.0648" width="3.547" height="184.434" fill="#1b6d37"/><rect x="263.5531" y="310.0648" width="3.547" height="184.434" fill="#1b6d37"/><rect x="267.1001" y="310.0648" width="3.547" height="184.434" fill="#1b6d37"/><rect x="270.6461" y="310.0648" width="3.547" height="184.434" fill="#1b6e37"/><rect x="274.1931" y="310.0648" width="3.547" height="184.434" fill="#1b6e37"/><rect x="277.7401" y="310.0648" width="3.547" height="184.434" fill="#1b6f37"/><rect x="281.2861" y="310.0648" width="3.547" height="184.434" fill="#1b6f38"/><rect x="284.8331" y="310.0648" width="3.547" height="184.434" fill="#1b6f38"/><rect x="288.3801" y="310.0648" width="3.547" height="184.434" fill="#1b7038"/><rect x="291.9261" y="310.0648" width="3.547" height="184.434" fill="#1b7138"/><rect x="295.4731" y="310.0648" width="3.547" height="184.434" fill="#1b7138"/><rect x="299.0201" y="310.0648" width="3.547" height="184.434" fill="#1b7239"/><rect x="302.5671" y="310.0648" width="3.547" height="184.434" fill="#1b7239"/><rect x="306.1131" y="310.0648" width="3.547" height="184.434" fill="#1b7339"/><rect x="309.6601" y="310.0648" width="3.547" height="184.434" fill="#1b7439"/><rect x="313.2071" y="310.0648" width="3.547" height="184.434" fill="#1b743a"/><rect x="316.7531" y="310.0648" width="3.547" height="184.434" fill="#1b753a"/><rect x="320.3001" y="310.0648" width="3.547" height="184.434" fill="#1b763a"/><rect x="323.8471" y="310.0648" width="3.547" height="184.434" fill="#1b773a"/><rect x="327.3931" y="310.0648" width="3.547" height="184.434" fill="#1b773b"/><rect x="330.9401" y="310.0648" width="3.547" height="184.434" fill="#1b783b"/><rect x="334.4872" y="310.0648" width="3.547" height="184.434" fill="#1b793b"/><rect x="338.0331" y="310.0648" width="3.547" height="184.434" fill="#1b7a3c"/><rect x="341.5801" y="310.0648" width="3.547" height="184.434" fill="#1b7b3c"/><rect x="345.1271" y="310.0648" width="3.547" height="184.434" fill="#1b7c3c"/><rect x="348.6731" y="310.0648" width="3.547" height="184.434" fill="#1b7c3c"/><rect x="352.2201" y="310.0648" width="3.547" height="184.434" fill="#1b7d3d"/><rect x="355.7672" y="310.0648" width="3.547" height="184.434" fill="#1b7e3d"/><rect x="359.3131" y="310.0648" width="3.547" height="184.434" fill="#1b803e"/><rect x="362.8601" y="310.0648" width="3.547" height="184.434" fill="#1b813e"/><rect x="366.4071" y="310.0648" width="3.547" height="184.434" fill="#1b823e"/><rect x="369.9531" y="310.0648" width="3.547" height="184.434" fill="#1b833f"/><rect x="373.5001" y="310.0648" width="3.547" height="184.434" fill="#1b843f"/><rect x="377.0471" y="310.0648" width="3.547" height="184.434" fill="#1b853f"/><rect x="380.5941" y="310.0648" width="3.547" height="184.434" fill="#1b8640"/><rect x="384.1401" y="310.0648" width="3.547" height="184.434" fill="#1b8740"/><rect x="387.6871" y="310.0648" width="3.547" height="184.434" fill="#1a8941"/><rect x="391.2341" y="310.0648" width="3.547" height="184.434" fill="#1a8a41"/><rect x="394.7802" y="310.0648" width="3.547" height="184.434" fill="#1a8b42"/><rect x="398.3271" y="310.0648" width="3.547" height="184.434" fill="#1a8d42"/><rect x="401.8741" y="310.0648" width="3.547" height="184.434" fill="#198e42"/><rect x="405.4201" y="310.0648" width="3.547" height="184.434" fill="#198f43"/><rect x="408.9671" y="310.0648" width="3.547" height="184.434" fill="#189143"/><rect x="412.5141" y="310.0648" width="3.547" height="184.434" fill="#189244"/><rect x="416.0602" y="310.0648" width="3.547" height="184.434" fill="#179444"/><rect x="419.6071" y="310.0648" width="3.547" height="184.434" fill="#179545"/><rect x="423.1541" y="310.0648" width="3.547" height="184.434" fill="#169745"/><rect x="426.7001" y="310.0648" width="3.547" height="184.434" fill="#159846"/><rect x="430.2471" y="310.0648" width="3.547" height="184.434" fill="#159a46"/><rect x="433.7941" y="310.0648" width="3.547" height="184.434" fill="#149c47"/><rect x="437.3401" y="310.0648" width="3.547" height="184.434" fill="#139d47"/><rect x="440.8871" y="310.0648" width="3.547" height="184.434" fill="#129f48"/><rect x="444.4341" y="310.0648" width="3.547" height="184.434" fill="#11a148"/><rect x="447.9801" y="310.0648" width="3.547" height="184.434" fill="#10a349"/><rect x="451.5271" y="310.0648" width="3.547" height="184.434" fill="#0fa549"/><rect x="455.0741" y="310.0648" width="3.547" height="184.434" fill="#0da74a"/><rect x="458.6211" y="310.0648" width="3.547" height="184.434" fill="#0baa4b"/></g><g clip-path="url(#f)"><rect x="38.8421" y="139.5068" width="6.169" height="236.325" fill="#1b6a36"/><rect x="45.0111" y="139.5068" width="6.169" height="236.325" fill="#1b6a36"/><rect x="51.1801" y="139.5068" width="6.169" height="236.325" fill="#1b6a36"/><rect x="57.3491" y="139.5068" width="6.169" height="236.325" fill="#1b6a36"/><rect x="63.5171" y="139.5068" width="6.169" height="236.325" fill="#1b6a36"/><rect x="69.6861" y="139.5068" width="6.169" height="236.325" fill="#1b6a36"/><rect x="75.8551" y="139.5068" width="6.169" height="236.325" fill="#1b6a36"/><rect x="82.0241" y="139.5068" width="6.169" height="236.325" fill="#1b6a36"/><rect x="88.1921" y="139.5068" width="6.169" height="236.325" fill="#1b6a36"/><rect x="94.3611" y="139.5068" width="6.169" height="236.325" fill="#1b6a36"/><rect x="100.5301" y="139.5068" width="6.169" height="236.325" fill="#1b6b36"/><rect x="106.6991" y="139.5068" width="6.169" height="236.325" fill="#1b6b36"/><rect x="112.8671" y="139.5068" width="6.169" height="236.325" fill="#1b6b36"/><rect x="119.0361" y="139.5068" width="6.169" height="236.325" fill="#1b6b36"/><rect x="125.2051" y="139.5068" width="6.169" height="236.325" fill="#1b6b36"/><rect x="131.3741" y="139.5068" width="6.169" height="236.325" fill="#1b6c36"/><rect x="137.5421" y="139.5068" width="6.169" height="236.325" fill="#1b6c36"/><rect x="143.7111" y="139.5068" width="6.169" height="236.325" fill="#1b6c37"/><rect x="149.8801" y="139.5068" width="6.169" height="236.325" fill="#1b6d37"/><rect x="156.0491" y="139.5068" width="6.169" height="236.325" fill="#1b6d37"/><rect x="162.2171" y="139.5068" width="6.169" height="236.325" fill="#1b6d37"/><rect x="168.3861" y="139.5068" width="6.169" height="236.325" fill="#1b6e37"/><rect x="174.5551" y="139.5068" width="6.169" height="236.325" fill="#1b6e37"/><rect x="180.7231" y="139.5068" width="6.169" height="236.325" fill="#1b6f37"/><rect x="186.8921" y="139.5068" width="6.169" height="236.325" fill="#1b6f38"/><rect x="193.0611" y="139.5068" width="6.169" height="236.325" fill="#1b6f38"/><rect x="199.2301" y="139.5068" width="6.169" height="236.325" fill="#1b7038"/><rect x="205.3981" y="139.5068" width="6.169" height="236.325" fill="#1b7138"/><rect x="211.5671" y="139.5068" width="6.169" height="236.325" fill="#1b7138"/><rect x="217.7361" y="139.5068" width="6.169" height="236.325" fill="#1b7239"/><rect x="223.9051" y="139.5068" width="6.169" height="236.325" fill="#1b7239"/><rect x="230.0731" y="139.5068" width="6.169" height="236.325" fill="#1b7339"/><rect x="236.2421" y="139.5068" width="6.169" height="236.325" fill="#1b7439"/><rect x="242.4111" y="139.5068" width="6.169" height="236.325" fill="#1b743a"/><rect x="248.5801" y="139.5068" width="6.169" height="236.325" fill="#1b753a"/><rect x="254.7481" y="139.5068" width="6.169" height="236.325" fill="#1b763a"/><rect x="260.9171" y="139.5068" width="6.169" height="236.325" fill="#1b773a"/><rect x="267.0861" y="139.5068" width="6.169" height="236.325" fill="#1b773b"/><rect x="273.2551" y="139.5068" width="6.169" height="236.325" fill="#1b783b"/><rect x="279.4231" y="139.5068" width="6.169" height="236.325" fill="#1b793b"/><rect x="285.5921" y="139.5068" width="6.169" height="236.325" fill="#1b7a3c"/><rect x="291.7611" y="139.5068" width="6.169" height="236.325" fill="#1b7b3c"/><rect x="297.9301" y="139.5068" width="6.169" height="236.325" fill="#1b7c3c"/><rect x="304.0981" y="139.5068" width="6.169" height="236.325" fill="#1b7c3c"/><rect x="310.2671" y="139.5068" width="6.169" height="236.325" fill="#1b7d3d"/><rect x="316.4361" y="139.5068" width="6.169" height="236.325" fill="#1b7e3d"/><rect x="322.6051" y="139.5068" width="6.169" height="236.325" fill="#1b803e"/><rect x="328.7731" y="139.5068" width="6.169" height="236.325" fill="#1b813e"/><rect x="334.9421" y="139.5068" width="6.169" height="236.325" fill="#1b823e"/><rect x="341.1111" y="139.5068" width="6.169" height="236.325" fill="#1b833f"/><rect x="347.2801" y="139.5068" width="6.169" height="236.325" fill="#1b843f"/><rect x="353.4481" y="139.5068" width="6.169" height="236.325" fill="#1b853f"/><rect x="359.6171" y="139.5068" width="6.169" height="236.325" fill="#1b8640"/><rect x="365.7861" y="139.5068" width="6.169" height="236.325" fill="#1b8740"/><rect x="371.9551" y="139.5068" width="6.169" height="236.325" fill="#1a8941"/><rect x="378.1231" y="139.5068" width="6.169" height="236.325" fill="#1a8a41"/><rect x="384.2921" y="139.5068" width="6.169" height="236.325" fill="#1a8b42"/><rect x="390.4611" y="139.5068" width="6.169" height="236.325" fill="#1a8d42"/><rect x="396.6301" y="139.5068" width="6.169" height="236.325" fill="#198e42"/><rect x="402.7981" y="139.5068" width="6.169" height="236.325" fill="#198f43"/><rect x="408.9671" y="139.5068" width="6.169" height="236.325" fill="#189143"/><rect x="415.1361" y="139.5068" width="6.169" height="236.325" fill="#189244"/><rect x="421.3041" y="139.5068" width="6.169" height="236.325" fill="#179444"/><rect x="427.4731" y="139.5068" width="6.169" height="236.325" fill="#179545"/><rect x="433.6421" y="139.5068" width="6.169" height="236.325" fill="#169745"/><rect x="439.8111" y="139.5068" width="6.169" height="236.325" fill="#159846"/><rect x="445.9791" y="139.5068" width="6.169" height="236.325" fill="#159a46"/><rect x="452.1481" y="139.5068" width="6.169" height="236.325" fill="#149c47"/><rect x="458.3171" y="139.5068" width="6.169" height="236.325" fill="#139d47"/><rect x="464.4861" y="139.5068" width="6.169" height="236.325" fill="#129f48"/><rect x="470.6541" y="139.5068" width="6.169" height="236.325" fill="#11a148"/><rect x="476.8231" y="139.5068" width="6.169" height="236.325" fill="#10a349"/><rect x="482.9921" y="139.5068" width="6.169" height="236.325" fill="#0fa549"/><rect x="489.1611" y="139.5068" width="6.169" height="236.325" fill="#0da74a"/><rect x="495.3291" y="139.5068" width="6.169" height="236.325" fill="#0baa4b"/></g><g><path d="M61.7521,254.2764l1.145-9.292,36.852-10.503-1.268,10.338-6.526,1.77-1.648,13.416,5.906,3.25-1.246,10.138-33.215-19.117Zm22.359-5.825l-10.367,2.659,9.408,5.141,.959-7.8Z" fill="#1b6a36"/><path d="M85.7679,228.5724l-18.622-6.349,3.183-9.336,18.434,6.286c4.785,1.63,7.884-.012,9.144-3.708,1.26-3.696-.095-6.856-4.738-8.438l-18.671-6.366,3.183-9.336,18.384,6.271c10.712,3.65,13.319,11.363,10.103,20.792-3.215,9.431-10.022,13.721-20.4,10.184" fill="#1b6a36"/><path d="M107.5326,197.4982l-2.897-7.908c4.111-1.616,7.291-4.231,9.316-7.742,1.297-2.254,1.216-3.919-.084-4.669l-.087-.05c-1.257-.724-2.526-.127-5.851,3.444-5.199,5.611-9.892,9.547-16.137,5.95l-.087-.049c-5.634-3.25-7.137-10.063-2.94-17.348,2.972-5.158,6.683-8.391,11.227-10.164l3.517,7.63c-3.551,1.651-6.341,4.084-7.888,6.775-1.176,2.036-.883,3.534,.203,4.156l.087,.053c1.385,.799,2.592,.107,5.97-3.549,5.541-6.106,10.291-9.141,15.971-5.871l.087,.052c6.202,3.571,7.065,10.596,2.816,17.964-3.097,5.376-7.737,9.519-13.223,11.326" fill="#1b6a36"/><polygon points="114.7508 146.9765 107.9848 155.0285 101.4668 149.5485 121.2538 126.0115 127.7678 131.4915 121.0018 139.5415 141.3178 156.6195 135.0668 164.0575 114.7508 146.9765" fill="#1b6a36"/><path d="M128.869,118.5935l12.852-10.457c4.156-3.38,7.913-4.629,11.256-4.252,2.856,.261,5.376,1.692,7.557,4.374l.063,.075c3.378,4.157,3.41,8.713,1.2,12.898l14.193,4.2-8.699,7.077-12.174-3.777-3.299,2.685,6.697,8.232-7.534,6.129-22.112-27.184Zm23.117,2.876c2.563-2.086,3.027-4.527,1.416-6.509l-.063-.078c-1.738-2.135-4.174-1.958-6.7,.096l-4.93,4.012,5.307,6.523,4.97-4.044Z" fill="#1b6a36"/><path d="M172.6385,87.128l8.301-4.325,29.537,24.41-9.235,4.811-5.156-4.371-11.988,6.245,.672,6.705-9.058,4.719-3.073-38.194Zm17.469,15.117l-8.067-7.033,1.095,10.662,6.972-3.629Z" fill="#1b6a36"/><polygon points="203.7329 73.1115 213.0479 70.3805 220.5099 95.8295 236.7879 91.0585 239.1809 99.2215 213.5869 106.7235 203.7329 73.1115" fill="#1b6a36"/><rect x="241.5318" y="63.1817" width="9.7648" height="35.0518" transform="translate(-9.2828 37.6642) rotate(-8.5796)" fill="#1b6a36"/><path d="M273.0238,60.6391l9.359,.153,14.344,35.532-10.413-.171-2.451-6.297-13.515-.22-2.604,6.216-10.21-.168,15.49-35.045Zm8.16,21.611l-3.742-10.022-4.116,9.895,7.858,.127Z" fill="#1b6a36"/><polygon points="307.3571 62.5622 316.1971 64.5462 326.2081 85.7692 330.2601 67.7002 339.6361 69.8032 331.9691 103.9862 323.6671 102.1232 313.2721 80.0982 309.0661 98.8502 299.6901 96.7472 307.3571 62.5622" fill="#1b6a36"/><path d="M359.1502,95.7774l.049-.087c5.058-8.696,16.169-11.673,25.516-6.237,9.344,5.434,12.218,16.427,7.16,25.125l-.052,.087c-5.057,8.696-16.168,11.673-25.513,6.236-9.347-5.434-12.217-16.426-7.16-25.124m24.056,13.99l.049-.084c2.543-4.371,1.599-10.016-3.03-12.707-4.588-2.668-9.822-.733-12.365,3.635l-.049,.087c-2.543,4.371-1.599,10.013,2.989,12.681,4.629,2.694,9.866,.759,12.406-3.612" fill="#1b6a36"/><polygon points="407.882 103.7715 415.193 110.9725 405.321 129.7015 424.43 119.9285 430.385 125.7915 420.905 145.0475 439.481 134.8895 446.649 141.9485 413.545 158.8725 407.517 152.9375 416.641 133.6145 397.495 143.0695 391.467 137.1345 407.882 103.7715" fill="#1b6a36"/><polygon points="452.738 151.9209 457.375 159.7039 448.842 181.5639 464.753 172.0869 469.671 180.3419 439.573 198.2719 435.22 190.9639 444.069 168.2719 427.558 178.1089 422.64 169.8539 452.738 151.9209" fill="#1b6a36"/><polygon points="474.8532 192.0092 484.2062 218.6112 476.4082 221.3512 470.2472 203.8212 465.2392 205.5822 470.8182 221.4582 463.5912 223.9992 458.0102 208.1232 452.7642 209.9652 459.0092 227.7322 451.2142 230.4722 441.7802 203.6362 474.8532 192.0092" fill="#1b6a36"/><path d="M487.0942,229.9806l1.894,13.382c1.753,12.388-4.365,20.585-14.378,22.002l-.099,.014c-10.01,1.417-18.474-4.817-20.244-17.304l-1.865-13.182,34.692-4.912Zm-24.253,17.234c.814,5.75,4.527,9.115,10.126,8.322l.099-.015c5.55-.785,8.232-5.057,7.418-10.804l-.553-3.916-17.643,2.497,.553,3.916Z" fill="#1b6a36"/><path d="M119.7348,397.1621l.074-.067c7.515-6.86,18.688-6.455,25.816,1.354,4.809,5.268,5.691,10.674,4.608,15.85l-9.072-1.579c.496-3.155,.13-5.926-2.124-8.394-3.295-3.61-8.673-3.361-12.429,.069l-.075,.067c-3.867,3.531-4.568,8.83-1.273,12.439,2.454,2.69,5.153,3.13,8.443,2.963l1.078,8.875c-5.571,.629-11.031-.397-16.243-6.107-6.725-7.367-6.503-18.443,1.197-25.47" fill="#1b6a36"/><polygon points="156.3075 410.582 178.5905 427.666 173.5825 434.196 158.8995 422.939 155.6825 427.135 168.9815 437.33 164.3385 443.387 151.0395 433.19 147.6715 437.584 162.5535 448.993 157.5455 455.523 135.0655 438.288 156.3075 410.582" fill="#1b6a36"/><path d="M180.4119,428.8473l14.664,7.583c4.739,2.452,7.376,5.388,8.359,8.592,.9,2.711,.593,5.585-.988,8.642l-.046,.089c-2.451,4.739-6.603,6.58-11.305,6.225l1.808,14.636-9.924-5.132-1.389-12.623-3.766-1.948-4.857,9.392-8.595-4.444,16.039-31.012Zm6.566,22.264c2.924,1.512,5.341,.964,6.51-1.295l.046-.089c1.259-2.436,.129-4.594-2.751-6.083l-5.626-2.909-3.849,7.442,5.67,2.934Z" fill="#1b6a36"/><polygon points="215.3944 454.2051 205.3964 451.0861 207.9214 442.9931 237.1524 452.1131 234.6264 460.2061 224.6304 457.0871 216.7574 482.3181 207.5214 479.4351 215.3944 454.2051" fill="#1b6a36"/><rect x="223.7674" y="465.2207" width="34.9091" height="9.7245" transform="translate(-264.3577 623.5601) rotate(-79.722)" fill="#1b6a36"/><polygon points="253.2851 454.7783 281.1711 456.3523 280.6931 464.8173 262.4691 463.7893 262.1341 469.7163 278.6161 470.6453 278.1641 478.6623 261.6811 477.7313 260.9781 490.1803 251.3181 489.6353 253.2851 454.7783" fill="#1b6a36"/><rect x="284.785" y="455.3453" width="9.7263" height="34.9142" transform="translate(-31.3718 20.7135) rotate(-3.8854)" fill="#1b6a36"/><polygon points="297.5497 455.0498 325.0987 449.6138 326.6917 457.6888 308.5377 461.2708 309.5617 466.4568 326.0017 463.2128 327.4797 470.6998 311.0377 473.9438 312.1087 479.3748 330.5087 475.7448 332.1007 483.8198 304.3077 489.3028 297.5497 455.0498" fill="#1b6a36"/><path d="M327.1444,449.1526l12.524-4.946c11.597-4.58,20.961-.555,24.661,8.814l.037,.093c3.699,9.37-.371,19.02-12.061,23.636l-12.34,4.873-12.821-32.47Zm22.335,19.491c5.381-2.125,7.781-6.504,5.711-11.746l-.037-.092c-2.052-5.196-6.814-6.801-12.195-4.676l-3.666,1.448,6.523,16.513,3.664-1.447Z" fill="#1b6a36"/></g><text transform="translate(184.2998 384.7699) rotate(35.5813)" fill="#fff" font-family="OpenSans-Bold, &apos;Open Sans&apos;" font-size="36.1948" font-weight="700"><tspan x="0" y="0">#</tspan></text><text transform="translate(205.8132 399.7132) rotate(25.5471)" fill="#fff" font-family="OpenSans-Bold, &apos;Open Sans&apos;" font-size="36.1948" font-weight="700"><tspan x="0" y="0">0</tspan></text><text transform="translate(226.9336 409.5666) rotate(16.0742)" fill="#fff" font-family="OpenSans-Bold, &apos;Open Sans&apos;" font-size="36.1948" font-weight="700"><tspan x="0" y="0">4</tspan></text><text transform="translate(249.3725 415.8039) rotate(6.636)" fill="#fff" font-family="OpenSans-Bold, &apos;Open Sans&apos;" font-size="36.1948" font-weight="700"><tspan x="0" y="0">1</tspan></text><text transform="translate(272.497 418.2785) rotate(-2.6277)" fill="#fff" font-family="OpenSans-Bold, &apos;Open Sans&apos;" font-size="36.1948" font-weight="700"><tspan x="0" y="0">9</tspan></text><text transform="translate(295.7431 417.0002) rotate(-12.0178)" fill="#fff" font-family="OpenSans-Bold, &apos;Open Sans&apos;" font-size="36.1948" font-weight="700"><tspan x="0" y="0">0</tspan></text></svg>