<svg xmlns="http://www.w3.org/2000/svg" width="552.43" height="552.43" viewBox="0 0 552.43 552.43"><defs><clipPath id="a"><path d="M367.53,297.44l.77-4.49a.82.82,0,0,0-.23-.73L364.81,289a.81.81,0,0,1,.45-1.39l4.51-.66a.79.79,0,0,0,.61-.44l2-4.09a.82.82,0,0,1,1.47,0l2,4.09a.79.79,0,0,0,.62.44l4.51.66a.82.82,0,0,1,.45,1.39l-3.26,3.18a.83.83,0,0,0-.24.73l.77,4.49a.82.82,0,0,1-1.19.86l-4-2.12a.85.85,0,0,0-.76,0l-4,2.12a.8.8,0,0,1-.38.1.82.82,0,0,1-.81-1m-96.25-43.21L273.2,243a.82.82,0,0,0-.23-.73l-8.14-7.93a.82.82,0,0,1,.45-1.4l11.25-1.63a.83.83,0,0,0,.62-.45l5-10.2a.83.83,0,0,1,1.47,0l5,10.2a.83.83,0,0,0,.61.45L300.55,233a.82.82,0,0,1,.45,1.4l-8.14,7.93a.83.83,0,0,0-.24.73l1.92,11.21a.81.81,0,0,1-1.18.86l-10.07-5.29a.79.79,0,0,0-.76,0l-10.06,5.29a.92.92,0,0,1-.38.09.82.82,0,0,1-.81-1m58.4-61.78,1.92-11.21a.77.77,0,0,0-.24-.72l-8.14-7.94a.82.82,0,0,1,.46-1.4l11.25-1.63a.83.83,0,0,0,.61-.45l5-10.19a.81.81,0,0,1,1.46,0l5,10.19a.81.81,0,0,0,.61.45l11.25,1.63a.83.83,0,0,1,.46,1.4l-8.15,7.94a.79.79,0,0,0-.23.72l1.92,11.21a.81.81,0,0,1-1.18.86L341.69,188a.79.79,0,0,0-.76,0l-10.07,5.29a.85.85,0,0,1-.38.09.81.81,0,0,1-.8-1M319.4,129c-.31.18-.62.37-.92.57-8.34,5.83-3.11,21.76-24.78,43.18-8.37,8.27-16.76,13.29-24.68,16.14-18.06,6.5-33.63,1.65-40.72-2.08-5.34-2.8-10.46-10.38-14.14-17-.7-1.26-1.35-2.49-1.94-3.64h0c-5.6-9.32-14.13-9.83-21-8.23-20.37,5.17-47.66,56.88-47.66,56.88h0c-9.33,17.79-15.63,33.13-16.8,36a299.82,299.82,0,0,0-12,40.62q-1.86,8.58-3,16.55c-.77,5.23-1.3,10.25-1.64,15,100.12-34.71,176-29.69,243.12-17.29h0s90.25,16.51,80.41-25h0c-.6-2.2-1.22-4.35-1.85-6.47-.17-.56-.35-1.11-.52-1.67q-.71-2.34-1.43-4.61c-.19-.59-.39-1.17-.58-1.75-.48-1.47-1-2.91-1.45-4.33l-.57-1.63c-.26-.72-.51-1.47-.76-2.18s-.46-1.24-.69-1.86-.46-1.25-.7-1.87-.41-1.14-.62-1.68c-.35-.91-.69-1.79-1-2.67-.06-.15-.12-.3-.17-.45-.6-1.52-1.2-3-1.79-4.45l-.21-.51-.43-1c-.45-1.06-.89-2.13-1.32-3.13l-.39-.9v0l-.56-1.29c-.49-1.11-1-2.18-1.45-3.23l-7.41,7.22a.82.82,0,0,0-.23.73l1.92,11.21a.82.82,0,0,1-1.19.86l-10.06-5.29a.79.79,0,0,0-.76,0l-10.07,5.29a.81.81,0,0,1-1.18-.86L390,243a.83.83,0,0,0-.24-.73l-8.14-7.93a.82.82,0,0,1,.45-1.4l11.26-1.63a.83.83,0,0,0,.61-.45l5-10.2a.83.83,0,0,1,1.47,0l5,10.2a.83.83,0,0,0,.62.45l9.91,1.44c-5.47-11.8-9.61-18.65-9.61-18.65-1.38-2.51-2.73-4.91-4.07-7.24h0l-.16-.27-.32-.56c-5.38-9.33-10.45-17.27-15.23-24l-.05-.07-1.74-2.52-.59-.84c-.43-.63-.87-1.25-1.32-1.88-.21-.3-.43-.6-.64-.91l-1.54-2.14-.44-.6q-1-1.35-2-2.7l0,0v0l-.54-.72c-.51-.68-1-1.37-1.54-2.05l-.71-.93c-.51-.67-1-1.34-1.54-2l-.63-.81c-.67-.86-1.35-1.71-2-2.57l-.13-.17L371,161c-.07-.1-.15-.19-.22-.28-.62-.77-1.25-1.53-1.88-2.3l-.73-.87c-.53-.63-1.06-1.27-1.6-1.9l-.74-.86c-.67-.78-1.34-1.55-2-2.31l-.07-.09-.21-.23-.12-.14c-.73-.81-1.46-1.61-2.2-2.41l-.68-.73c-.56-.6-1.13-1.19-1.69-1.77l-.8-.82c-.59-.61-1.18-1.2-1.78-1.79l-.53-.53-.07-.07-.05,0c-.76-.74-1.52-1.47-2.28-2.17,0,0,0,0,0,0l-.08-.07-.45-.41c-.62-.57-1.24-1.12-1.86-1.66l-.79-.68c-.56-.49-1.13-1-1.7-1.42l-.73-.6c-.76-.6-1.52-1.19-2.28-1.75l-.09-.07-.15-.11-.05,0c-.72-.53-1.45-1-2.17-1.52-.24-.17-.49-.32-.73-.48q-.84-.56-1.68-1l-.76-.46c-.64-.36-1.27-.71-1.9-1l-.42-.23h-.06c-.75-.38-1.51-.73-2.25-1l-.62-.24c-.56-.23-1.12-.43-1.68-.62l-.74-.23c-.56-.17-1.11-.31-1.66-.44l-.61-.14c-.4-.08-.8-.12-1.2-.18-4.2,0-7.12.67-9.26,1.85" fill="none"/></clipPath><clipPath id="b"><path d="M177.48,315c-1.49.37-4.55.88-10,1.6h-.08a125.34,125.34,0,0,0-18.88,4c-14.41,4.23-22.73,9.59-23.47,10.08-7.18,4.8-14,11.56-14.4,20.14a77.29,77.29,0,0,0,2.48,12c.24.55.48,1.06.73,1.55a17.39,17.39,0,0,0,3.19,4.47,11,11,0,0,0,.83.74,11.28,11.28,0,0,0,1.6,1.13,10,10,0,0,0,1.48.72,8.77,8.77,0,0,0,1.27.41,8.12,8.12,0,0,0,1.59.22H124l.69,0,.69,0c.34,0,.67,0,1-.05h0l.29,0,.88-.11c.35,0,.7-.08,1.06-.14l1.23-.24c.36-.07.72-.14,1.09-.23l.78-.2.48-.13h0l1.12-.3h0l1.3-.41h0l1.14-.37h0c.25-.08.49-.18.74-.27l.6-.21,1.14-.42,1.37-.56,1.13-.46h0l1.35-.59h0l1.12-.5h0l.16-.08,1.23-.58,1.08-.51h0l1.37-.68,1-.53h0l1.31-.69.05,0,1-.52h0l1.25-.69.08,0,1-.52h0l1.21-.69.12-.07.84-.48,1.38-.82.68-.4h0l1.09-.66.32-.2.51-.31h0l.89-.55.58-.37.29-.18c1.22-.9,2.48-1.74,3.75-2.56.8-.52,1.61-1,2.42-1.52l.16-.11h0c1.4-.84,2.82-1.62,4.26-2.37l.88-.44c1.26-.63,2.53-1.25,3.81-1.82l.47-.21q4.62-2,9.43-3.61c.58-.19,1.15-.4,1.73-.58.82-.26,1.64-.46,2.47-.7,1.41-.4,2.82-.78,4.23-1.13s3-.73,4.54-1h0c1.18-.24,2.35-.44,3.53-.65l1.58-.29.22,0,1.46-.21c1.23-.18,2.45-.37,3.67-.51.57-.07,1.13-.11,1.69-.17,1.14-.12,2.29-.25,3.42-.34l2-.12c1-.07,2-.14,3.06-.18.73,0,1.45,0,2.17-.05h0c.79,0,1.59-.06,2.38-.06h.93c1,0,2,0,3.08,0l1,0c1.53,0,3,.11,4.57.21l1.14.08,3.39.27,1.62.17c1,.1,1.92.2,2.88.32l1.73.22,2.74.4c.58.08,1.16.17,1.73.27q1.4.22,2.76.48l1.62.29c1,.19,2,.4,3,.61l1.33.27q2.08.47,4.14,1l.11,0c1.41.34,2.82.71,4.22,1.09l1.18.33,2.95.84,1.45.45c.88.26,1.76.54,2.62.81l1.52.5c.84.27,1.69.56,2.52.85l1.47.51,2.56.92,1.32.49,2.9,1.12.88.34c1.27.5,2.52,1,3.76,1.53l.36.16c1.1.46,2.18.93,3.25,1.4l1.11.5c.81.36,1.63.73,2.42,1.1l1.25.58,2.2,1.05c.43.2.85.4,1.26.61l2.13,1.05,1.19.6,2.17,1.12,1,.53,2.57,1.37.5.27q1.51.83,3,1.65l.75.43,2.1,1.2,1,.58,1.76,1,1,.61,1.59,1,1,.62,1.54,1,.89.57,1.59,1,.7.46.86.56,1.15-6.7a.81.81,0,0,0-.23-.72l-8.15-7.94a.82.82,0,0,1,.46-1.39l11.25-1.64a.83.83,0,0,0,.62-.45l5-10.19a.82.82,0,0,1,1.47,0l5,10.19a.83.83,0,0,0,.61.45L359,357a.81.81,0,0,1,.45,1.39l-8.14,7.94a.82.82,0,0,0-.24.72l1.92,11.21a.81.81,0,0,1-1.18.86l-10.07-5.29a.79.79,0,0,0-.76,0L335,377c3.71,2.73,7.39,5.43,11,8h0q2.2,1.59,4.39,3.13l1.38,1,3,2.08,1.64,1.13,2.64,1.81,1.76,1.19,2.47,1.64,1.79,1.17,2.4,1.55,1.77,1.11,2.38,1.47,1.7,1,2.4,1.41,1.6.92,2.57,1.42c.45.24.9.5,1.35.73,1.15.61,2.28,1.19,3.41,1.75l.42.21c1.26.62,2.51,1.2,3.74,1.75l1.12.47c.85.36,1.69.72,2.52,1.05l1.37.51c.73.28,1.46.55,2.18.79l1.44.45c.68.22,1.36.42,2,.6.48.14,1,.25,1.43.37.65.16,1.29.3,1.93.43.47.1.94.18,1.4.26.63.11,1.26.19,1.88.27l1.33.15c.63.05,1.25.07,1.86.09l1.29,0,1.06-.05c.27,0,.53,0,.8-.06s.54,0,.81-.06h0c.36,0,.71-.09,1.07-.14s1-.17,1.51-.28.7-.15,1-.24h0c.49-.13,1-.28,1.46-.45h0l1-.34c.49-.19,1-.42,1.45-.65.29-.13.58-.26.87-.42.45-.24.88-.51,1.32-.79l.23-.14h0c.22-.14.45-.27.67-.42h0a22.76,22.76,0,0,0,2.11-1.65h0l.15-.15s0,0,0,0a23.7,23.7,0,0,0,1.82-1.8h0c.18-.19.34-.41.51-.6-1.42-9.95-11.48-19.54-14.13-21.91-3.42-3-6.41-5.43-8.55-7.1-1.14-.83-2.29-1.69-3.49-2.62-56-44-115.78-60.66-167.63-64.79-5.09-.27-10.1-.39-15-.39a295.64,295.64,0,0,0-42.1,3" fill="none"/></clipPath><clipPath id="c"><path d="M358.76,412a136.79,136.79,0,0,0,22,24.82,21.31,21.31,0,0,0,27.11.44A63,63,0,0,0,418,427a50.75,50.75,0,0,0,3.18-4.59l1.47-2.17c1.5-2.22,3.62-5.33,3.62-5.33a38.58,38.58,0,0,1-19.71,7.73c-23.62,2.69-48.85-12.22-48.85-12.22.36.51.7,1,1,1.57" fill="none"/></clipPath><clipPath id="d"><path d="M217.24,312c28.9,3.32,81.9,12.09,122.74,34l.6-1.21a.82.82,0,0,1,1.47,0l1.59,3.23a155.32,155.32,0,0,1,13.89,8.84L359,357a.82.82,0,0,1,.57,1.25c19,14.15,32.77,32.4,36,55.9l.46.16,1.44.45c.68.22,1.36.42,2,.6.48.14,1,.25,1.43.37.65.16,1.29.3,1.93.43.47.1.94.18,1.4.26.63.11,1.26.19,1.88.27l1.33.15c.63.05,1.25.07,1.86.09l1.29,0,1.06-.05c.27,0,.53,0,.8-.06s.54,0,.81-.06h0c.36,0,.71-.09,1.07-.14s1-.17,1.51-.28.7-.15,1-.24h0c.49-.13,1-.28,1.46-.45h0l1-.34c.49-.19,1-.42,1.45-.65.29-.13.58-.26.87-.42.45-.24.88-.51,1.32-.79l.23-.14h0c.22-.14.45-.27.67-.42h0a22.76,22.76,0,0,0,2.11-1.65h0l.15-.15s0,0,0,0a23.7,23.7,0,0,0,1.82-1.8h0c.18-.19.34-.41.51-.6-1.42-9.95-11.48-19.54-14.13-21.91-3.42-3-6.41-5.43-8.55-7.1-1.14-.83-2.29-1.69-3.49-2.62-56-44-115.78-60.66-167.63-64.79-5.09-.27-10.09-.39-15-.39h-2.34" fill="none"/></clipPath><clipPath id="e"><path d="M367.53,297.44l.77-4.49a.82.82,0,0,0-.23-.73L364.81,289a.81.81,0,0,1,.45-1.39l4.51-.66a.79.79,0,0,0,.61-.44l2-4.09a.82.82,0,0,1,1.47,0l2,4.09a.79.79,0,0,0,.62.44l4.51.66a.82.82,0,0,1,.45,1.39l-3.26,3.18a.83.83,0,0,0-.24.73l.77,4.49a.82.82,0,0,1-1.19.86l-4-2.12a.85.85,0,0,0-.76,0l-4,2.12a.8.8,0,0,1-.38.1.82.82,0,0,1-.81-1m-74.26-50.66,1.27,7.45a.81.81,0,0,1-1.18.86L284,250.16c-1.9.66-3.87,1.31-5.86,2l-5.66,3a.92.92,0,0,1-.38.09.82.82,0,0,1-.81-1c-80.88,24-132.08,48.64-160.83,64.6-.13,1.45-.25,2.88-.35,4.29,100.12-34.71,176-29.69,243.12-17.29h0s90.25,16.51,80.41-25h0c-.6-2.2-1.22-4.35-1.85-6.47-.17-.56-.35-1.11-.52-1.67q-.71-2.34-1.43-4.61c-.19-.59-.39-1.17-.58-1.75-.48-1.47-1-2.91-1.45-4.33l-.57-1.63c-.26-.72-.51-1.47-.76-2.18s-.46-1.24-.69-1.86-.46-1.25-.7-1.87-.41-1.14-.62-1.68c-.35-.91-.69-1.79-1-2.67-.06-.15-.12-.3-.17-.45-.6-1.52-1.2-3-1.79-4.45l-.21-.51-.43-1c-.45-1.06-.89-2.13-1.32-3.13l-.39-.9v0l-.56-1.29c-.49-1.11-1-2.18-1.45-3.23l-7.41,7.22a.82.82,0,0,0-.23.73l1.92,11.21a.82.82,0,0,1-1.19.86l-10.06-5.29a.79.79,0,0,0-.76,0l-10.07,5.29a.81.81,0,0,1-1.18-.86L390,243a.83.83,0,0,0-.24-.73l-8.14-7.93a.82.82,0,0,1,.45-1.4l11.26-1.63a.83.83,0,0,0,.61-.45l5-10.2a.83.83,0,0,1,1.47,0l5,10.2a.83.83,0,0,0,.62.45l9.91,1.44c-5.47-11.8-9.61-18.65-9.61-18.65-1.38-2.51-2.73-4.91-4.07-7.24h0l-.16-.27-.32-.56c-5.38-9.33-10.45-17.27-15.23-24l-.05-.07-1.74-2.52-.59-.84c-.43-.63-.87-1.25-1.32-1.88-.21-.3-.43-.6-.64-.91l-1.54-2.14-.44-.6q-1-1.35-2-2.7l0,0v0l-.54-.72c-.51-.68-1-1.37-1.54-2.05l-.71-.93c-.51-.67-1-1.34-1.54-2l-.63-.81c-.67-.86-1.35-1.71-2-2.57l-.13-.17L371,161c-.07-.1-.15-.19-.22-.28-.62-.77-1.25-1.53-1.88-2.3l-.73-.87c-.53-.63-1.06-1.27-1.6-1.9l-.74-.86c-.67-.78-1.34-1.55-2-2.31l-.07-.09-.21-.23-.12-.14c-.73-.81-1.46-1.61-2.2-2.41l-.68-.73c-.56-.6-1.13-1.19-1.69-1.77l-.8-.82c-.59-.61-1.18-1.2-1.78-1.79l-.53-.53-.07-.07-.05,0c-.76-.74-1.52-1.47-2.28-2.17,0,0,0,0,0,0l-.08-.07-.45-.41c-.62-.57-1.24-1.12-1.86-1.66,0,0,49.11,66.06-57.66,107.27" fill="none"/></clipPath></defs><g data-name="Layer 2"><path d="M552.43,276.21c0,152.55-123.67,276.22-276.22,276.22S0,428.76,0,276.21,123.67,0,276.21,0,552.43,123.67,552.43,276.21" fill="#fff"/><path d="M431.78,276.21A155.57,155.57,0,1,1,276.21,120.64,155.57,155.57,0,0,1,431.78,276.21" fill="#fff"/><path d="M276.21,120.64A155.57,155.57,0,1,1,120.64,276.21,155.57,155.57,0,0,1,276.21,120.64m0-101.06a256.67,256.67,0,0,0-99.92,493.06A256.67,256.67,0,0,0,376.14,39.79a255.17,255.17,0,0,0-99.93-20.21" fill="#fff"/><path d="M276.21,542.91c-147,0-266.69-119.64-266.69-266.7S129.16,9.52,276.21,9.52,542.9,129.16,542.9,276.21s-119.63,266.7-266.69,266.7m0-504.51C145.08,38.4,38.4,145.08,38.4,276.21S145.08,514,276.21,514,514,407.35,514,276.21,407.35,38.4,276.21,38.4" fill="#1b6a36"/><path d="M276.21,120.64A155.57,155.57,0,1,1,120.64,276.21,155.57,155.57,0,0,1,276.21,120.64" fill="#1b6a36"/><path d="M395.52,457.9a37.07,37.07,0,0,1-24.38-9c-10.45-9.12-22-24.09-22.46-24.73-.28-.37-27.59-36.06-43.06-47.11l-.1-.06-2.4-1.28L289.37,369c-1-.43-2-.86-3-1.28l-.38-.17c-1.13-.48-2.29-.95-3.46-1.41l-.81-.32c-.89-.35-1.77-.69-2.66-1l-1.22-.45c-.79-.29-1.57-.58-2.36-.85l-1.41-.5-2.27-.76-1.45-.47-2.34-.73-1.38-.42c-.84-.25-1.73-.5-2.64-.75l-1.18-.33c-1.19-.33-2.47-.66-3.75-1s-2.6-.61-3.85-.89l-1.2-.25c-.91-.19-1.78-.37-2.67-.54l-1.51-.28-2.5-.43-1.58-.25-2.41-.34-1.62-.21c-.78-.1-1.64-.19-2.5-.28l-1.55-.16c-.93-.09-1.93-.16-2.92-.23l-1.1-.08c-1.28-.08-2.62-.14-4-.18l-1.45,0c-.72,0-1.45,0-2.18,0h-.93l-3.93.1c-.64,0-1.27.06-1.9.1l-2.53.16c-.81.06-1.61.15-2.41.24l-2.05.2c-.91.11-1.77.24-2.63.36l-4.2.69-1.46.26-1.5.5h-.89l-2.44.58c-1.17.3-2.43.64-3.68,1l-1.06.29-1.07.3-1.36.47q-4.25,1.39-8,3.06l-.44.2c-1,.45-2.06,1-3.08,1.48l-.83.41c-1.16.6-2.28,1.22-3.33,1.85-.79.48-1.44.89-2.09,1.31-1.18.77-2.12,1.41-3,2l-.44.29L167,372.69l-11.93,6.62-4.08,2-8.86,3.59-1.31.43-5.15,1.46c-.53.13-1,.23-1.51.32l-.26.05c-.51.11-1.06.22-1.59.31s-1.06.16-1.52.22l-1.4.16c-.11,0-.44.06-.77.08s-1,.06-1.49.08l-1,0c-.38,0-.8,0-1.18,0a23.68,23.68,0,0,1-5.47-.67,24.56,24.56,0,0,1-3.36-1.06,26.56,26.56,0,0,1-3.71-1.81,28.67,28.67,0,0,1-3.79-2.65c-.58-.49-1.22-1.06-1.85-1.69a33.29,33.29,0,0,1-6.17-8.53c-.4-.78-.8-1.64-1.19-2.56l-.61-1.66a92.3,92.3,0,0,1-3-14.5c-.29-2.21-.51-4.23-.67-6.16-.36-4.42-.51-9.14-.46-14v-.31c0-1.34.06-2.81.12-4.29.06-1.67.15-3.35.26-5.05l.05-.87c.38-5.45,1-10.94,1.78-16.42.83-5.75,1.91-11.69,3.21-17.65a315.84,315.84,0,0,1,12.67-42.8l.13-.33c1.25-3.1,7.81-19.1,17.5-37.58,7.19-13.63,32.62-58.56,57.94-65,16.19-3.79,30.59,2,38.68,15.53l.4.71c.64,1.23,1.2,2.28,1.8,3.36,4.86,8.71,7.72,10.65,7.75,10.67a36,36,0,0,0,27.65,1.09c6.5-2.34,12.83-6.53,18.83-12.45,10.17-10,12.55-18,14.65-25,1.93-6.45,4.35-14.46,12.23-20l.34-.24c.56-.36,1.09-.7,1.63-1l.37-.21c4.69-2.57,10-3.79,16.88-3.85h1.23l1.46.21c.58.08,1.19.17,1.82.3.24,0,.65.14,1.05.23.86.2,1.73.43,2.62.69l1.23.39c.86.28,1.72.6,2.58.94l.95.38c1,.41,2.06.9,3.15,1.45l.74.39c.78.4,1.64.87,2.5,1.37.24.13.57.33.9.53.8.48,1.52.93,2.25,1.4l.9.6c.91.6,1.76,1.2,2.63,1.83l.53.39c.89.66,1.79,1.35,2.68,2.06l.86.71c.65.53,1.31,1.07,2,1.64l.9.77c.74.65,1.45,1.29,2.17,1.94l.7.64,2.37,2.25.84.83c.7.69,1.36,1.35,2,2l3.45,3.62c.81.87,1.62,1.76,2.41,2.65l.35.38,2.26,2.58,3.25,3.87c.7.83,1.37,1.65,2,2.47l.39.48c.85,1.06,1.56,2,2.27,2.86l3.05,4c.53.69,1.07,1.42,1.61,2.15l.83,1.11c.63.85,1.25,1.69,1.85,2.52l4.65,6.55c.66.94,1.26,1.81,1.84,2.66,5.07,7.09,10.48,15.58,16,25.12l.44.76c1.42,2.48,2.8,4.91,4.19,7.46.65,1.08,4.82,8.21,10.18,19.74l1.11,2.42c.5,1.09,1,2.23,1.53,3.41l1,2.27c.42,1,.83,1.94,1.24,2.92l.84,2c.63,1.53,1.25,3.1,1.88,4.69l.22.57c.33.83.7,1.77,1.07,2.74l3.47,9.59c.55,1.59,1.06,3.11,1.57,4.65l.59,1.82c.53,1.63,1,3.25,1.53,4.89l.51,1.67c.69,2.33,1.34,4.6,2,6.9,2.24,8.22,4.12,16.48,5.59,24.56.73,4,1.37,8.05,1.9,12,.61,4.56,1.11,9.13,1.46,13.57.46,5.75.72,11.48.76,17,0,4.75-.11,9.84-.44,15.11-3.15,38-18.27,64-22.82,71l-.9,1.33a67.5,67.5,0,0,1-3.95,5.67,80.71,80.71,0,0,1-12.72,12.85,37.19,37.19,0,0,1-23.42,8.23M226.08,339.59l2.46,0,1.5,0c1.59,0,3.11.11,4.65.2l1.12.09c1.09.07,2.22.16,3.34.27l1.59.16c.95.1,1.92.2,2.86.32l1.7.22q1.38.18,2.73.39l1.68.26c1,.16,1.89.32,2.82.49l1.53.28,3,.61,1.24.25c1.45.32,2.82.64,4.3,1s2.81.71,4.17,1.08l1.22.34c.95.26,1.92.54,2.89.83l1.46.44,2.6.81,1.48.48,2.52.85,1.45.51c.87.3,1.72.61,2.58.93l1.26.46,2.91,1.12.84.33c1.31.52,2.55,1,3.91,1.6l.37.16,3.13,1.35,6.91,3.19,7.69,3.88,2.57,1.37,1.22.71c17.29,12.09,45.49,48.94,46.69,50.5.1.13,11.09,14.43,20.42,22.56a22.58,22.58,0,0,0,28.69.47A64.28,64.28,0,0,0,420,427.71a49.26,49.26,0,0,0,3.08-4.42l1.05-1.58c4.13-6.39,17.61-29.64,20.46-64,.3-4.78.43-9.51.4-13.93,0-5.19-.28-10.56-.71-16-.34-4.18-.8-8.48-1.38-12.77-.5-3.71-1.1-7.51-1.79-11.31-1.39-7.66-3.18-15.5-5.31-23.3-.6-2.2-1.23-4.36-1.86-6.52l-.5-1.63c-.49-1.58-1-3.13-1.46-4.65l-.57-1.77c-.48-1.45-1-2.91-1.46-4.33l-3.4-9.38c-.31-.8-.65-1.68-1-2.51l-.22-.56c-.57-1.46-1.17-3-1.76-4.38l-.83-2c-.39-.93-.77-1.85-1.15-2.73l-1-2.24c-.48-1.08-1-2.15-1.43-3.17l-1.09-2.38c-5.15-11.08-9.14-17.86-9.58-18.6-1.48-2.69-2.81-5.05-4.16-7.41l-.43-.74c-5.27-9.15-10.41-17.23-15.29-24.05l-6.35-9c-.57-.78-1.15-1.58-1.74-2.37l-.82-1.1c-.51-.68-1-1.36-1.52-2l-5.45-7c-.62-.76-1.24-1.53-1.89-2.3l-3.1-3.68c-.66-.76-1.34-1.54-2.07-2.36l-.33-.37c-.75-.84-1.49-1.66-2.21-2.43l-3.21-3.37c-.6-.62-1.2-1.22-1.83-1.84l-.79-.77c-.66-.65-1.36-1.31-2.05-2l-.65-.58c-.63-.58-1.26-1.15-1.89-1.7l-.83-.71-1.68-1.4-.82-.67c-.68-.54-1.43-1.12-2.13-1.64l-.49-.36c-.72-.52-1.42-1-2.11-1.47l-.8-.53c-.52-.34-1.09-.7-1.63-1l-.77-.46c-.72-.42-1.37-.77-2-1.1l-.49-.26c-.77-.39-1.54-.74-2.29-1.05l-.56-.23c-.71-.28-1.29-.49-1.86-.68l-.85-.27c-.52-.15-1.12-.31-1.74-.45l-.49-.12c-.42-.08-.73-.12-1-.16l-.5-.06c-4.29,0-7.42.68-9.83,2-.33.19-.67.41-1,.62-3.52,2.45-4.78,6.2-6.56,12.1-2.35,7.82-5.57,18.53-18.43,31.24-7.53,7.45-15.68,12.78-24.22,15.86a50.77,50.77,0,0,1-39.75-2c-2.87-1.51-7.56-5.6-13.63-16.47-.69-1.24-1.34-2.46-1.92-3.61l-.15-.26c-6-10-15.47-10.17-22.35-8.55-14.3,3.63-34.61,31.49-48.33,57.48-9.35,17.84-15.67,33.23-16.84,36.13a300.72,300.72,0,0,0-12.09,40.82c-1.22,5.62-2.24,11.22-3,16.63-.74,5.13-1.3,10.25-1.65,15.23l0,.83c-.11,1.64-.19,3.18-.24,4.7,0,1.35-.1,2.69-.11,3.89v.31c-.06,4.44.08,8.69.4,12.66.14,1.69.33,3.45.59,5.4a79.12,79.12,0,0,0,2.47,12l.18.49c.23.51.45,1,.68,1.44a18.61,18.61,0,0,0,3.41,4.77c.32.32.62.58.9.82a14.18,14.18,0,0,0,1.78,1.26,12.85,12.85,0,0,0,1.71.82,10.25,10.25,0,0,0,1.36.43,8.27,8.27,0,0,0,2,.26l1.68,0c.26,0,.55,0,.83,0l1.23-.14,1.16-.15,1.06-.21.33-.07.93-.19,8.55-2.78,7.7-3.51,11.2-6.22,3.07-1.94c1-.73,2.12-1.49,3.48-2.37.77-.5,1.56-1,2.37-1.49,1.43-.86,2.8-1.62,4.37-2.44l.9-.44c1.19-.61,2.44-1.21,3.74-1.79l.48-.22a98.68,98.68,0,0,1,9.28-3.54l.78-.27L189,345c.49-.15,1-.29,1.53-.43l.93-.26c1.36-.38,2.76-.76,4.11-1.1s2.43-.59,3.62-.85l1.48-.31,2.19-.4,4.6-.74c1-.16,2-.31,3.05-.42l2.24-.23c.94-.1,1.87-.2,2.8-.27.4,0,.83-.06,1.25-.08l1.26-.08c1-.06,1.77-.11,2.53-.14l3-.08,1.59,0h.9Z" fill="#1b6a36"/><path d="M429.31,425.79c3.92-6.06,18.62-31,21.65-67.46.3-4.81.46-9.71.42-14.6,0-5.39-.28-10.93-.73-16.49-.35-4.3-.82-8.73-1.42-13.17-.53-3.86-1.15-7.77-1.85-11.64-1.43-7.87-3.26-15.91-5.45-23.92-.61-2.26-1.25-4.47-1.91-6.68l-.52-1.69c-.48-1.61-1-3.19-1.48-4.75l-.59-1.8c-.49-1.51-1-3-1.49-4.45l-3.44-9.48c-.36-.94-.71-1.85-1.05-2.71l-.19-.5c-.62-1.56-1.23-3.1-1.83-4.55l-.85-2c-.4-.94-.79-1.89-1.19-2.81l-1-2.24c-.51-1.15-1-2.25-1.48-3.3l-1.1-2.39c-5.21-11.21-9.25-18.13-9.95-19.3-1.37-2.51-2.73-4.91-4.09-7.3l-.46-.79c-5.38-9.33-10.65-17.61-15.67-24.63-.57-.84-1.16-1.69-1.78-2.59l-2.57-3.65-1.67-2.32-.35-.49-1.79-2.44-.83-1.11-1.58-2.1-.74-1-1.58-2.05-.65-.84L378,155.9l-.17-.21-.19-.23-.14-.17c-.64-.8-1.29-1.59-2-2.39l-.74-.9c-.55-.65-1.1-1.31-1.65-1.95l-.77-.91c-.71-.81-1.41-1.62-2.16-2.46l-.37-.41c-.76-.86-1.53-1.71-2.29-2.52l-.72-.77-1.76-1.86-.86-.88-1.91-1.92-.81-.79c-.73-.71-1.46-1.41-2.2-2.09l-.71-.65-2-1.8-.86-.73c-.62-.53-1.23-1-1.85-1.55l-.8-.65c-.82-.65-1.64-1.29-2.41-1.86l-.54-.39c-.79-.58-1.57-1.12-2.33-1.64l-.87-.56c-.64-.42-1.29-.83-1.9-1.2l-.93-.55c-.75-.43-1.51-.84-2.25-1.23l-.58-.31c-.94-.46-1.87-.89-2.76-1.26-.23-.1-.45-.19-.78-.31-.73-.29-1.45-.55-2.15-.79l-1-.32c-.74-.22-1.48-.41-2.26-.59-.27-.07-.55-.13-.78-.17-.47-.1-.93-.17-1.4-.23l-.91-.13h-.66c-5.58,0-9.81,1-13.34,2.91l-.2.11c-.44.26-.87.54-1.3.81l-.21.14c-5.77,4-7.6,10.13-9.37,16-2.24,7.46-5,16.73-16.54,28.1-6.77,6.69-14,11.45-21.53,14.16a43.11,43.11,0,0,1-33.78-1.6c-1-.54-4.78-3.09-10.6-13.52-.65-1.17-1.26-2.3-1.8-3.36l-.28-.52c-6.46-10.76-17.53-15.2-30.51-12.15-22.94,5.81-48.33,52-53.2,61.24-9.52,18.17-16,33.86-17.16,36.82l-.08.22A309.21,309.21,0,0,0,106.3,289.7c-1.26,5.81-2.31,11.58-3.12,17.15-.77,5.31-1.34,10.58-1.71,15.77l0,.93c-.11,1.64-.19,3.25-.26,4.84,0,1.42-.09,2.82-.11,4.09v.33c-.06,4.65.09,9.13.43,13.32.15,1.81.35,3.7.63,5.78a85.92,85.92,0,0,0,2.78,13.33l.33.89c.32.75.65,1.45,1,2.1a25.85,25.85,0,0,0,4.8,6.65c.46.46.93.88,1.37,1.25a20.8,20.8,0,0,0,2.77,1.95,20.32,20.32,0,0,0,2.69,1.31,19.51,19.51,0,0,0,2.4.76,16.11,16.11,0,0,0,3.67.46h0l1,0,1,0q.61,0,1.2-.06l.56-.06,1-.13.21,0,1.17-.17c.46-.07.92-.16,1.38-.26l.3-.06,1.17-.25.43-.1,4.28-1.23,1-.33,1.87-.68.9-.33,1.08-.44,4.38-1.88h0l.82-.39,3.18-1.54,11.56-6.42L165.9,364c1-.71,2-1.43,3.32-2.28.72-.46,1.44-.92,2.18-1.36l.14-.09c1.17-.7,2.41-1.39,3.84-2.13l.77-.39c1.14-.57,2.28-1.13,3.47-1.66l.41-.18c2.75-1.21,5.65-2.32,8.62-3.3l.88-.3.7-.23c.42-.13.84-.25,1.27-.36l1-.28c1.33-.38,2.66-.74,3.94-1.06s2.26-.55,3.39-.79h.5l.82-.28c.8-.16,1.6-.29,2.4-.44l3.77-.61c1-.15,2.07-.31,3.11-.43l.78-.08.95-.09c1-.11,2-.22,3-.3l1.06-.07,1.33-.08c.79-.05,1.58-.1,2.36-.13l1.32,0,1.54,0c.48,0,.95,0,1.45,0h.84c.89,0,1.78,0,2.67,0l1.17,0c1.43,0,2.86.1,4.31.19l1,.08c1.06.08,2.13.15,3.18.25l1.54.16,2.72.31,1.63.21,2.59.37,1.63.26c.88.14,1.75.29,2.63.45l1.54.28c.94.18,1.87.38,2.8.57l1.27.27c1.32.28,2.63.59,4,.93s2.69.68,4,1l1.15.33,2.81.8,1.4.43c.83.25,1.67.51,2.47.77l1.46.47,2.41.81,1.41.5c.83.29,1.64.58,2.47.89l1.25.46,2.76,1.06.86.34c1.22.48,2.42,1,3.73,1.52l.24.11c1.05.44,2.08.89,3.14,1.35l1,.47,2.3,1,1.25.58,2.1,1,4.39,2.17,2.11,1.09,1,.51,2.46,1.32.5.27c16.54,11.56,45,48.92,45,48.92h0a144.91,144.91,0,0,0,21.45,23.65,30,30,0,0,0,38.24.64,72.43,72.43,0,0,0,11.54-11.65,57.82,57.82,0,0,0,3.51-5l.11-.17.86-1.28" fill="#fff"/><path d="M331.36 180.52a.78.78 0 0 1 .24.72l-1.92 11.21a.81.81 0 0 0 1.18.86L340.93 188a.79.79 0 0 1 .76 0l10.07 5.29a.81.81 0 0 0 1.18-.86L351 181.24a.8.8 0 0 1 .23-.72l8.15-7.94a.83.83 0 0 0-.46-1.4l-11.25-1.63a.8.8 0 0 1-.61-.45l-5-10.19a.81.81 0 0 0-1.46 0l-5 10.19a.83.83 0 0 1-.61.45l-11.25 1.63a.82.82 0 0 0-.46 1.4l8.14 7.94ZM335 377l6-3.14a.79.79 0 0 1 .76 0l10.07 5.29a.81.81 0 0 0 1.18-.86L351 367.09a.81.81 0 0 1 .24-.72l8.14-7.94A.81.81 0 0 0 359 357l-11.26-1.64a.83.83 0 0 1-.61-.45l-5-10.19a.81.81 0 0 0-1.46 0l-5 10.19a.83.83 0 0 1-.62.45L323.68 357a.82.82 0 0 0-.46 1.39l8.15 7.94a.8.8 0 0 1 .23.72l-1.15 6.7 1.3.86c1.07.8 2.13 1.57 3.2 2.36" fill="#fff"/><path d="m331.75 374.65-1.3-.85 1.3.85c1.07.8 2.13 1.57 3.2 2.36-1.07-.79-2.13-1.56-3.2-2.36M331.75 374.65l-1.3-.86h0l1.3.85M335 377h0c-1.07-.79-2.13-1.56-3.2-2.36 1.07.8 2.13 1.57 3.2 2.36M273 242.29a.82.82 0 0 1 .23.73l-1.92 11.21a.82.82 0 0 0 1.19.86l10.06-5.29a.79.79 0 0 1 .76 0l10.07 5.29a.81.81 0 0 0 1.18-.86L292.62 243a.83.83 0 0 1 .24-.73l8.14-7.93a.82.82 0 0 0-.45-1.4l-11.26-1.63a.83.83 0 0 1-.61-.45l-5-10.2a.83.83 0 0 0-1.47 0l-5 10.2a.83.83 0 0 1-.62.45L265.28 233a.82.82 0 0 0-.46 1.4l8.15 7.93ZM417.06 235.07h0l-.42-.93-.64-1.37 1.06 2.3" fill="#fff"/><path d="m405.47 230.88-5-10.2a.83.83 0 0 0-1.47 0l-5 10.2a.83.83 0 0 1-.61.45L382.07 233a.82.82 0 0 0-.45 1.4l8.14 7.93a.83.83 0 0 1 .24.73l-1.92 11.21a.81.81 0 0 0 1.18.86l10.07-5.29a.79.79 0 0 1 .76 0l10.06 5.29a.82.82 0 0 0 1.19-.86L409.42 243a.82.82 0 0 1 .23-.73l7.41-7.22-1.06-2.3-9.91-1.44a.83.83 0 0 1-.62-.45M368.07 292.22a.82.82 0 0 1 .23.73l-.77 4.49a.82.82 0 0 0 1.19.86l4-2.12a.85.85 0 0 1 .76 0l4 2.12a.82.82 0 0 0 1.19-.86L378 293a.83.83 0 0 1 .24-.73l3.26-3.18a.82.82 0 0 0-.45-1.39L376.5 287a.79.79 0 0 1-.62-.44l-2-4.09a.81.81 0 0 0-1.46 0l-2 4.09a.79.79 0 0 1-.61.44l-4.51.66a.82.82 0 0 0-.46 1.39Z" fill="#fff"/><path d="M353.19,305.82h0q8,1.47,15.87,3.07c26.23,5.32,44,7.14,56,7.32,2.45,0,15.3-.59,13.8-12.25-1.47-8.08-3.28-15.84-5.28-23.18,9.84,41.54-80.41,25-80.41,25" fill="#fff"/><path d="M434.9,285.71q.84,3.32,1.62,6.74-.78-3.42-1.62-6.74" fill="#fff"/><path d="M177.48,315c-3.4.49-6.73,1-10,1.6,5.42-.72,8.48-1.23,10-1.6" fill="#1b6a36"/><path d="M433.6,280.79h0q-.9-3.3-1.85-6.46c-.17-.57-.35-1.12-.52-1.68q-.71-2.34-1.43-4.61c-.19-.59-.39-1.17-.58-1.75-.48-1.47-1-2.91-1.45-4.33l-.57-1.63c-.26-.72-.51-1.47-.76-2.18s-.47-1.24-.7-1.86l-.69-1.87c-.2-.55-.41-1.13-.62-1.68-.35-.91-.69-1.79-1-2.67-.06-.15-.12-.3-.17-.45-.6-1.52-1.2-3-1.79-4.45l-.21-.51-.44-1c-.44-1.06-.88-2.12-1.31-3.13l-.39-.9v0l-.56-1.29c-.49-1.11-1-2.18-1.45-3.23h0l-7.41,7.23a.79.79,0,0,0-.23.72l1.92,11.21a.82.82,0,0,1-1.19.86l-10.06-5.29a.79.79,0,0,0-.76,0l-10.07,5.29a.81.81,0,0,1-1.18-.86L390,243a.8.8,0,0,0-.24-.72l-8.14-7.94a.82.82,0,0,1,.45-1.4l11.26-1.63a.83.83,0,0,0,.61-.45l5-10.2a.83.83,0,0,1,1.47,0l5,10.2a.83.83,0,0,0,.62.45l9.91,1.44c-5.48-11.79-9.61-18.65-9.61-18.65-1.38-2.51-2.73-4.91-4.07-7.24h0a2.59,2.59,0,0,0-.15-.27c-.08-.13-.19-.33-.32-.56-5.38-9.33-10.45-17.27-15.23-24l-.05-.07-1.74-2.52-.59-.84c-.43-.62-.87-1.25-1.32-1.88-.21-.3-.43-.6-.64-.91l-1.54-2.14-.44-.6-2-2.7,0,0v0l-.54-.72c-.51-.68-1-1.37-1.54-2.05l-.71-.93-1.54-2-.63-.81c-.67-.86-1.35-1.71-2-2.57l-.13-.17L371,161c-.07-.1-.15-.19-.22-.28-.62-.77-1.25-1.53-1.88-2.3l-.73-.87c-.53-.63-1.06-1.27-1.6-1.9-.25-.28-.49-.57-.74-.86-.67-.78-1.34-1.55-2-2.31l-.07-.08-.21-.24-.12-.13c-.73-.82-1.46-1.62-2.2-2.41-.22-.25-.45-.49-.68-.73-.56-.6-1.13-1.2-1.69-1.78l-.8-.82c-.59-.61-1.18-1.2-1.78-1.79-.18-.17-.35-.35-.53-.53l-.07-.07-.05,0c-.76-.74-1.52-1.47-2.28-2.17,0,0,0,0,0,0l-.08-.07-.45-.41c-.62-.57-1.24-1.12-1.86-1.66l-.79-.68c-.57-.49-1.13-1-1.7-1.42l-.73-.6c-.76-.6-1.52-1.19-2.28-1.75l-.09-.07-.15-.11-.05,0c-.72-.53-1.45-1-2.17-1.52l-.73-.48q-.84-.54-1.68-1l-.76-.45c-.64-.37-1.27-.72-1.9-1l-.42-.23h-.06c-.75-.38-1.51-.73-2.26-1-.2-.09-.4-.16-.61-.24-.56-.23-1.12-.43-1.68-.62l-.75-.23c-.55-.17-1.1-.31-1.65-.44l-.61-.14c-.4-.08-.8-.12-1.2-.18-4.2,0-7.12.67-9.26,1.85-.31.18-.62.37-.92.57-8.34,5.83-3.11,21.76-24.78,43.18-8.37,8.27-16.76,13.29-24.68,16.14-18.06,6.5-33.63,1.65-40.72-2.08-5.34-2.8-10.47-10.38-14.14-17-.7-1.26-1.35-2.49-1.94-3.64h0c-5.6-9.32-14.13-9.83-21-8.22-20.37,5.16-47.67,56.87-47.67,56.87-9.32,17.79-15.62,33.13-16.79,36a299.82,299.82,0,0,0-12,40.62q-1.86,8.58-3,16.55c-.76,5.23-1.29,10.25-1.63,15,100.12-34.71,176-29.69,243.12-17.29h0s90.25,16.51,80.41-25M301,234.36l-8.14,7.94a.8.8,0,0,0-.24.72l1.92,11.21a.81.81,0,0,1-1.18.86l-10.07-5.29a.79.79,0,0,0-.76,0l-10.06,5.29a.82.82,0,0,1-1.19-.86L273.2,243a.82.82,0,0,0-.23-.73l-8.15-7.93a.82.82,0,0,1,.46-1.4l11.25-1.63a.83.83,0,0,0,.62-.45l5-10.2a.83.83,0,0,1,1.47,0l5,10.2a.83.83,0,0,0,.61.45L300.55,233a.82.82,0,0,1,.45,1.4m58.4-61.78-8.15,7.94a.8.8,0,0,0-.23.72l1.92,11.21a.82.82,0,0,1-1.19.86L341.69,188a.79.79,0,0,0-.76,0l-10.07,5.29a.81.81,0,0,1-1.18-.86l1.92-11.21a.81.81,0,0,0-.24-.72l-8.14-7.94a.82.82,0,0,1,.45-1.4l11.26-1.63a.83.83,0,0,0,.61-.45l5-10.2a.82.82,0,0,1,1.46,0l5,10.2a.83.83,0,0,0,.62.45l11.25,1.63a.83.83,0,0,1,.46,1.4m22.06,116.47-3.26,3.18a.8.8,0,0,0-.24.72l.77,4.49a.82.82,0,0,1-1.19.86l-4-2.12a.85.85,0,0,0-.76,0l-4,2.12a.82.82,0,0,1-1.19-.86l.77-4.49a.79.79,0,0,0-.23-.72l-3.27-3.18a.82.82,0,0,1,.46-1.4l4.51-.65a.83.83,0,0,0,.61-.45l2-4.09a.81.81,0,0,1,1.46,0l2,4.09a.83.83,0,0,0,.62.45l4.51.65a.82.82,0,0,1,.45,1.4" fill="#1b6a36"/><path d="M414.26 386.84c-3.43-3-6.41-5.43-8.55-7.1-1.14-.83-2.29-1.69-3.49-2.62-56-44-115.78-60.66-167.63-64.79A295.17 295.17 0 0 0 177.48 315c-1.49.37-4.56.88-10 1.6h-.08a125.34 125.34 0 0 0-18.88 4c-14.41 4.23-22.73 9.59-23.47 10.08-7.18 4.8-14 11.56-14.4 20.14a76.13 76.13 0 0 0 2.48 12c.24.55.48 1.07.73 1.55a17.39 17.39 0 0 0 3.19 4.47c.28.27.55.52.83.75a11.42 11.42 0 0 0 1.6 1.12 11.18 11.18 0 0 0 1.48.73 9.54 9.54 0 0 0 1.27.4 8.12 8.12 0 0 0 1.59.22H124l.69 0 .69 0c.34 0 .67 0 1-.05h0l.29 0 .88-.11c.35 0 .7-.08 1.06-.14l1.22-.24c.37-.07.73-.14 1.1-.23l.78-.2.48-.12h0l1.12-.3h0l1.3-.41h0l1.14-.37h0l.74-.27.6-.21 1.14-.42 1.37-.56 1.12-.46h0l1.35-.59h0l1.12-.5h0l.16-.08 1.23-.57 1.07-.52h0l1.37-.68 1-.53h0l1.31-.69.05 0 1-.52h0l1.25-.69.08 0 1-.52h0l1.21-.69.12-.07.84-.48 1.38-.82.68-.4h0l1.09-.66.32-.2.51-.31h0l.88-.55.59-.36.29-.18c1.22-.91 2.48-1.75 3.75-2.57.8-.52 1.61-1 2.42-1.52l.16-.11h0c1.4-.84 2.82-1.62 4.26-2.37l.88-.44c1.26-.63 2.53-1.25 3.81-1.82l.47-.21q4.62-2 9.43-3.61c.58-.19 1.14-.4 1.73-.58.82-.26 1.64-.46 2.47-.7 1.41-.4 2.82-.77 4.23-1.13s3-.73 4.54-1h0c1.18-.24 2.35-.44 3.53-.65l1.58-.29.22 0 1.46-.21c1.23-.18 2.45-.36 3.67-.51.56-.07 1.13-.11 1.69-.17 1.14-.12 2.29-.24 3.42-.34l2-.12c1-.07 2-.14 3.06-.18.73 0 1.45 0 2.17-.05h0c.8 0 1.6-.06 2.39-.06h.93c1 0 2 0 3.08 0l1 0c1.53 0 3 .11 4.57.21l1.14.08 3.39.27 1.62.17c1 .1 1.92.2 2.88.32l1.73.22 2.74.4c.58.08 1.16.17 1.73.27q1.4.22 2.76.48l1.62.29 3 .61 1.33.28c1.39.3 2.77.62 4.14 1l.11 0c1.41.35 2.82.71 4.22 1.09l1.18.33 2.95.84 1.45.45c.88.26 1.76.54 2.62.81l1.51.5c.85.28 1.7.56 2.53.85.49.17 1 .33 1.46.51.87.3 1.72.61 2.57.92l1.32.49 2.9 1.12.88.34c1.27.51 2.52 1 3.76 1.54l.36.15c1.1.46 2.18.93 3.25 1.4l1.11.5 2.42 1.1 1.25.58 2.2 1.05c.43.2.85.4 1.26.61l2.13 1.05 1.19.6 2.17 1.12 1 .53 2.57 1.37.5.27 3 1.65.75.43 2.1 1.2 1 .58 1.76 1 1 .62 1.59 1 1 .62 1.53 1 .9.57 1.59 1 .7.46.86.56 1.15-6.7a.81.81 0 0 0-.23-.72l-8.15-7.94a.82.82 0 0 1 .46-1.39l11.25-1.64a.83.83 0 0 0 .62-.45l5-10.19a.81.81 0 0 1 1.46 0l5 10.19a.83.83 0 0 0 .61.45L359 357a.81.81 0 0 1 .45 1.39l-8.14 7.94a.82.82 0 0 0-.24.72l1.92 11.21a.81.81 0 0 1-1.18.86l-10.07-5.29a.79.79 0 0 0-.76 0L335 377c3.71 2.73 7.39 5.44 11 8h0q2.2 1.59 4.39 3.13l1.38 1 3 2.08 1.64 1.14 2.64 1.8 1.76 1.19 2.47 1.64 1.79 1.17 2.4 1.55c.59.37 1.18.75 1.77 1.11l2.38 1.47c.56.35 1.13.69 1.7 1l2.4 1.41 1.6.92 2.57 1.42c.45.24.9.5 1.35.73 1.15.61 2.28 1.19 3.41 1.75.14.07.28.15.42.21 1.26.62 2.51 1.2 3.74 1.75l1.12.47c.84.37 1.69.72 2.52 1.05l1.37.51c.73.28 1.46.55 2.18.79l1.43.45q1 .33 2 .6c.48.14 1 .25 1.42.37.66.16 1.3.3 1.94.43.47.1.94.18 1.4.26.63.11 1.26.19 1.88.27l1.33.15c.63.05 1.25.07 1.86.09l1.29 0 1.06-.05c.27 0 .53 0 .8-.06l.81-.05c.36 0 .71-.1 1.07-.15s1-.17 1.51-.28.69-.15 1-.24h0c.49-.13 1-.28 1.46-.45l1-.34c.49-.19 1-.42 1.44-.64.3-.14.59-.27.88-.43.45-.24.88-.51 1.32-.79l.23-.14h0c.22-.14.45-.26.67-.42h0a22.76 22.76 0 0 0 2.11-1.65h0l.15-.15h0c.62-.56 1.23-1.16 1.82-1.81h0c.17-.19.34-.41.51-.6-1.42-9.95-11.48-19.54-14.13-21.91M440.55 374.68c-.12.77-.23 1.53-.36 2.3.13-.77.24-1.53.36-2.3M441.46 368.12l.18-1.74c-.11 1.06-.25 2.12-.38 3.19.06-.49.14-1 .2-1.45M442.24 359.63c.18-2.46.3-4.9.38-7.33-.08 2.43-.2 4.87-.38 7.33M441.26 369.57c-.22 1.7-.45 3.4-.71 5.11.26-1.71.49-3.41.71-5.11M441.88 364.1c.12-1.23.21-2.47.3-3.7-.12 1.66-.27 3.33-.44 5 .05-.43.1-.86.14-1.3M441.74 365.4c0 .33-.07.65-.1 1 0-.33.07-.65.1-1M442.24 359.76a.53.53 0 0 1 0-.13c0 .25-.05.51-.07.77l.06-.64M428.51 408.61c.42-.5.84-1 1.24-1.54h0c-.4.54-.82 1.05-1.25 1.54h0" fill="#1b6a36"/><path d="M357.72,410.38c.36.51.7,1,1,1.57a137,137,0,0,0,22,24.82,21.32,21.32,0,0,0,27.12.44A63,63,0,0,0,418,427a50.75,50.75,0,0,0,3.18-4.59l1.47-2.17c1.5-2.22,3.62-5.33,3.62-5.33a38.58,38.58,0,0,1-19.71,7.73c-23.62,2.69-48.85-12.22-48.85-12.22" fill="#1b6a36"/><path d="M440.66,315.23q-.77-5.72-1.78-11.26c1.5,11.66-11.35,12.24-13.8,12.25-12-.18-29.76-2-56-7.32q-7.86-1.59-15.87-3.07c-67.17-12.4-143-17.42-243.12,17.3h0a2.64,2.64,0,0,0,0,.29c0,.24,0,.46,0,.7h0a369.25,369.25,0,0,1,124.55-11.79c51.85,4.13,111.62,20.82,167.63,64.79,1.2.93,2.35,1.79,3.49,2.62,2.14,1.67,5.13,4.08,8.55,7.1,2.65,2.37,12.71,12,14.13,21.91h0a1.71,1.71,0,0,0,.11-.14c.43-.49.85-1,1.25-1.54.24-.32.46-.66.69-1,.36-.53.72-1.07,1.07-1.64l.06-.08c.21-.35.41-.71.61-1.08.33-.58.65-1.17,1-1.79.21-.43.43-.87.63-1.31.31-.65.6-1.33.89-2,.2-.47.39-.94.58-1.43.29-.74.56-1.52.83-2.3.17-.5.34-1,.5-1.49.28-.89.55-1.84.81-2.79.07-.23.14-.45.2-.68s.13-.45.19-.68.15-.66.23-1c.28-1.15.57-2.31.83-3.54a183.77,183.77,0,0,0,3.4-24.52c.38-5.37.54-10.7.5-16s-.29-10.66-.7-15.86q-.53-6.45-1.38-12.71" fill="#fed500"/><path d="M110,324.12c-.1,1.55-.18,3.09-.24,4.6,0,1.34-.09,2.68-.11,4v.21c0,4.43.08,8.61.4,12.51.15,1.86.36,3.62.59,5.35.44-8.58,7.22-15.34,14.4-20.14l.24-.15c1.61-1,9.76-6,23.23-9.93a125.34,125.34,0,0,1,18.88-4h.08c3.24-.58,6.57-1.11,10-1.6a295.17,295.17,0,0,1,57.11-2.63A369.25,369.25,0,0,0,110,324.12" fill="#fff"/><g clip-path="url(#a)"><path fill="#005c26" d="M364.32 281.85H367.05V298.61H364.32z"/><path fill="#005b26" d="M367.05 281.85H370.11V298.61H367.05z"/><path fill="#005b25" d="M370.11 281.85H373.17V298.61H370.11z"/><path fill="#005a25" d="M373.17 281.85H376.23V298.61H373.17z"/><path fill="#005a24" d="M376.23 281.85H379.29V298.61H376.23z"/><path fill="#005924" d="M379.29 281.85H381.95V298.61H379.29z"/><path fill="#00612b" d="M322.74 158.3H324.23V193.63H322.74zM324.23 158.3H327.29V193.63H324.23z"/><path fill="#00602b" d="M327.29 158.3H330.35V193.63H327.29z"/><path fill="#00602a" d="M330.34 158.3H333.4V193.63H330.34zM333.4 158.3H336.46V193.63H333.4z"/><path fill="#005f2a" d="M336.46 158.3H339.52V193.63H336.46z"/><path fill="#005f29" d="M339.52 158.3H342.58V193.63H339.52z"/><path fill="#005e29" d="M342.58 158.3H345.64V193.63H342.58zM345.64 158.3H348.7V193.63H345.64z"/><path fill="#005e28" d="M348.7 158.3H351.76V193.63H348.7z"/><path fill="#005d28" d="M351.76 158.3H354.82V193.63H351.76z"/><path fill="#005d27" d="M354.82 158.3H357.88V193.63H354.82z"/><path fill="#005c27" d="M357.88 158.3H359.89V193.63H357.88z"/><path fill="#0f6630" d="M264.34 220.08H266.11V255.41H264.34z"/><path fill="#0e6530" d="M266.11 220.08H269.17V255.41H266.11zM269.17 220.08H272.23V255.41H269.17z"/><path fill="#0d6530" d="M272.22 220.08H275.28V255.41H272.22z"/><path fill="#0c6530" d="M275.28 220.08H278.34V255.41H275.28z"/><path fill="#0b652f" d="M278.34 220.08H281.4V255.41H278.34z"/><path fill="#0a642f" d="M281.4 220.08H284.46V255.41H281.4zM284.46 220.08H287.52V255.41H284.46z"/><path fill="#09642f" d="M287.52 220.08H290.58V255.41H287.52z"/><path fill="#08642e" d="M290.58 220.08H293.64V255.41H290.58z"/><path fill="#07632e" d="M293.64 220.08H296.7V255.41H293.64z"/><path fill="#06632e" d="M296.7 220.08H299.76V255.41H296.7z"/><path fill="#05632e" d="M299.76 220.08H301.49V255.41H299.76z"/><path fill="#1b6a36" d="M110.1 127.17H113.16V323.13H110.1zM113.16 127.17H116.22V323.13H113.16zM116.22 127.17H119.28V323.13H116.22zM119.28 127.17H122.34V323.13H119.28zM122.34 127.17H125.4V323.13H122.34z"/><path fill="#1b6a35" d="M125.4 127.17H128.46V323.13H125.4z"/><path fill="#1b6a35" d="M128.45 127.17H131.51V323.13H128.45zM131.51 127.17H134.57V323.13H131.51zM134.57 127.17H137.63V323.13H134.57zM137.63 127.17H140.69V323.13H137.63zM140.69 127.17H143.75V323.13H140.69zM143.75 127.17H146.81V323.13H143.75z"/><path fill="#1a6a35" d="M146.81 127.17H149.87V323.13H146.81z"/><path fill="#1a6935" d="M149.87 127.17H152.93V323.13H149.87zM152.93 127.17H155.99V323.13H152.93zM155.99 127.17H159.05V323.13H155.99z"/><path fill="#1a6935" d="M159.04 127.17H162.1V323.13H159.04zM162.1 127.17H165.16V323.13H162.1zM165.16 127.17H168.22V323.13H165.16zM168.22 127.17H171.28V323.13H168.22z"/><path fill="#196935" d="M171.28 127.17H174.34V323.13H171.28zM174.34 127.17H177.4V323.13H174.34zM177.4 127.17H180.46V323.13H177.4zM180.46 127.17H183.52V323.13H180.46zM183.52 127.17H186.58V323.13H183.52z"/><path fill="#186934" d="M186.57 127.17H189.63V323.13H186.57zM189.63 127.17H192.69V323.13H189.63zM192.69 127.17H195.75V323.13H192.69zM195.75 127.17H198.81V323.13H195.75z"/><path fill="#176934" d="M198.81 127.17H201.87V323.13H198.81z"/><path fill="#176834" d="M201.87 127.17H204.93V323.13H201.87zM204.93 127.17H207.99V323.13H204.93zM207.99 127.17H211.05V323.13H207.99z"/><path fill="#166834" d="M211.05 127.17H214.11V323.13H211.05z"/><path fill="#166833" d="M214.11 127.17H217.17V323.13H214.11z"/><path fill="#166833" d="M217.16 127.17H220.22V323.13H217.16z"/><path fill="#156833" d="M220.22 127.17H223.28V323.13H220.22zM223.28 127.17H226.34V323.13H223.28zM226.34 127.17H229.4V323.13H226.34z"/><path fill="#146832" d="M229.4 127.17H232.46V323.13H229.4z"/><path fill="#146732" d="M232.46 127.17H235.52V323.13H232.46z"/><path fill="#136732" d="M235.52 127.17H238.58V323.13H235.52zM238.58 127.17H241.64V323.13H238.58zM241.64 127.17H244.7V323.13H241.64z"/><path fill="#126732" d="M244.69 127.17H247.75V323.13H244.69z"/><path fill="#126731" d="M247.75 127.17H250.81V323.13H247.75z"/><path fill="#116631" d="M250.81 127.17H253.87V323.13H250.81zM253.87 127.17H256.93V323.13H253.87z"/><path fill="#106631" d="M256.93 127.17H259.99V323.13H256.93zM259.99 127.17H263.05V323.13H259.99z"/><path fill="#0f6630" d="M263.05 127.17H266.11V323.13H263.05z"/><path fill="#0e6530" d="M266.11 127.17H269.17V323.13H266.11zM269.17 127.17H272.23V323.13H269.17z"/><path fill="#0d6530" d="M272.22 127.17H275.28V323.13H272.22z"/><path fill="#0c6530" d="M275.28 127.17H278.34V323.13H275.28z"/><path fill="#0b652f" d="M278.34 127.17H281.4V323.13H278.34z"/><path fill="#0a642f" d="M281.4 127.17H284.46V323.13H281.4zM284.46 127.17H287.52V323.13H284.46z"/><path fill="#09642f" d="M287.52 127.17H290.58V323.13H287.52z"/><path fill="#08642e" d="M290.58 127.17H293.64V323.13H290.58z"/><path fill="#07632e" d="M293.64 127.17H296.7V323.13H293.64z"/><path fill="#06632e" d="M296.7 127.17H299.76V323.13H296.7z"/><path fill="#05632e" d="M299.76 127.17H302.82V323.13H299.76z"/><path fill="#05632d" d="M302.81 127.17H305.87V323.13H302.81z"/><path fill="#04622d" d="M305.87 127.17H308.93V323.13H305.87z"/><path fill="#03622d" d="M308.93 127.17H311.99V323.13H308.93z"/><path fill="#02622c" d="M311.99 127.17H315.05V323.13H311.99z"/><path fill="#01612c" d="M315.05 127.17H318.11V323.13H315.05z"/><path fill="#00612c" d="M318.11 127.17H321.17V323.13H318.11z"/><path fill="#00612b" d="M321.17 127.17H324.23V323.13H321.17zM324.23 127.17H327.29V323.13H324.23z"/><path fill="#00602b" d="M327.29 127.17H330.35V323.13H327.29z"/><path fill="#00602a" d="M330.34 127.17H333.4V323.13H330.34zM333.4 127.17H336.46V323.13H333.4z"/><path fill="#005f2a" d="M336.46 127.17H339.52V323.13H336.46z"/><path fill="#005f29" d="M339.52 127.17H342.58V323.13H339.52z"/><path fill="#005e29" d="M342.58 127.17H345.64V323.13H342.58zM345.64 127.17H348.7V323.13H345.64z"/><path fill="#005e28" d="M348.7 127.17H351.76V323.13H348.7z"/><path fill="#005d28" d="M351.76 127.17H354.82V323.13H351.76z"/><path fill="#005d27" d="M354.82 127.17H357.88V323.13H354.82z"/><path fill="#005c27" d="M357.88 127.17H360.94V323.13H357.88z"/><path fill="#005c27" d="M360.93 127.17H363.99V323.13H360.93z"/><path fill="#005c26" d="M363.99 127.17H367.05V323.13H363.99z"/><path fill="#005b26" d="M367.05 127.17H370.11V323.13H367.05z"/><path fill="#005b25" d="M370.11 127.17H373.17V323.13H370.11z"/><path fill="#005a25" d="M373.17 127.17H376.23V323.13H373.17z"/><path fill="#005a24" d="M376.23 127.17H379.29V323.13H376.23z"/><path fill="#005924" d="M379.29 127.17H382.35V323.13H379.29z"/><path fill="#005823" d="M382.35 127.17H385.41V323.13H382.35zM385.41 127.17H388.47V323.13H385.41z"/><path fill="#005722" d="M388.46 127.17H391.52V323.13H388.46zM391.52 127.17H394.58V323.13H391.52z"/><path fill="#005621" d="M394.58 127.17H397.64V323.13H394.58zM397.64 127.17H400.7V323.13H397.64z"/><path fill="#005520" d="M400.7 127.17H403.76V323.13H400.7zM403.76 127.17H406.82V323.13H403.76z"/><path fill="#00541f" d="M406.82 127.17H409.88V323.13H406.82z"/><path fill="#00531e" d="M409.88 127.17H412.94V323.13H409.88zM412.94 127.17H416V323.13H412.94z"/><path fill="#00521d" d="M416 127.17H419.06V323.13H416z"/><path fill="#00511d" d="M419.05 127.17H422.11V323.13H419.05z"/><path fill="#00511c" d="M422.11 127.17H425.17V323.13H422.11z"/><path fill="#00501b" d="M425.17 127.17H428.23V323.13H425.17z"/><path fill="#004f1a" d="M428.23 127.17H431.29V323.13H428.23z"/><path fill="#004e1a" d="M431.29 127.17H434.35V323.13H431.29zM434.35 127.17H443.44V323.13H434.35z"/></g><g clip-path="url(#b)"><path fill="#1b6a36" d="M110.68 311.26H113.68V417H110.68zM113.68 311.26H116.68V417H113.68z"/><path fill="#1b6a36" d="M116.67 311.26H119.67V417H116.67zM119.67 311.26H122.67V417H119.67zM122.67 311.26H125.67V417H122.67z"/><path fill="#1b6a35" d="M125.66 311.26H128.66V417H125.66zM128.66 311.26H131.66V417H128.66zM131.66 311.26H134.66V417H131.66zM134.66 311.26H137.66V417H134.66z"/><path fill="#1b6a35" d="M137.65 311.26H140.65V417H137.65zM140.65 311.26H143.65V417H140.65zM143.65 311.26H146.65V417H143.65z"/><path fill="#1a6a35" d="M146.65 311.26H149.65V417H146.65z"/><path fill="#1a6935" d="M149.64 311.26H152.64V417H149.64zM152.64 311.26H155.64V417H152.64zM155.64 311.26H158.64V417H155.64z"/><path fill="#1a6935" d="M158.63 311.26H161.63V417H158.63zM161.63 311.26H164.63V417H161.63zM164.63 311.26H167.63V417H164.63zM167.63 311.26H170.63V417H167.63z"/><path fill="#196935" d="M170.62 311.26H173.62V417H170.62zM173.62 311.26H176.62V417H173.62zM176.62 311.26H179.62V417H176.62zM179.62 311.26H182.62V417H179.62z"/><path fill="#196935" d="M182.61 311.26H185.61V417H182.61z"/><path fill="#186934" d="M185.61 311.26H188.61V417H185.61zM188.61 311.26H191.61V417H188.61z"/><path fill="#186934" d="M191.6 311.26H194.6V417H191.6zM194.6 311.26H197.6V417H194.6z"/><path fill="#176934" d="M197.6 311.26H200.6V417H197.6z"/><path fill="#176834" d="M200.6 311.26H203.6V417H200.6z"/><path fill="#176834" d="M203.59 311.26H206.59V417H203.59zM206.59 311.26H209.59V417H206.59z"/><path fill="#166834" d="M209.59 311.26H212.59V417H209.59z"/><path fill="#166833" d="M212.59 311.26H215.59V417H212.59z"/><path fill="#166833" d="M215.58 311.26H218.58V417H215.58z"/><path fill="#156833" d="M218.58 311.26H221.58V417H218.58zM221.58 311.26H224.58V417H221.58z"/><path fill="#156833" d="M224.57 311.26H227.57V417H224.57z"/><path fill="#146832" d="M227.57 311.26H230.57V417H227.57z"/><path fill="#146732" d="M230.57 311.26H233.57V417H230.57z"/><path fill="#136732" d="M233.57 311.26H236.57V417H233.57z"/><path fill="#136732" d="M236.56 311.26H239.56V417H236.56zM239.56 311.26H242.56V417H239.56z"/><path fill="#126732" d="M242.56 311.26H245.56V417H242.56z"/><path fill="#126731" d="M245.56 311.26H248.56V417H245.56z"/><path fill="#116631" d="M248.55 311.26H251.55V417H248.55zM251.55 311.26H254.55V417H251.55z"/><path fill="#106631" d="M254.55 311.26H257.55V417H254.55z"/><path fill="#106631" d="M257.54 311.26H260.54V417H257.54z"/><path fill="#0f6630" d="M260.54 311.26H263.54V417H260.54z"/><path fill="#0e6530" d="M263.54 311.26H266.54V417H263.54zM266.54 311.26H269.54V417H266.54z"/><path fill="#0d6530" d="M269.53 311.26H272.53V417H269.53z"/><path fill="#0c6530" d="M272.53 311.26H275.53V417H272.53z"/><path fill="#0b652f" d="M275.53 311.26H278.53V417H275.53z"/><path fill="#0a642f" d="M278.53 311.26H281.53V417H278.53z"/><path fill="#0a642f" d="M281.52 311.26H284.52V417H281.52z"/><path fill="#09642f" d="M284.52 311.26H287.52V417H284.52z"/><path fill="#08642e" d="M287.52 311.26H290.52V417H287.52z"/><path fill="#07632e" d="M290.51 311.26H293.51V417H290.51z"/><path fill="#06632e" d="M293.51 311.26H296.51V417H293.51z"/><path fill="#05632e" d="M296.51 311.26H299.51V417H296.51z"/><path fill="#05632d" d="M299.51 311.26H302.51V417H299.51z"/><path fill="#04622d" d="M302.5 311.26H305.5V417H302.5z"/><path fill="#03622d" d="M305.5 311.26H308.5V417H305.5z"/><path fill="#02622c" d="M308.5 311.26H311.5V417H308.5z"/><path fill="#01612c" d="M311.5 311.26H314.5V417H311.5z"/><path fill="#00612c" d="M314.49 311.26H317.49V417H314.49z"/><path fill="#00612b" d="M317.49 311.26H320.49V417H317.49zM320.49 311.26H323.49V417H320.49z"/><path fill="#00602b" d="M323.48 311.26H326.48V417H323.48z"/><path fill="#00602a" d="M326.48 311.26H329.48V417H326.48zM329.48 311.26H332.48V417H329.48z"/><path fill="#005f2a" d="M332.48 311.26H335.48V417H332.48z"/><path fill="#005f29" d="M335.47 311.26H338.47V417H335.47z"/><path fill="#005e29" d="M338.47 311.26H341.47V417H338.47zM341.47 311.26H344.47V417H341.47z"/><path fill="#005e28" d="M344.47 311.26H347.47V417H344.47z"/><path fill="#005d28" d="M347.46 311.26H350.46V417H347.46z"/><path fill="#005d27" d="M350.46 311.26H353.46V417H350.46z"/><path fill="#005c27" d="M353.46 311.26H356.46V417H353.46z"/><path fill="#005c27" d="M356.45 311.26H359.45V417H356.45z"/><path fill="#005c26" d="M359.45 311.26H362.45V417H359.45z"/><path fill="#005b26" d="M362.45 311.26H365.45V417H362.45z"/><path fill="#005b25" d="M365.45 311.26H368.45V417H365.45z"/><path fill="#005a25" d="M368.44 311.26H371.44V417H368.44z"/><path fill="#005a24" d="M371.44 311.26H374.44V417H371.44z"/><path fill="#005924" d="M374.44 311.26H377.44V417H374.44z"/><path fill="#005823" d="M377.44 311.26H380.44V417H377.44z"/><path fill="#005823" d="M380.43 311.26H383.43V417H380.43z"/><path fill="#005722" d="M383.43 311.26H386.43V417H383.43zM386.43 311.26H389.43V417H386.43z"/><path fill="#005621" d="M389.42 311.26H392.42V417H389.42zM392.42 311.26H395.42V417H392.42z"/><path fill="#005520" d="M395.42 311.26H398.42V417H395.42zM398.42 311.26H401.42V417H398.42z"/><path fill="#00541f" d="M401.41 311.26H404.41V417H401.41z"/><path fill="#00531e" d="M404.41 311.26H407.41V417H404.41zM407.41 311.26H410.41V417H407.41z"/><path fill="#00521d" d="M410.41 311.26H413.41V417H410.41z"/><path fill="#00511d" d="M413.4 311.26H416.4V417H413.4z"/><path fill="#00511c" d="M416.4 311.26H419.4V417H416.4z"/><path fill="#00501b" d="M419.4 311.26H422.4V417H419.4z"/><path fill="#004f1a" d="M422.39 311.26H425.39V417H422.39z"/><path fill="#004e1a" d="M425.39 311.26H428.39V417H425.39z"/></g><g clip-path="url(#c)"><path fill="#1b6a36" d="M357.72 410.38H358.37V443.58H357.72z"/><path fill="#1b6a36" d="M358.36 410.38H359.01V443.58H358.36zM359.01 410.38H359.66V443.58H359.01zM359.66 410.38H360.31V443.58H359.66zM360.31 410.38H360.96V443.58H360.31z"/><path fill="#1b6a35" d="M360.95 410.38H361.6V443.58H360.95zM361.6 410.38H362.25V443.58H361.6zM362.25 410.38H362.9V443.58H362.25z"/><path fill="#1b6a35" d="M362.89 410.38H363.54V443.58H362.89zM363.54 410.38H364.19V443.58H363.54zM364.19 410.38H364.84V443.58H364.19z"/><path fill="#1b6a35" d="M364.83 410.38H365.48V443.58H364.83z"/><path fill="#1a6a35" d="M365.48 410.38H366.13V443.58H365.48z"/><path fill="#1a6935" d="M366.13 410.38H366.78V443.58H366.13z"/><path fill="#1a6935" d="M366.77 410.38H367.42V443.58H366.77zM367.42 410.38H368.07V443.58H367.42zM368.07 410.38H368.72V443.58H368.07z"/><path fill="#1a6935" d="M368.71 410.38H369.36V443.58H368.71zM369.36 410.38H370.01V443.58H369.36zM370.01 410.38H370.66V443.58H370.01z"/><path fill="#196935" d="M370.65 410.38H371.3V443.58H370.65zM371.3 410.38H371.95V443.58H371.3zM371.95 410.38H372.6V443.58H371.95zM372.6 410.38H373.25V443.58H372.6z"/><path fill="#196935" d="M373.24 410.38H373.89V443.58H373.24z"/><path fill="#186934" d="M373.89 410.38H374.54V443.58H373.89zM374.54 410.38H375.19V443.58H374.54z"/><path fill="#186934" d="M375.18 410.38H375.83V443.58H375.18zM375.83 410.38H376.48V443.58H375.83z"/><path fill="#176934" d="M376.48 410.38H377.13V443.58H376.48z"/><path fill="#176834" d="M377.12 410.38H377.77V443.58H377.12zM377.77 410.38H378.42V443.58H377.77zM378.42 410.38H379.07V443.58H378.42z"/><path fill="#166834" d="M379.06 410.38H379.71V443.58H379.06z"/><path fill="#166833" d="M379.71 410.38H380.36V443.58H379.71zM380.36 410.38H381.01V443.58H380.36z"/><path fill="#156833" d="M381 410.38H381.65V443.58H381zM381.65 410.38H382.3V443.58H381.65zM382.3 410.38H382.95V443.58H382.3z"/><path fill="#146832" d="M382.94 410.38H383.59V443.58H382.94z"/><path fill="#146732" d="M383.59 410.38H384.24V443.58H383.59z"/><path fill="#136732" d="M384.24 410.38H384.89V443.58H384.24zM384.89 410.38H385.54V443.58H384.89z"/><path fill="#136732" d="M385.53 410.38H386.18V443.58H385.53z"/><path fill="#126732" d="M386.18 410.38H386.83V443.58H386.18z"/><path fill="#126731" d="M386.83 410.38H387.48V443.58H386.83z"/><path fill="#116631" d="M387.47 410.38H388.12V443.58H387.47zM388.12 410.38H388.77V443.58H388.12z"/><path fill="#106631" d="M388.77 410.38H389.42V443.58H388.77z"/><path fill="#106631" d="M389.41 410.38H390.06V443.58H389.41z"/><path fill="#0f6630" d="M390.06 410.38H390.71V443.58H390.06z"/><path fill="#0e6530" d="M390.71 410.38H391.36V443.58H390.71z"/><path fill="#0e6530" d="M391.35 410.38H392V443.58H391.35z"/><path fill="#0d6530" d="M392 410.38H392.65V443.58H392z"/><path fill="#0c6530" d="M392.65 410.38H393.3V443.58H392.65z"/><path fill="#0b652f" d="M393.29 410.38H393.94V443.58H393.29z"/><path fill="#0a642f" d="M393.94 410.38H394.59V443.58H393.94zM394.59 410.38H395.24V443.58H394.59z"/><path fill="#09642f" d="M395.23 410.38H395.88V443.58H395.23z"/><path fill="#08642e" d="M395.88 410.38H396.53V443.58H395.88z"/><path fill="#07632e" d="M396.53 410.38H397.18V443.58H396.53z"/><path fill="#06632e" d="M397.18 410.38H397.83V443.58H397.18z"/><path fill="#05632e" d="M397.82 410.38H398.47V443.58H397.82z"/><path fill="#05632d" d="M398.47 410.38H399.12V443.58H398.47z"/><path fill="#04622d" d="M399.12 410.38H399.77V443.58H399.12z"/><path fill="#03622d" d="M399.76 410.38H400.41V443.58H399.76z"/><path fill="#02622c" d="M400.41 410.38H401.06V443.58H400.41z"/><path fill="#01612c" d="M401.06 410.38H401.71V443.58H401.06z"/><path fill="#00612c" d="M401.7 410.38H402.35V443.58H401.7z"/><path fill="#00612b" d="M402.35 410.38H403V443.58H402.35zM403 410.38H403.65V443.58H403z"/><path fill="#00602b" d="M403.64 410.38H404.29V443.58H403.64z"/><path fill="#00602a" d="M404.29 410.38H404.94V443.58H404.29zM404.94 410.38H405.59V443.58H404.94z"/><path fill="#005f2a" d="M405.58 410.38H406.23V443.58H405.58z"/><path fill="#005f29" d="M406.23 410.38H406.88V443.58H406.23z"/><path fill="#005e29" d="M406.88 410.38H407.53V443.58H406.88z"/><path fill="#005e29" d="M407.52 410.38H408.17V443.58H407.52z"/><path fill="#005e28" d="M408.17 410.38H408.82V443.58H408.17z"/><path fill="#005d28" d="M408.82 410.38H409.47V443.58H408.82z"/><path fill="#005d27" d="M409.47 410.38H410.12V443.58H409.47z"/><path fill="#005c27" d="M410.11 410.38H410.76V443.58H410.11zM410.76 410.38H411.41V443.58H410.76z"/><path fill="#005c26" d="M411.41 410.38H412.06V443.58H411.41z"/><path fill="#005b26" d="M412.05 410.38H412.7V443.58H412.05z"/><path fill="#005b25" d="M412.7 410.38H413.35V443.58H412.7z"/><path fill="#005a25" d="M413.35 410.38H414V443.58H413.35z"/><path fill="#005a24" d="M413.99 410.38H414.64V443.58H413.99z"/><path fill="#005924" d="M414.64 410.38H415.29V443.58H414.64z"/><path fill="#005823" d="M415.29 410.38H415.94V443.58H415.29z"/><path fill="#005823" d="M415.93 410.38H416.58V443.58H415.93z"/><path fill="#005722" d="M416.58 410.38H417.23V443.58H416.58zM417.23 410.38H417.88V443.58H417.23z"/><path fill="#005621" d="M417.87 410.38H418.52V443.58H417.87zM418.52 410.38H419.17V443.58H418.52z"/><path fill="#005520" d="M419.17 410.38H419.82V443.58H419.17z"/><path fill="#005520" d="M419.81 410.38H420.46V443.58H419.81z"/><path fill="#00541f" d="M420.46 410.38H421.11V443.58H420.46z"/><path fill="#00531e" d="M421.11 410.38H421.76V443.58H421.11zM421.76 410.38H422.41V443.58H421.76z"/><path fill="#00521d" d="M422.4 410.38H423.05V443.58H422.4z"/><path fill="#00511d" d="M423.05 410.38H423.7V443.58H423.05z"/><path fill="#00511c" d="M423.7 410.38H424.35V443.58H423.7z"/><path fill="#00501b" d="M424.34 410.38H424.99V443.58H424.34z"/><path fill="#004f1a" d="M424.99 410.38H425.64V443.58H424.99z"/><path fill="#004e1a" d="M425.64 410.38H426.29V443.58H425.64z"/></g><g clip-path="url(#d)"><path fill="#1b6a36" d="M196.17 310.06H199.72V494.49H196.17z"/><path fill="#1b6a36" d="M199.71 310.06H203.26V494.49H199.71zM203.26 310.06H206.81V494.49H203.26zM206.81 310.06H210.36V494.49H206.81z"/><path fill="#1b6a36" d="M210.35 310.06H213.9V494.49H210.35zM213.9 310.06H217.45V494.49H213.9zM217.45 310.06H221V494.49H217.45z"/><path fill="#1b6a36" d="M220.99 310.06H224.54V494.49H220.99zM224.54 310.06H228.09V494.49H224.54zM228.09 310.06H231.64V494.49H228.09z"/><path fill="#1b6b36" d="M231.63 310.06H235.18V494.49H231.63zM235.18 310.06H238.73V494.49H235.18zM238.73 310.06H242.28V494.49H238.73z"/><path fill="#1b6b36" d="M242.27 310.06H245.82V494.49H242.27zM245.82 310.06H249.37V494.49H245.82z"/><path fill="#1b6c36" d="M249.37 310.06H252.92V494.49H249.37z"/><path fill="#1b6c36" d="M252.91 310.06H256.46V494.49H252.91z"/><path fill="#1b6c37" d="M256.46 310.06H260.01V494.49H256.46z"/><path fill="#1b6d37" d="M260.01 310.06H263.56V494.49H260.01z"/><path fill="#1b6d37" d="M263.55 310.06H267.1V494.49H263.55zM267.1 310.06H270.65V494.49H267.1z"/><path fill="#1b6e37" d="M270.65 310.06H274.2V494.49H270.65z"/><path fill="#1b6e37" d="M274.19 310.06H277.74V494.49H274.19z"/><path fill="#1b6f37" d="M277.74 310.06H281.29V494.49H277.74z"/><path fill="#1b6f38" d="M281.29 310.06H284.84V494.49H281.29z"/><path fill="#1b6f38" d="M284.83 310.06H288.38V494.49H284.83z"/><path fill="#1b7038" d="M288.38 310.06H291.93V494.49H288.38z"/><path fill="#1b7138" d="M291.93 310.06H295.48V494.49H291.93z"/><path fill="#1b7138" d="M295.47 310.06H299.02V494.49H295.47z"/><path fill="#1b7239" d="M299.02 310.06H302.57V494.49H299.02zM302.57 310.06H306.12V494.49H302.57z"/><path fill="#1b7339" d="M306.11 310.06H309.66V494.49H306.11z"/><path fill="#1b7439" d="M309.66 310.06H313.21V494.49H309.66z"/><path fill="#1b743a" d="M313.21 310.06H316.76V494.49H313.21z"/><path fill="#1b753a" d="M316.75 310.06H320.3V494.49H316.75z"/><path fill="#1b763a" d="M320.3 310.06H323.85V494.49H320.3z"/><path fill="#1b773a" d="M323.85 310.06H327.4V494.49H323.85z"/><path fill="#1b773b" d="M327.39 310.06H330.94V494.49H327.39z"/><path fill="#1b783b" d="M330.94 310.06H334.49V494.49H330.94z"/><path fill="#1b793b" d="M334.49 310.06H338.04V494.49H334.49z"/><path fill="#1b7a3c" d="M338.03 310.06H341.58V494.49H338.03z"/><path fill="#1b7b3c" d="M341.58 310.06H345.13V494.49H341.58z"/><path fill="#1b7c3c" d="M345.13 310.06H348.68V494.49H345.13z"/><path fill="#1b7c3c" d="M348.67 310.06H352.22V494.49H348.67z"/><path fill="#1b7d3d" d="M352.22 310.06H355.77V494.49H352.22z"/><path fill="#1b7e3d" d="M355.77 310.06H359.32V494.49H355.77z"/><path fill="#1b803e" d="M359.31 310.06H362.86V494.49H359.31z"/><path fill="#1b813e" d="M362.86 310.06H366.41V494.49H362.86z"/><path fill="#1b823e" d="M366.41 310.06H369.96V494.49H366.41z"/><path fill="#1b833f" d="M369.95 310.06H373.5V494.49H369.95z"/><path fill="#1b843f" d="M373.5 310.06H377.05V494.49H373.5z"/><path fill="#1b853f" d="M377.05 310.06H380.6V494.49H377.05z"/><path fill="#1b8640" d="M380.59 310.06H384.14V494.49H380.59z"/><path fill="#1b8740" d="M384.14 310.06H387.69V494.49H384.14z"/><path fill="#1a8941" d="M387.69 310.06H391.24V494.49H387.69z"/><path fill="#1a8a41" d="M391.23 310.06H394.78V494.49H391.23z"/><path fill="#1a8b42" d="M394.78 310.06H398.33V494.49H394.78z"/><path fill="#1a8d42" d="M398.33 310.06H401.88V494.49H398.33z"/><path fill="#198e42" d="M401.87 310.06H405.42V494.49H401.87z"/><path fill="#198f43" d="M405.42 310.06H408.97V494.49H405.42z"/><path fill="#189143" d="M408.97 310.06H412.52V494.49H408.97z"/><path fill="#189244" d="M412.51 310.06H416.06V494.49H412.51z"/><path fill="#179444" d="M416.06 310.06H419.61V494.49H416.06z"/><path fill="#179545" d="M419.61 310.06H423.16V494.49H419.61z"/><path fill="#169745" d="M423.15 310.06H426.7V494.49H423.15z"/><path fill="#159846" d="M426.7 310.06H430.25V494.49H426.7z"/><path fill="#159a46" d="M430.25 310.06H433.8V494.49H430.25z"/><path fill="#149c47" d="M433.79 310.06H437.34V494.49H433.79z"/><path fill="#139d47" d="M437.34 310.06H440.89V494.49H437.34z"/><path fill="#129f48" d="M440.89 310.06H444.44V494.49H440.89z"/><path fill="#11a148" d="M444.43 310.06H447.98V494.49H444.43z"/><path fill="#10a349" d="M447.98 310.06H451.53V494.49H447.98z"/><path fill="#0fa549" d="M451.53 310.06H455.08V494.49H451.53z"/><path fill="#0da74a" d="M455.07 310.06H458.62V494.49H455.07z"/><path fill="#0baa4b" d="M458.62 310.06H462.17V494.49H458.62z"/></g><g clip-path="url(#e)"><path fill="#1b6a36" d="M38.84 139.51H45.01V375.83H38.84zM45.01 139.51H51.18V375.83H45.01zM51.18 139.51H57.35V375.83H51.18zM57.35 139.51H63.52V375.83H57.35zM63.52 139.51H69.69V375.83H63.52zM69.69 139.51H75.86V375.83H69.69zM75.86 139.51H82.03V375.83H75.86z"/><path fill="#1b6a36" d="M82.02 139.51H88.19V375.83H82.02zM88.19 139.51H94.36V375.83H88.19zM94.36 139.51H100.53V375.83H94.36z"/><path fill="#1b6b36" d="M100.53 139.51H106.7V375.83H100.53zM106.7 139.51H112.87V375.83H106.7zM112.87 139.51H119.04V375.83H112.87zM119.04 139.51H125.21V375.83H119.04zM125.21 139.51H131.38V375.83H125.21z"/><path fill="#1b6c36" d="M131.37 139.51H137.54V375.83H131.37zM137.54 139.51H143.71V375.83H137.54z"/><path fill="#1b6c37" d="M143.71 139.51H149.88V375.83H143.71z"/><path fill="#1b6d37" d="M149.88 139.51H156.05V375.83H149.88zM156.05 139.51H162.22V375.83H156.05zM162.22 139.51H168.39V375.83H162.22z"/><path fill="#1b6e37" d="M168.39 139.51H174.56V375.83H168.39zM174.56 139.51H180.73V375.83H174.56z"/><path fill="#1b6f37" d="M180.72 139.51H186.89V375.83H180.72z"/><path fill="#1b6f38" d="M186.89 139.51H193.06V375.83H186.89zM193.06 139.51H199.23V375.83H193.06z"/><path fill="#1b7038" d="M199.23 139.51H205.4V375.83H199.23z"/><path fill="#1b7138" d="M205.4 139.51H211.57V375.83H205.4zM211.57 139.51H217.74V375.83H211.57z"/><path fill="#1b7239" d="M217.74 139.51H223.91V375.83H217.74zM223.91 139.51H230.08V375.83H223.91z"/><path fill="#1b7339" d="M230.07 139.51H236.24V375.83H230.07z"/><path fill="#1b7439" d="M236.24 139.51H242.41V375.83H236.24z"/><path fill="#1b743a" d="M242.41 139.51H248.58V375.83H242.41z"/><path fill="#1b753a" d="M248.58 139.51H254.75V375.83H248.58z"/><path fill="#1b763a" d="M254.75 139.51H260.92V375.83H254.75z"/><path fill="#1b773a" d="M260.92 139.51H267.09V375.83H260.92z"/><path fill="#1b773b" d="M267.09 139.51H273.26V375.83H267.09z"/><path fill="#1b783b" d="M273.26 139.51H279.43V375.83H273.26z"/><path fill="#1b793b" d="M279.42 139.51H285.59V375.83H279.42z"/><path fill="#1b7a3c" d="M285.59 139.51H291.76V375.83H285.59z"/><path fill="#1b7b3c" d="M291.76 139.51H297.93V375.83H291.76z"/><path fill="#1b7c3c" d="M297.93 139.51H304.1V375.83H297.93zM304.1 139.51H310.27V375.83H304.1z"/><path fill="#1b7d3d" d="M310.27 139.51H316.44V375.83H310.27z"/><path fill="#1b7e3d" d="M316.44 139.51H322.61V375.83H316.44z"/><path fill="#1b803e" d="M322.61 139.51H328.78V375.83H322.61z"/><path fill="#1b813e" d="M328.77 139.51H334.94V375.83H328.77z"/><path fill="#1b823e" d="M334.94 139.51H341.11V375.83H334.94z"/><path fill="#1b833f" d="M341.11 139.51H347.28V375.83H341.11z"/><path fill="#1b843f" d="M347.28 139.51H353.45V375.83H347.28z"/><path fill="#1b853f" d="M353.45 139.51H359.62V375.83H353.45z"/><path fill="#1b8640" d="M359.62 139.51H365.79V375.83H359.62z"/><path fill="#1b8740" d="M365.79 139.51H371.96V375.83H365.79z"/><path fill="#1a8941" d="M371.96 139.51H378.13V375.83H371.96z"/><path fill="#1a8a41" d="M378.12 139.51H384.29V375.83H378.12z"/><path fill="#1a8b42" d="M384.29 139.51H390.46V375.83H384.29z"/><path fill="#1a8d42" d="M390.46 139.51H396.63V375.83H390.46z"/><path fill="#198e42" d="M396.63 139.51H402.8V375.83H396.63z"/><path fill="#198f43" d="M402.8 139.51H408.97V375.83H402.8z"/><path fill="#189143" d="M408.97 139.51H415.14V375.83H408.97z"/><path fill="#189244" d="M415.14 139.51H421.31V375.83H415.14z"/><path fill="#179444" d="M421.3 139.51H427.47V375.83H421.3z"/><path fill="#179545" d="M427.47 139.51H433.64V375.83H427.47z"/><path fill="#169745" d="M433.64 139.51H439.81V375.83H433.64z"/><path fill="#159846" d="M439.81 139.51H445.98V375.83H439.81z"/><path fill="#159a46" d="M445.98 139.51H452.15V375.83H445.98z"/><path fill="#149c47" d="M452.15 139.51H458.32V375.83H452.15z"/><path fill="#139d47" d="M458.32 139.51H464.49V375.83H458.32z"/><path fill="#129f48" d="M464.49 139.51H470.66V375.83H464.49z"/><path fill="#11a148" d="M470.65 139.51H476.82V375.83H470.65z"/><path fill="#10a349" d="M476.82 139.51H482.99V375.83H476.82z"/><path fill="#0fa549" d="M482.99 139.51H489.16V375.83H482.99z"/><path fill="#0da74a" d="M489.16 139.51H495.33V375.83H489.16z"/><path fill="#0baa4b" d="M495.33 139.51H501.5V375.83H495.33z"/></g><g fill="#1b6a36"><path d="M61.75 254.28 62.9 245l36.85-10.5-1.27 10.34L92 246.59 90.31 260l5.9 3.25L95 273.39Zm22.36-5.83-10.37 2.66 9.41 5.14ZM85.77 228.57l-18.62-6.35 3.18-9.33 18.43 6.28c4.79 1.63 7.89 0 9.15-3.7s-.1-6.86-4.74-8.44L74.5 200.66l3.18-9.33 18.38 6.27c10.72 3.65 13.32 11.36 10.11 20.79s-10 13.72-20.4 10.18M107.53 197.5l-2.89-7.91a18 18 0 0 0 9.31-7.74c1.3-2.26 1.22-3.92-.08-4.67l-.09-.05c-1.26-.72-2.53-.13-5.85 3.44-5.2 5.61-9.89 9.55-16.14 6l-.08-.05c-5.64-3.25-7.14-10.06-2.94-17.34 3-5.16 6.68-8.39 11.22-10.17l3.52 7.63a17.57 17.57 0 0 0-7.89 6.78c-1.17 2-.88 3.53.2 4.15l.09.06c1.39.8 2.59.1 6-3.55 5.54-6.11 10.29-9.14 16-5.87l.09.05c6.2 3.57 7.06 10.59 2.82 18a24.5 24.5 0 0 1-13.23 11.33M114.75 146.98 107.98 155.03 101.47 149.55 121.25 126.01 127.77 131.49 121 139.54 141.32 156.62 135.07 164.06 114.75 146.98zM128.87 118.59l12.85-10.45c4.16-3.38 7.91-4.63 11.26-4.26a10.92 10.92 0 0 1 7.55 4.38l.07.07a11.09 11.09 0 0 1 1.2 12.9l14.19 4.2-8.7 7.08-12.17-3.78-3.3 2.69 6.7 8.23L151 145.78l-22.11-27.19ZM152 121.47c2.56-2.09 3-4.53 1.41-6.51l-.06-.08c-1.74-2.13-4.17-2-6.7.1l-4.93 4 5.31 6.52 5-4Z"/><path d="m172.64 87.13 8.3-4.33 29.54 24.41L201.24 112l-5.15-4.37-12 6.25.67 6.7-9.06 4.72-3.07-38.19Zm17.47 15.11-8.07-7 1.1 10.66ZM203.73 73.11 213.05 70.38 220.51 95.83 236.79 91.06 239.18 99.22 213.59 106.72 203.73 73.11z"/><path transform="rotate(-8.58 246.37693071 80.68441097)" d="M241.53 63.18H251.29V98.23H241.53z"/><path d="m273 60.64 9.36.15 14.35 35.53-10.42-.17-2.45-6.29-13.51-.22-2.61 6.21-10.21-.17Zm8.16 21.61-3.74-10-4.11 9.89ZM307.36 62.56 316.2 64.55 326.21 85.77 330.26 67.7 339.64 69.8 331.97 103.99 323.67 102.12 313.27 80.1 309.07 98.85 299.69 96.75 307.36 62.56zM359.15 95.78l.05-.09c5.06-8.7 16.17-11.67 25.52-6.24s12.21 16.43 7.16 25.13l-.06.09c-5.05 8.69-16.16 11.67-25.51 6.23s-12.22-16.42-7.16-25.12m24.06 14 .05-.09c2.54-4.37 1.59-10-3-12.7s-9.83-.74-12.37 3.63l-.05.09c-2.54 4.37-1.6 10 3 12.68s9.87.76 12.41-3.61M407.88 103.77 415.19 110.97 405.32 129.7 424.43 119.93 430.38 125.79 420.9 145.05 439.48 134.89 446.65 141.95 413.55 158.87 407.52 152.94 416.64 133.62 397.5 143.07 391.47 137.13 407.88 103.77zM452.74 151.92 457.38 159.7 448.84 181.56 464.75 172.09 469.67 180.34 439.57 198.27 435.22 190.96 444.07 168.27 427.56 178.11 422.64 169.85 452.74 151.92zM474.85 192.01 484.21 218.61 476.41 221.35 470.25 203.82 465.24 205.58 470.82 221.46 463.59 224 458.01 208.12 452.76 209.97 459.01 227.73 451.21 230.47 441.78 203.64 474.85 192.01zM487.09 230l1.9 13.38c1.75 12.39-4.37 20.59-14.38 22l-.1 0c-10 1.42-18.47-4.82-20.24-17.31l-1.87-13.18L487.09 230Zm-24.25 17.23c.82 5.75 4.53 9.12 10.13 8.33l.1 0c5.55-.78 8.23-5.06 7.41-10.8l-.55-3.92-17.64 2.5ZM119.73 397.16l.08-.06a17.93 17.93 0 0 1 25.81 1.35c4.81 5.27 5.7 10.67 4.61 15.85l-9.07-1.58c.5-3.15.13-5.93-2.12-8.39-3.3-3.61-8.68-3.36-12.43.07l-.08.06c-3.86 3.53-4.57 8.83-1.27 12.44 2.45 2.69 5.15 3.13 8.44 3l1.08 8.88c-5.57.63-11-.4-16.24-6.11a17.72 17.72 0 0 1 1.19-25.47M156.31 410.58 178.59 427.67 173.58 434.2 158.9 422.94 155.68 427.13 168.98 437.33 164.34 443.39 151.04 433.19 147.67 437.58 162.55 448.99 157.55 455.52 135.07 438.29 156.31 410.58zM180.41 428.85l14.67 7.58c4.73 2.45 7.37 5.39 8.35 8.59a10.82 10.82 0 0 1-1 8.64l0 .09A11 11 0 0 1 191.1 460l1.8 14.63L183 469.48l-1.39-12.62-3.77-1.95L173 464.3l-8.6-4.44 16-31ZM187 451.11c2.92 1.51 5.34 1 6.51-1.29l0-.09c1.26-2.44.13-4.6-2.75-6.09l-5.62-2.9-3.85 7.44 5.67 2.93ZM215.39 454.2 205.4 451.09 207.92 442.99 237.15 452.11 234.63 460.21 224.63 457.09 216.76 482.32 207.52 479.44 215.39 454.2z"/><path transform="rotate(-79.72 241.23414428 470.08996726)" d="M223.77 465.22H258.68V474.94H223.77z"/><path d="M253.28 454.78 281.17 456.35 280.69 464.82 262.47 463.79 262.13 469.72 278.62 470.64 278.16 478.66 261.68 477.73 260.98 490.18 251.32 489.63 253.28 454.78z"/><path transform="rotate(-3.89 289.23524615 472.22598609)" d="M284.79 455.35H294.52V490.26H284.79z"/><path d="M297.55 455.05 325.1 449.61 326.69 457.69 308.54 461.27 309.56 466.46 326 463.21 327.48 470.7 311.04 473.94 312.11 479.38 330.51 475.75 332.1 483.82 304.31 489.3 297.55 455.05zM327.14 449.15l12.53-4.94c11.6-4.58 21-.56 24.66 8.81l0 .09c3.7 9.37-.37 19-12.06 23.64L340 481.62l-12.83-32.47Zm22.34 19.49c5.38-2.12 7.78-6.5 5.71-11.74l0-.09c-2-5.2-6.81-6.81-12.19-4.68l-3.67 1.45 6.53 16.51 3.66-1.45Z"/></g><g style="isolation:isolate"><path d="M207.34,382.91l-3.06,2.85,3.71,2.66-2.12,3-4.27-3.06-5.28,5.05-3.17-2.27,5.3-5-2.79-2-5.27,5.05-3.09-2.21,5.24-5.08-3.42-2.44,2.12-3,4,2.84,3.06-2.85-3.62-2.59,2.15-3,4.15,3,5.3-5.06L209.4,371l-5.29,5.06,2.85,2,5.3-5.05,3.09,2.21-5.3,5.05,3.45,2.47-2.15,3Zm-9-1.4,2.82,2,3.06-2.85-2.82-2Z" fill="#fff" style="isolation:isolate"/></g><g style="isolation:isolate"><path d="M228.86,396.41q-2.91,6.1-6.32,8.09c-2.27,1.31-4.79,1.31-7.57,0a7.58,7.58,0,0,1-4.63-5.93c-.4-2.68.34-6,2.22-9.93q3-6.17,6.35-8.14t7.53,0a7.61,7.61,0,0,1,4.64,6Q231.68,390.51,228.86,396.41ZM217.46,391a20.14,20.14,0,0,0-2.2,6.5,2.88,2.88,0,0,0,5,2.36,27.63,27.63,0,0,0,5.86-12.29,2.86,2.86,0,0,0-5-2.37A20,20,0,0,0,217.46,391Z" fill="#fff" style="isolation:isolate"/></g><g style="isolation:isolate"><path d="M247.73,410l-3-.86-1.49,5.15-5.13-1.48,1.49-5.14L229,404.59l1.05-3.65,15.51-12.89,4.84,1.39-4.5,15.61,3,.86Zm-6.95-6.41,1.22-4.21q.3-1,1-3c.44-1.32.71-2.09.81-2.29l-.14,0a19,19,0,0,1-2.29,2.28l-6.54,5.57Z" fill="#fff" style="isolation:isolate"/></g><g style="isolation:isolate"><path d="M264.22,417.53l-5.42-.63,1.73-14.85.33-2.43.4-2.66c-1,.79-1.7,1.31-2.08,1.55l-3.23,2L253.72,397l9-5.62,4.46.52Z" fill="#fff" style="isolation:isolate"/></g><g style="isolation:isolate"><path d="M291.2,402.59q.36,7.64-2.69,11.54T279,418.34a18.13,18.13,0,0,1-3.49-.09l-.2-4.38a12.83,12.83,0,0,0,3.12.23,11.09,11.09,0,0,0,4.47-1,5.67,5.67,0,0,0,2.58-2.65,11.12,11.12,0,0,0,.86-4.79h-.21a6.06,6.06,0,0,1-2.26,2.44,7.41,7.41,0,0,1-3.32.82,6.75,6.75,0,0,1-5.42-1.92,8.63,8.63,0,0,1-2.21-5.92,8.94,8.94,0,0,1,2.05-6.66,8.56,8.56,0,0,1,6.31-2.71,9.21,9.21,0,0,1,5.06,1.11,8.66,8.66,0,0,1,3.48,3.74A14.88,14.88,0,0,1,291.2,402.59Zm-9.66-6.51a3.26,3.26,0,0,0-2.59,1.29,5.18,5.18,0,0,0-.8,3.4,4.7,4.7,0,0,0,1,2.93,3.18,3.18,0,0,0,2.68,1,4,4,0,0,0,2.79-1.22,3.27,3.27,0,0,0,1.07-2.55,5.66,5.66,0,0,0-1.26-3.5A3.41,3.41,0,0,0,281.54,396.08Z" fill="#fff" style="isolation:isolate"/></g><g style="isolation:isolate"><path d="M312,400.33q1.41,6.63-.08,10.26t-6,4.61a7.61,7.61,0,0,1-7.29-1.88q-2.92-2.82-4.29-9.23-1.43-6.69.06-10.32c1-2.42,3-3.95,6-4.59a7.64,7.64,0,0,1,7.32,1.91Q310.65,393.94,312,400.33ZM299.64,403a20.06,20.06,0,0,0,2.22,6.49,2.88,2.88,0,0,0,5.4-1.17A27.71,27.71,0,0,0,304.41,395a2.86,2.86,0,0,0-5.38,1.15A20.13,20.13,0,0,0,299.64,403Z" fill="#fff" style="isolation:isolate"/></g></g></svg>