<svg xmlns="http://www.w3.org/2000/svg" xmlns:xlink="http://www.w3.org/1999/xlink" width="552.43" height="552.43" viewBox="0 0 552.43 552.43">
  <defs>
    <clipPath id="clip-path">
      <path d="M367.53,297.44l.77-4.49a.82.82,0,0,0-.23-.73L364.81,289a.81.81,0,0,1,.45-1.39l4.51-.66a.79.79,0,0,0,.61-.44l2-4.09a.82.82,0,0,1,1.47,0l2,4.09a.79.79,0,0,0,.62.44l4.51.66a.82.82,0,0,1,.45,1.39l-3.26,3.18a.83.83,0,0,0-.24.73l.77,4.49a.82.82,0,0,1-1.19.86l-4-2.12a.85.85,0,0,0-.76,0l-4,2.12a.8.8,0,0,1-.38.1.82.82,0,0,1-.81-1m-96.25-43.21L273.2,243a.82.82,0,0,0-.23-.73l-8.14-7.93a.82.82,0,0,1,.45-1.4l11.25-1.63a.83.83,0,0,0,.62-.45l5-10.2a.83.83,0,0,1,1.47,0l5,10.2a.83.83,0,0,0,.61.45L300.55,233a.82.82,0,0,1,.45,1.4l-8.14,7.93a.83.83,0,0,0-.24.73l1.92,11.21a.81.81,0,0,1-1.18.86l-10.07-5.29a.79.79,0,0,0-.76,0l-10.06,5.29a.92.92,0,0,1-.38.09.82.82,0,0,1-.81-1m58.4-61.78,1.92-11.21a.77.77,0,0,0-.24-.72l-8.14-7.94a.82.82,0,0,1,.46-1.4l11.25-1.63a.83.83,0,0,0,.61-.45l5-10.19a.81.81,0,0,1,1.46,0l5,10.19a.81.81,0,0,0,.61.45l11.25,1.63a.83.83,0,0,1,.46,1.4l-8.15,7.94a.79.79,0,0,0-.23.72l1.92,11.21a.81.81,0,0,1-1.18.86L341.69,188a.79.79,0,0,0-.76,0l-10.07,5.29a.85.85,0,0,1-.38.09.81.81,0,0,1-.8-1M319.4,129c-.31.18-.62.37-.92.57-8.34,5.83-3.11,21.76-24.78,43.18-8.37,8.27-16.76,13.29-24.68,16.14-18.06,6.5-33.63,1.65-40.72-2.08-5.34-2.8-10.46-10.38-14.14-17-.7-1.26-1.35-2.49-1.94-3.64h0c-5.6-9.32-14.13-9.83-21-8.23-20.37,5.17-47.66,56.88-47.66,56.88h0c-9.33,17.79-15.63,33.13-16.8,36a299.82,299.82,0,0,0-12,40.62q-1.86,8.58-3,16.55c-.77,5.23-1.3,10.25-1.64,15,100.12-34.71,176-29.69,243.12-17.29h0s90.25,16.51,80.41-25h0c-.6-2.2-1.22-4.35-1.85-6.47-.17-.56-.35-1.11-.52-1.67q-.71-2.34-1.43-4.61c-.19-.59-.39-1.17-.58-1.75-.48-1.47-1-2.91-1.45-4.33l-.57-1.63c-.26-.72-.51-1.47-.76-2.18s-.46-1.24-.69-1.86-.46-1.25-.7-1.87-.41-1.14-.62-1.68c-.35-.91-.69-1.79-1-2.67-.06-.15-.12-.3-.17-.45-.6-1.52-1.2-3-1.79-4.45l-.21-.51-.43-1c-.45-1.06-.89-2.13-1.32-3.13l-.39-.9v0l-.56-1.29c-.49-1.11-1-2.18-1.45-3.23l-7.41,7.22a.82.82,0,0,0-.23.73l1.92,11.21a.82.82,0,0,1-1.19.86l-10.06-5.29a.79.79,0,0,0-.76,0l-10.07,5.29a.81.81,0,0,1-1.18-.86L390,243a.83.83,0,0,0-.24-.73l-8.14-7.93a.82.82,0,0,1,.45-1.4l11.26-1.63a.83.83,0,0,0,.61-.45l5-10.2a.83.83,0,0,1,1.47,0l5,10.2a.83.83,0,0,0,.62.45l9.91,1.44c-5.47-11.8-9.61-18.65-9.61-18.65-1.38-2.51-2.73-4.91-4.07-7.24h0l-.16-.27-.32-.56c-5.38-9.33-10.45-17.27-15.23-24l-.05-.07-1.74-2.52-.59-.84c-.43-.63-.87-1.25-1.32-1.88-.21-.3-.43-.6-.64-.91l-1.54-2.14-.44-.6q-1-1.35-2-2.7l0,0v0l-.54-.72c-.51-.68-1-1.37-1.54-2.05l-.71-.93c-.51-.67-1-1.34-1.54-2l-.63-.81c-.67-.86-1.35-1.71-2-2.57l-.13-.17L371,161c-.07-.1-.15-.19-.22-.28-.62-.77-1.25-1.53-1.88-2.3l-.73-.87c-.53-.63-1.06-1.27-1.6-1.9l-.74-.86c-.67-.78-1.34-1.55-2-2.31l-.07-.09-.21-.23-.12-.14c-.73-.81-1.46-1.61-2.2-2.41l-.68-.73c-.56-.6-1.13-1.19-1.69-1.77l-.8-.82c-.59-.61-1.18-1.2-1.78-1.79l-.53-.53-.07-.07-.05,0c-.76-.74-1.52-1.47-2.28-2.17,0,0,0,0,0,0l-.08-.07-.45-.41c-.62-.57-1.24-1.12-1.86-1.66l-.79-.68c-.56-.49-1.13-1-1.7-1.42l-.73-.6c-.76-.6-1.52-1.19-2.28-1.75l-.09-.07-.15-.11-.05,0c-.72-.53-1.45-1-2.17-1.52-.24-.17-.49-.32-.73-.48q-.84-.56-1.68-1l-.76-.46c-.64-.36-1.27-.71-1.9-1l-.42-.23h-.06c-.75-.38-1.51-.73-2.25-1l-.62-.24c-.56-.23-1.12-.43-1.68-.62l-.74-.23c-.56-.17-1.11-.31-1.66-.44l-.61-.14c-.4-.08-.8-.12-1.2-.18-4.2,0-7.12.67-9.26,1.85" fill="none"/>
    </clipPath>
    <clipPath id="clip-path-2">
      <path d="M177.48,315c-1.49.37-4.55.88-10,1.6h-.08a125.34,125.34,0,0,0-18.88,4c-14.41,4.23-22.73,9.59-23.47,10.08-7.18,4.8-14,11.56-14.4,20.14a77.29,77.29,0,0,0,2.48,12c.24.55.48,1.06.73,1.55a17.39,17.39,0,0,0,3.19,4.47,11,11,0,0,0,.83.74,11.28,11.28,0,0,0,1.6,1.13,10,10,0,0,0,1.48.72,8.77,8.77,0,0,0,1.27.41,8.12,8.12,0,0,0,1.59.22H124l.69,0,.69,0c.34,0,.67,0,1-.05h0l.29,0,.88-.11c.35,0,.7-.08,1.06-.14l1.23-.24c.36-.07.72-.14,1.09-.23l.78-.2.48-.13h0l1.12-.3h0l1.3-.41h0l1.14-.37h0c.25-.08.49-.18.74-.27l.6-.21,1.14-.42,1.37-.56,1.13-.46h0l1.35-.59h0l1.12-.5h0l.16-.08,1.23-.58,1.08-.51h0l1.37-.68,1-.53h0l1.31-.69.05,0,1-.52h0l1.25-.69.08,0,1-.52h0l1.21-.69.12-.07.84-.48,1.38-.82.68-.4h0l1.09-.66.32-.2.51-.31h0l.89-.55.58-.37.29-.18c1.22-.9,2.48-1.74,3.75-2.56.8-.52,1.61-1,2.42-1.52l.16-.11h0c1.4-.84,2.82-1.62,4.26-2.37l.88-.44c1.26-.63,2.53-1.25,3.81-1.82l.47-.21q4.62-2,9.43-3.61c.58-.19,1.15-.4,1.73-.58.82-.26,1.64-.46,2.47-.7,1.41-.4,2.82-.78,4.23-1.13s3-.73,4.54-1h0c1.18-.24,2.35-.44,3.53-.65l1.58-.29.22,0,1.46-.21c1.23-.18,2.45-.37,3.67-.51.57-.07,1.13-.11,1.69-.17,1.14-.12,2.29-.25,3.42-.34l2-.12c1-.07,2-.14,3.06-.18.73,0,1.45,0,2.17-.05h0c.79,0,1.59-.06,2.38-.06h.93c1,0,2,0,3.08,0l1,0c1.53,0,3,.11,4.57.21l1.14.08,3.39.27,1.62.17c1,.1,1.92.2,2.88.32l1.73.22,2.74.4c.58.08,1.16.17,1.73.27q1.4.22,2.76.48l1.62.29c1,.19,2,.4,3,.61l1.33.27q2.08.47,4.14,1l.11,0c1.41.34,2.82.71,4.22,1.09l1.18.33,2.95.84,1.45.45c.88.26,1.76.54,2.62.81l1.52.5c.84.27,1.69.56,2.52.85l1.47.51,2.56.92,1.32.49,2.9,1.12.88.34c1.27.5,2.52,1,3.76,1.53l.36.16c1.1.46,2.18.93,3.25,1.4l1.11.5c.81.36,1.63.73,2.42,1.1l1.25.58,2.2,1.05c.43.2.85.4,1.26.61l2.13,1.05,1.19.6,2.17,1.12,1,.53,2.57,1.37.5.27q1.51.83,3,1.65l.75.43,2.1,1.2,1,.58,1.76,1,1,.61,1.59,1,1,.62,1.54,1,.89.57,1.59,1,.7.46.86.56,1.15-6.7a.81.81,0,0,0-.23-.72l-8.15-7.94a.82.82,0,0,1,.46-1.39l11.25-1.64a.83.83,0,0,0,.62-.45l5-10.19a.82.82,0,0,1,1.47,0l5,10.19a.83.83,0,0,0,.61.45L359,357a.81.81,0,0,1,.45,1.39l-8.14,7.94a.82.82,0,0,0-.24.72l1.92,11.21a.81.81,0,0,1-1.18.86l-10.07-5.29a.79.79,0,0,0-.76,0L335,377c3.71,2.73,7.39,5.43,11,8h0q2.2,1.59,4.39,3.13l1.38,1,3,2.08,1.64,1.13,2.64,1.81,1.76,1.19,2.47,1.64,1.79,1.17,2.4,1.55,1.77,1.11,2.38,1.47,1.7,1,2.4,1.41,1.6.92,2.57,1.42c.45.24.9.5,1.35.73,1.15.61,2.28,1.19,3.41,1.75l.42.21c1.26.62,2.51,1.2,3.74,1.75l1.12.47c.85.36,1.69.72,2.52,1.05l1.37.51c.73.28,1.46.55,2.18.79l1.44.45c.68.22,1.36.42,2,.6.48.14,1,.25,1.43.37.65.16,1.29.3,1.93.43.47.1.94.18,1.4.26.63.11,1.26.19,1.88.27l1.33.15c.63.05,1.25.07,1.86.09l1.29,0,1.06-.05c.27,0,.53,0,.8-.06s.54,0,.81-.06h0c.36,0,.71-.09,1.07-.14s1-.17,1.51-.28.7-.15,1-.24h0c.49-.13,1-.28,1.46-.45h0l1-.34c.49-.19,1-.42,1.45-.65.29-.13.58-.26.87-.42.45-.24.88-.51,1.32-.79l.23-.14h0c.22-.14.45-.27.67-.42h0a22.76,22.76,0,0,0,2.11-1.65h0l.15-.15s0,0,0,0a23.7,23.7,0,0,0,1.82-1.8h0c.18-.19.34-.41.51-.6-1.42-9.95-11.48-19.54-14.13-21.91-3.42-3-6.41-5.43-8.55-7.1-1.14-.83-2.29-1.69-3.49-2.62-56-44-115.78-60.66-167.63-64.79-5.09-.27-10.1-.39-15-.39a295.64,295.64,0,0,0-42.1,3" fill="none"/>
    </clipPath>
    <clipPath id="clip-path-3">
      <path d="M358.76,412a136.79,136.79,0,0,0,22,24.82,21.31,21.31,0,0,0,27.11.44A63,63,0,0,0,418,427a50.75,50.75,0,0,0,3.18-4.59l1.47-2.17c1.5-2.22,3.62-5.33,3.62-5.33a38.58,38.58,0,0,1-19.71,7.73c-23.62,2.69-48.85-12.22-48.85-12.22.36.51.7,1,1,1.57" fill="none"/>
    </clipPath>
    <clipPath id="clip-path-4">
      <path d="M217.24,312c28.9,3.32,81.9,12.09,122.74,34l.6-1.21a.82.82,0,0,1,1.47,0l1.59,3.23a155.32,155.32,0,0,1,13.89,8.84L359,357a.82.82,0,0,1,.57,1.25c19,14.15,32.77,32.4,36,55.9l.46.16,1.44.45c.68.22,1.36.42,2,.6.48.14,1,.25,1.43.37.65.16,1.29.3,1.93.43.47.1.94.18,1.4.26.63.11,1.26.19,1.88.27l1.33.15c.63.05,1.25.07,1.86.09l1.29,0,1.06-.05c.27,0,.53,0,.8-.06s.54,0,.81-.06h0c.36,0,.71-.09,1.07-.14s1-.17,1.51-.28.7-.15,1-.24h0c.49-.13,1-.28,1.46-.45h0l1-.34c.49-.19,1-.42,1.45-.65.29-.13.58-.26.87-.42.45-.24.88-.51,1.32-.79l.23-.14h0c.22-.14.45-.27.67-.42h0a22.76,22.76,0,0,0,2.11-1.65h0l.15-.15s0,0,0,0a23.7,23.7,0,0,0,1.82-1.8h0c.18-.19.34-.41.51-.6-1.42-9.95-11.48-19.54-14.13-21.91-3.42-3-6.41-5.43-8.55-7.1-1.14-.83-2.29-1.69-3.49-2.62-56-44-115.78-60.66-167.63-64.79-5.09-.27-10.09-.39-15-.39h-2.34" fill="none"/>
    </clipPath>
    <clipPath id="clip-path-5">
      <path d="M367.53,297.44l.77-4.49a.82.82,0,0,0-.23-.73L364.81,289a.81.81,0,0,1,.45-1.39l4.51-.66a.79.79,0,0,0,.61-.44l2-4.09a.82.82,0,0,1,1.47,0l2,4.09a.79.79,0,0,0,.62.44l4.51.66a.82.82,0,0,1,.45,1.39l-3.26,3.18a.83.83,0,0,0-.24.73l.77,4.49a.82.82,0,0,1-1.19.86l-4-2.12a.85.85,0,0,0-.76,0l-4,2.12a.8.8,0,0,1-.38.1.82.82,0,0,1-.81-1m-74.26-50.66,1.27,7.45a.81.81,0,0,1-1.18.86L284,250.16c-1.9.66-3.87,1.31-5.86,2l-5.66,3a.92.92,0,0,1-.38.09.82.82,0,0,1-.81-1c-80.88,24-132.08,48.64-160.83,64.6-.13,1.45-.25,2.88-.35,4.29,100.12-34.71,176-29.69,243.12-17.29h0s90.25,16.51,80.41-25h0c-.6-2.2-1.22-4.35-1.85-6.47-.17-.56-.35-1.11-.52-1.67q-.71-2.34-1.43-4.61c-.19-.59-.39-1.17-.58-1.75-.48-1.47-1-2.91-1.45-4.33l-.57-1.63c-.26-.72-.51-1.47-.76-2.18s-.46-1.24-.69-1.86-.46-1.25-.7-1.87-.41-1.14-.62-1.68c-.35-.91-.69-1.79-1-2.67-.06-.15-.12-.3-.17-.45-.6-1.52-1.2-3-1.79-4.45l-.21-.51-.43-1c-.45-1.06-.89-2.13-1.32-3.13l-.39-.9v0l-.56-1.29c-.49-1.11-1-2.18-1.45-3.23l-7.41,7.22a.82.82,0,0,0-.23.73l1.92,11.21a.82.82,0,0,1-1.19.86l-10.06-5.29a.79.79,0,0,0-.76,0l-10.07,5.29a.81.81,0,0,1-1.18-.86L390,243a.83.83,0,0,0-.24-.73l-8.14-7.93a.82.82,0,0,1,.45-1.4l11.26-1.63a.83.83,0,0,0,.61-.45l5-10.2a.83.83,0,0,1,1.47,0l5,10.2a.83.83,0,0,0,.62.45l9.91,1.44c-5.47-11.8-9.61-18.65-9.61-18.65-1.38-2.51-2.73-4.91-4.07-7.24h0l-.16-.27-.32-.56c-5.38-9.33-10.45-17.27-15.23-24l-.05-.07-1.74-2.52-.59-.84c-.43-.63-.87-1.25-1.32-1.88-.21-.3-.43-.6-.64-.91l-1.54-2.14-.44-.6q-1-1.35-2-2.7l0,0v0l-.54-.72c-.51-.68-1-1.37-1.54-2.05l-.71-.93c-.51-.67-1-1.34-1.54-2l-.63-.81c-.67-.86-1.35-1.71-2-2.57l-.13-.17L371,161c-.07-.1-.15-.19-.22-.28-.62-.77-1.25-1.53-1.88-2.3l-.73-.87c-.53-.63-1.06-1.27-1.6-1.9l-.74-.86c-.67-.78-1.34-1.55-2-2.31l-.07-.09-.21-.23-.12-.14c-.73-.81-1.46-1.61-2.2-2.41l-.68-.73c-.56-.6-1.13-1.19-1.69-1.77l-.8-.82c-.59-.61-1.18-1.2-1.78-1.79l-.53-.53-.07-.07-.05,0c-.76-.74-1.52-1.47-2.28-2.17,0,0,0,0,0,0l-.08-.07-.45-.41c-.62-.57-1.24-1.12-1.86-1.66,0,0,49.11,66.06-57.66,107.27" fill="none"/>
    </clipPath>
  </defs>
  <g id="Layer_2" data-name="Layer 2">
    <g id="a">
      <g>
        <g>
          <path d="M552.43,276.21c0,152.55-123.67,276.22-276.22,276.22S0,428.76,0,276.21,123.67,0,276.21,0,552.43,123.67,552.43,276.21" fill="#fff"/>
          <path d="M431.78,276.21A155.57,155.57,0,1,1,276.21,120.64,155.57,155.57,0,0,1,431.78,276.21" fill="#fff"/>
          <path d="M276.21,120.64A155.57,155.57,0,1,1,120.64,276.21,155.57,155.57,0,0,1,276.21,120.64m0-101.06a256.67,256.67,0,0,0-99.92,493.06A256.67,256.67,0,0,0,376.14,39.79a255.17,255.17,0,0,0-99.93-20.21" fill="#fff"/>
          <path d="M276.21,542.91c-147,0-266.69-119.64-266.69-266.7S129.16,9.52,276.21,9.52,542.9,129.16,542.9,276.21s-119.63,266.7-266.69,266.7m0-504.51C145.08,38.4,38.4,145.08,38.4,276.21S145.08,514,276.21,514,514,407.35,514,276.21,407.35,38.4,276.21,38.4" fill="#1b6a36"/>
          <path d="M276.21,120.64A155.57,155.57,0,1,1,120.64,276.21,155.57,155.57,0,0,1,276.21,120.64" fill="#1b6a36"/>
          <path d="M395.52,457.9a37.07,37.07,0,0,1-24.38-9c-10.45-9.12-22-24.09-22.46-24.73-.28-.37-27.59-36.06-43.06-47.11l-.1-.06-2.4-1.28L289.37,369c-1-.43-2-.86-3-1.28l-.38-.17c-1.13-.48-2.29-.95-3.46-1.41l-.81-.32c-.89-.35-1.77-.69-2.66-1l-1.22-.45c-.79-.29-1.57-.58-2.36-.85l-1.41-.5-2.27-.76-1.45-.47-2.34-.73-1.38-.42c-.84-.25-1.73-.5-2.64-.75l-1.18-.33c-1.19-.33-2.47-.66-3.75-1s-2.6-.61-3.85-.89l-1.2-.25c-.91-.19-1.78-.37-2.67-.54l-1.51-.28-2.5-.43-1.58-.25-2.41-.34-1.62-.21c-.78-.1-1.64-.19-2.5-.28l-1.55-.16c-.93-.09-1.93-.16-2.92-.23l-1.1-.08c-1.28-.08-2.62-.14-4-.18l-1.45,0c-.72,0-1.45,0-2.18,0h-.93l-3.93.1c-.64,0-1.27.06-1.9.1l-2.53.16c-.81.06-1.61.15-2.41.24l-2.05.2c-.91.11-1.77.24-2.63.36l-4.2.69-1.46.26-1.5.5h-.89l-2.44.58c-1.17.3-2.43.64-3.68,1l-1.06.29-1.07.3-1.36.47q-4.25,1.39-8,3.06l-.44.2c-1,.45-2.06,1-3.08,1.48l-.83.41c-1.16.6-2.28,1.22-3.33,1.85-.79.48-1.44.89-2.09,1.31-1.18.77-2.12,1.41-3,2l-.44.29L167,372.69l-11.93,6.62-4.08,2-8.86,3.59-1.31.43-5.15,1.46c-.53.13-1,.23-1.51.32l-.26.05c-.51.11-1.06.22-1.59.31s-1.06.16-1.52.22l-1.4.16c-.11,0-.44.06-.77.08s-1,.06-1.49.08l-1,0c-.38,0-.8,0-1.18,0a23.68,23.68,0,0,1-5.47-.67,24.56,24.56,0,0,1-3.36-1.06,26.56,26.56,0,0,1-3.71-1.81,28.67,28.67,0,0,1-3.79-2.65c-.58-.49-1.22-1.06-1.85-1.69a33.29,33.29,0,0,1-6.17-8.53c-.4-.78-.8-1.64-1.19-2.56l-.61-1.66a92.3,92.3,0,0,1-3-14.5c-.29-2.21-.51-4.23-.67-6.16-.36-4.42-.51-9.14-.46-14v-.31c0-1.34.06-2.81.12-4.29.06-1.67.15-3.35.26-5.05l.05-.87c.38-5.45,1-10.94,1.78-16.42.83-5.75,1.91-11.69,3.21-17.65a315.84,315.84,0,0,1,12.67-42.8l.13-.33c1.25-3.1,7.81-19.1,17.5-37.58,7.19-13.63,32.62-58.56,57.94-65,16.19-3.79,30.59,2,38.68,15.53l.4.71c.64,1.23,1.2,2.28,1.8,3.36,4.86,8.71,7.72,10.65,7.75,10.67a36,36,0,0,0,27.65,1.09c6.5-2.34,12.83-6.53,18.83-12.45,10.17-10,12.55-18,14.65-25,1.93-6.45,4.35-14.46,12.23-20l.34-.24c.56-.36,1.09-.7,1.63-1l.37-.21c4.69-2.57,10-3.79,16.88-3.85h1.23l1.46.21c.58.08,1.19.17,1.82.3.24,0,.65.14,1.05.23.86.2,1.73.43,2.62.69l1.23.39c.86.28,1.72.6,2.58.94l.95.38c1,.41,2.06.9,3.15,1.45l.74.39c.78.4,1.64.87,2.5,1.37.24.13.57.33.9.53.8.48,1.52.93,2.25,1.4l.9.6c.91.6,1.76,1.2,2.63,1.83l.53.39c.89.66,1.79,1.35,2.68,2.06l.86.71c.65.53,1.31,1.07,2,1.64l.9.77c.74.65,1.45,1.29,2.17,1.94l.7.64,2.37,2.25.84.83c.7.69,1.36,1.35,2,2l3.45,3.62c.81.87,1.62,1.76,2.41,2.65l.35.38,2.26,2.58,3.25,3.87c.7.83,1.37,1.65,2,2.47l.39.48c.85,1.06,1.56,2,2.27,2.86l3.05,4c.53.69,1.07,1.42,1.61,2.15l.83,1.11c.63.85,1.25,1.69,1.85,2.52l4.65,6.55c.66.94,1.26,1.81,1.84,2.66,5.07,7.09,10.48,15.58,16,25.12l.44.76c1.42,2.48,2.8,4.91,4.19,7.46.65,1.08,4.82,8.21,10.18,19.74l1.11,2.42c.5,1.09,1,2.23,1.53,3.41l1,2.27c.42,1,.83,1.94,1.24,2.92l.84,2c.63,1.53,1.25,3.1,1.88,4.69l.22.57c.33.83.7,1.77,1.07,2.74l3.47,9.59c.55,1.59,1.06,3.11,1.57,4.65l.59,1.82c.53,1.63,1,3.25,1.53,4.89l.51,1.67c.69,2.33,1.34,4.6,2,6.9,2.24,8.22,4.12,16.48,5.59,24.56.73,4,1.37,8.05,1.9,12,.61,4.56,1.11,9.13,1.46,13.57.46,5.75.72,11.48.76,17,0,4.75-.11,9.84-.44,15.11-3.15,38-18.27,64-22.82,71l-.9,1.33a67.5,67.5,0,0,1-3.95,5.67,80.71,80.71,0,0,1-12.72,12.85,37.19,37.19,0,0,1-23.42,8.23M226.08,339.59l2.46,0,1.5,0c1.59,0,3.11.11,4.65.2l1.12.09c1.09.07,2.22.16,3.34.27l1.59.16c.95.1,1.92.2,2.86.32l1.7.22q1.38.18,2.73.39l1.68.26c1,.16,1.89.32,2.82.49l1.53.28,3,.61,1.24.25c1.45.32,2.82.64,4.3,1s2.81.71,4.17,1.08l1.22.34c.95.26,1.92.54,2.89.83l1.46.44,2.6.81,1.48.48,2.52.85,1.45.51c.87.3,1.72.61,2.58.93l1.26.46,2.91,1.12.84.33c1.31.52,2.55,1,3.91,1.6l.37.16,3.13,1.35,6.91,3.19,7.69,3.88,2.57,1.37,1.22.71c17.29,12.09,45.49,48.94,46.69,50.5.1.13,11.09,14.43,20.42,22.56a22.58,22.58,0,0,0,28.69.47A64.28,64.28,0,0,0,420,427.71a49.26,49.26,0,0,0,3.08-4.42l1.05-1.58c4.13-6.39,17.61-29.64,20.46-64,.3-4.78.43-9.51.4-13.93,0-5.19-.28-10.56-.71-16-.34-4.18-.8-8.48-1.38-12.77-.5-3.71-1.1-7.51-1.79-11.31-1.39-7.66-3.18-15.5-5.31-23.3-.6-2.2-1.23-4.36-1.86-6.52l-.5-1.63c-.49-1.58-1-3.13-1.46-4.65l-.57-1.77c-.48-1.45-1-2.91-1.46-4.33l-3.4-9.38c-.31-.8-.65-1.68-1-2.51l-.22-.56c-.57-1.46-1.17-3-1.76-4.38l-.83-2c-.39-.93-.77-1.85-1.15-2.73l-1-2.24c-.48-1.08-1-2.15-1.43-3.17l-1.09-2.38c-5.15-11.08-9.14-17.86-9.58-18.6-1.48-2.69-2.81-5.05-4.16-7.41l-.43-.74c-5.27-9.15-10.41-17.23-15.29-24.05l-6.35-9c-.57-.78-1.15-1.58-1.74-2.37l-.82-1.1c-.51-.68-1-1.36-1.52-2l-5.45-7c-.62-.76-1.24-1.53-1.89-2.3l-3.1-3.68c-.66-.76-1.34-1.54-2.07-2.36l-.33-.37c-.75-.84-1.49-1.66-2.21-2.43l-3.21-3.37c-.6-.62-1.2-1.22-1.83-1.84l-.79-.77c-.66-.65-1.36-1.31-2.05-2l-.65-.58c-.63-.58-1.26-1.15-1.89-1.7l-.83-.71-1.68-1.4-.82-.67c-.68-.54-1.43-1.12-2.13-1.64l-.49-.36c-.72-.52-1.42-1-2.11-1.47l-.8-.53c-.52-.34-1.09-.7-1.63-1l-.77-.46c-.72-.42-1.37-.77-2-1.1l-.49-.26c-.77-.39-1.54-.74-2.29-1.05l-.56-.23c-.71-.28-1.29-.49-1.86-.68l-.85-.27c-.52-.15-1.12-.31-1.74-.45l-.49-.12c-.42-.08-.73-.12-1-.16l-.5-.06c-4.29,0-7.42.68-9.83,2-.33.19-.67.41-1,.62-3.52,2.45-4.78,6.2-6.56,12.1-2.35,7.82-5.57,18.53-18.43,31.24-7.53,7.45-15.68,12.78-24.22,15.86a50.77,50.77,0,0,1-39.75-2c-2.87-1.51-7.56-5.6-13.63-16.47-.69-1.24-1.34-2.46-1.92-3.61l-.15-.26c-6-10-15.47-10.17-22.35-8.55-14.3,3.63-34.61,31.49-48.33,57.48-9.35,17.84-15.67,33.23-16.84,36.13a300.72,300.72,0,0,0-12.09,40.82c-1.22,5.62-2.24,11.22-3,16.63-.74,5.13-1.3,10.25-1.65,15.23l0,.83c-.11,1.64-.19,3.18-.24,4.7,0,1.35-.1,2.69-.11,3.89v.31c-.06,4.44.08,8.69.4,12.66.14,1.69.33,3.45.59,5.4a79.12,79.12,0,0,0,2.47,12l.18.49c.23.51.45,1,.68,1.44a18.61,18.61,0,0,0,3.41,4.77c.32.32.62.58.9.82a14.18,14.18,0,0,0,1.78,1.26,12.85,12.85,0,0,0,1.71.82,10.25,10.25,0,0,0,1.36.43,8.27,8.27,0,0,0,2,.26l1.68,0c.26,0,.55,0,.83,0l1.23-.14,1.16-.15,1.06-.21.33-.07.93-.19,8.55-2.78,7.7-3.51,11.2-6.22,3.07-1.94c1-.73,2.12-1.49,3.48-2.37.77-.5,1.56-1,2.37-1.49,1.43-.86,2.8-1.62,4.37-2.44l.9-.44c1.19-.61,2.44-1.21,3.74-1.79l.48-.22a98.68,98.68,0,0,1,9.28-3.54l.78-.27L189,345c.49-.15,1-.29,1.53-.43l.93-.26c1.36-.38,2.76-.76,4.11-1.1s2.43-.59,3.62-.85l1.48-.31,2.19-.4,4.6-.74c1-.16,2-.31,3.05-.42l2.24-.23c.94-.1,1.87-.2,2.8-.27.4,0,.83-.06,1.25-.08l1.26-.08c1-.06,1.77-.11,2.53-.14l3-.08,1.59,0h.9Z" fill="#1b6a36"/>
          <path d="M429.31,425.79c3.92-6.06,18.62-31,21.65-67.46.3-4.81.46-9.71.42-14.6,0-5.39-.28-10.93-.73-16.49-.35-4.3-.82-8.73-1.42-13.17-.53-3.86-1.15-7.77-1.85-11.64-1.43-7.87-3.26-15.91-5.45-23.92-.61-2.26-1.25-4.47-1.91-6.68l-.52-1.69c-.48-1.61-1-3.19-1.48-4.75l-.59-1.8c-.49-1.51-1-3-1.49-4.45l-3.44-9.48c-.36-.94-.71-1.85-1.05-2.71l-.19-.5c-.62-1.56-1.23-3.1-1.83-4.55l-.85-2c-.4-.94-.79-1.89-1.19-2.81l-1-2.24c-.51-1.15-1-2.25-1.48-3.3l-1.1-2.39c-5.21-11.21-9.25-18.13-9.95-19.3-1.37-2.51-2.73-4.91-4.09-7.3l-.46-.79c-5.38-9.33-10.65-17.61-15.67-24.63-.57-.84-1.16-1.69-1.78-2.59l-2.57-3.65-1.67-2.32-.35-.49-1.79-2.44-.83-1.11-1.58-2.1-.74-1-1.58-2.05-.65-.84L378,155.9l-.17-.21-.19-.23-.14-.17c-.64-.8-1.29-1.59-2-2.39l-.74-.9c-.55-.65-1.1-1.31-1.65-1.95l-.77-.91c-.71-.81-1.41-1.62-2.16-2.46l-.37-.41c-.76-.86-1.53-1.71-2.29-2.52l-.72-.77-1.76-1.86-.86-.88-1.91-1.92-.81-.79c-.73-.71-1.46-1.41-2.2-2.09l-.71-.65-2-1.8-.86-.73c-.62-.53-1.23-1-1.85-1.55l-.8-.65c-.82-.65-1.64-1.29-2.41-1.86l-.54-.39c-.79-.58-1.57-1.12-2.33-1.64l-.87-.56c-.64-.42-1.29-.83-1.9-1.2l-.93-.55c-.75-.43-1.51-.84-2.25-1.23l-.58-.31c-.94-.46-1.87-.89-2.76-1.26-.23-.1-.45-.19-.78-.31-.73-.29-1.45-.55-2.15-.79l-1-.32c-.74-.22-1.48-.41-2.26-.59-.27-.07-.55-.13-.78-.17-.47-.1-.93-.17-1.4-.23l-.91-.13h-.66c-5.58,0-9.81,1-13.34,2.91l-.2.11c-.44.26-.87.54-1.3.81l-.21.14c-5.77,4-7.6,10.13-9.37,16-2.24,7.46-5,16.73-16.54,28.1-6.77,6.69-14,11.45-21.53,14.16a43.11,43.11,0,0,1-33.78-1.6c-1-.54-4.78-3.09-10.6-13.52-.65-1.17-1.26-2.3-1.8-3.36l-.28-.52c-6.46-10.76-17.53-15.2-30.51-12.15-22.94,5.81-48.33,52-53.2,61.24-9.52,18.17-16,33.86-17.16,36.82l-.08.22A309.21,309.21,0,0,0,106.3,289.7c-1.26,5.81-2.31,11.58-3.12,17.15-.77,5.31-1.34,10.58-1.71,15.77l0,.93c-.11,1.64-.19,3.25-.26,4.84,0,1.42-.09,2.82-.11,4.09v.33c-.06,4.65.09,9.13.43,13.32.15,1.81.35,3.7.63,5.78a85.92,85.92,0,0,0,2.78,13.33l.33.89c.32.75.65,1.45,1,2.1a25.85,25.85,0,0,0,4.8,6.65c.46.46.93.88,1.37,1.25a20.8,20.8,0,0,0,2.77,1.95,20.32,20.32,0,0,0,2.69,1.31,19.51,19.51,0,0,0,2.4.76,16.11,16.11,0,0,0,3.67.46h0l1,0,1,0q.61,0,1.2-.06l.56-.06,1-.13.21,0,1.17-.17c.46-.07.92-.16,1.38-.26l.3-.06,1.17-.25.43-.1,4.28-1.23,1-.33,1.87-.68.9-.33,1.08-.44,4.38-1.88h0l.82-.39,3.18-1.54,11.56-6.42L165.9,364c1-.71,2-1.43,3.32-2.28.72-.46,1.44-.92,2.18-1.36l.14-.09c1.17-.7,2.41-1.39,3.84-2.13l.77-.39c1.14-.57,2.28-1.13,3.47-1.66l.41-.18c2.75-1.21,5.65-2.32,8.62-3.3l.88-.3.7-.23c.42-.13.84-.25,1.27-.36l1-.28c1.33-.38,2.66-.74,3.94-1.06s2.26-.55,3.39-.79h.5l.82-.28c.8-.16,1.6-.29,2.4-.44l3.77-.61c1-.15,2.07-.31,3.11-.43l.78-.08.95-.09c1-.11,2-.22,3-.3l1.06-.07,1.33-.08c.79-.05,1.58-.1,2.36-.13l1.32,0,1.54,0c.48,0,.95,0,1.45,0h.84c.89,0,1.78,0,2.67,0l1.17,0c1.43,0,2.86.1,4.31.19l1,.08c1.06.08,2.13.15,3.18.25l1.54.16,2.72.31,1.63.21,2.59.37,1.63.26c.88.14,1.75.29,2.63.45l1.54.28c.94.18,1.87.38,2.8.57l1.27.27c1.32.28,2.63.59,4,.93s2.69.68,4,1l1.15.33,2.81.8,1.4.43c.83.25,1.67.51,2.47.77l1.46.47,2.41.81,1.41.5c.83.29,1.64.58,2.47.89l1.25.46,2.76,1.06.86.34c1.22.48,2.42,1,3.73,1.52l.24.11c1.05.44,2.08.89,3.14,1.35l1,.47,2.3,1,1.25.58,2.1,1,4.39,2.17,2.11,1.09,1,.51,2.46,1.32.5.27c16.54,11.56,45,48.92,45,48.92h0a144.91,144.91,0,0,0,21.45,23.65,30,30,0,0,0,38.24.64,72.43,72.43,0,0,0,11.54-11.65,57.82,57.82,0,0,0,3.51-5l.11-.17.86-1.28" fill="#fff"/>
          <path d="M331.36,180.52a.78.78,0,0,1,.24.72l-1.92,11.21a.81.81,0,0,0,1.18.86L340.93,188a.79.79,0,0,1,.76,0l10.07,5.29a.81.81,0,0,0,1.18-.86L351,181.24a.8.8,0,0,1,.23-.72l8.15-7.94a.83.83,0,0,0-.46-1.4l-11.25-1.63a.8.8,0,0,1-.61-.45l-5-10.19a.81.81,0,0,0-1.46,0l-5,10.19a.83.83,0,0,1-.61.45l-11.25,1.63a.82.82,0,0,0-.46,1.4l8.14,7.94Z" fill="#fff"/>
          <path d="M335,377l6-3.14a.79.79,0,0,1,.76,0l10.07,5.29a.81.81,0,0,0,1.18-.86L351,367.09a.81.81,0,0,1,.24-.72l8.14-7.94A.81.81,0,0,0,359,357l-11.26-1.64a.83.83,0,0,1-.61-.45l-5-10.19a.81.81,0,0,0-1.46,0l-5,10.19a.83.83,0,0,1-.62.45L323.68,357a.82.82,0,0,0-.46,1.39l8.15,7.94a.8.8,0,0,1,.23.72l-1.15,6.7,1.3.86c1.07.8,2.13,1.57,3.2,2.36" fill="#fff"/>
          <path d="M331.75,374.65l-1.3-.85,1.3.85c1.07.8,2.13,1.57,3.2,2.36-1.07-.79-2.13-1.56-3.2-2.36" fill="#fff"/>
          <path d="M331.75,374.65l-1.3-.86h0l1.3.85" fill="#fff"/>
          <path d="M335,377h0c-1.07-.79-2.13-1.56-3.2-2.36,1.07.8,2.13,1.57,3.2,2.36" fill="#fff"/>
          <path d="M273,242.29a.82.82,0,0,1,.23.73l-1.92,11.21a.82.82,0,0,0,1.19.86l10.06-5.29a.79.79,0,0,1,.76,0l10.07,5.29a.81.81,0,0,0,1.18-.86L292.62,243a.83.83,0,0,1,.24-.73l8.14-7.93a.82.82,0,0,0-.45-1.4l-11.26-1.63a.83.83,0,0,1-.61-.45l-5-10.2a.83.83,0,0,0-1.47,0l-5,10.2a.83.83,0,0,1-.62.45L265.28,233a.82.82,0,0,0-.46,1.4l8.15,7.93Z" fill="#fff"/>
          <path d="M417.06,235.07h0l-.42-.93-.64-1.37,1.06,2.3" fill="#fff"/>
          <path d="M405.47,230.88l-5-10.2a.83.83,0,0,0-1.47,0l-5,10.2a.83.83,0,0,1-.61.45L382.07,233a.82.82,0,0,0-.45,1.4l8.14,7.93a.83.83,0,0,1,.24.73l-1.92,11.21a.81.81,0,0,0,1.18.86l10.07-5.29a.79.79,0,0,1,.76,0l10.06,5.29a.82.82,0,0,0,1.19-.86L409.42,243a.82.82,0,0,1,.23-.73l7.41-7.22-1.06-2.3-9.91-1.44a.83.83,0,0,1-.62-.45" fill="#fff"/>
          <path d="M368.07,292.22a.82.82,0,0,1,.23.73l-.77,4.49a.82.82,0,0,0,1.19.86l4-2.12a.85.85,0,0,1,.76,0l4,2.12a.82.82,0,0,0,1.19-.86L378,293a.83.83,0,0,1,.24-.73l3.26-3.18a.82.82,0,0,0-.45-1.39L376.5,287a.79.79,0,0,1-.62-.44l-2-4.09a.81.81,0,0,0-1.46,0l-2,4.09a.79.79,0,0,1-.61.44l-4.51.66a.82.82,0,0,0-.46,1.39Z" fill="#fff"/>
          <path d="M353.19,305.82h0q8,1.47,15.87,3.07c26.23,5.32,44,7.14,56,7.32,2.45,0,15.3-.59,13.8-12.25-1.47-8.08-3.28-15.84-5.28-23.18,9.84,41.54-80.41,25-80.41,25" fill="#fff"/>
          <path d="M434.9,285.71q.84,3.32,1.62,6.74-.78-3.42-1.62-6.74" fill="#fff"/>
          <path d="M177.48,315c-3.4.49-6.73,1-10,1.6,5.42-.72,8.48-1.23,10-1.6" fill="#1b6a36"/>
          <path d="M433.6,280.79h0q-.9-3.3-1.85-6.46c-.17-.57-.35-1.12-.52-1.68q-.71-2.34-1.43-4.61c-.19-.59-.39-1.17-.58-1.75-.48-1.47-1-2.91-1.45-4.33l-.57-1.63c-.26-.72-.51-1.47-.76-2.18s-.47-1.24-.7-1.86l-.69-1.87c-.2-.55-.41-1.13-.62-1.68-.35-.91-.69-1.79-1-2.67-.06-.15-.12-.3-.17-.45-.6-1.52-1.2-3-1.79-4.45l-.21-.51-.44-1c-.44-1.06-.88-2.12-1.31-3.13l-.39-.9v0l-.56-1.29c-.49-1.11-1-2.18-1.45-3.23h0l-7.41,7.23a.79.79,0,0,0-.23.72l1.92,11.21a.82.82,0,0,1-1.19.86l-10.06-5.29a.79.79,0,0,0-.76,0l-10.07,5.29a.81.81,0,0,1-1.18-.86L390,243a.8.8,0,0,0-.24-.72l-8.14-7.94a.82.82,0,0,1,.45-1.4l11.26-1.63a.83.83,0,0,0,.61-.45l5-10.2a.83.83,0,0,1,1.47,0l5,10.2a.83.83,0,0,0,.62.45l9.91,1.44c-5.48-11.79-9.61-18.65-9.61-18.65-1.38-2.51-2.73-4.91-4.07-7.24h0a2.59,2.59,0,0,0-.15-.27c-.08-.13-.19-.33-.32-.56-5.38-9.33-10.45-17.27-15.23-24l-.05-.07-1.74-2.52-.59-.84c-.43-.62-.87-1.25-1.32-1.88-.21-.3-.43-.6-.64-.91l-1.54-2.14-.44-.6-2-2.7,0,0v0l-.54-.72c-.51-.68-1-1.37-1.54-2.05l-.71-.93-1.54-2-.63-.81c-.67-.86-1.35-1.71-2-2.57l-.13-.17L371,161c-.07-.1-.15-.19-.22-.28-.62-.77-1.25-1.53-1.88-2.3l-.73-.87c-.53-.63-1.06-1.27-1.6-1.9-.25-.28-.49-.57-.74-.86-.67-.78-1.34-1.55-2-2.31l-.07-.08-.21-.24-.12-.13c-.73-.82-1.46-1.62-2.2-2.41-.22-.25-.45-.49-.68-.73-.56-.6-1.13-1.2-1.69-1.78l-.8-.82c-.59-.61-1.18-1.2-1.78-1.79-.18-.17-.35-.35-.53-.53l-.07-.07-.05,0c-.76-.74-1.52-1.47-2.28-2.17,0,0,0,0,0,0l-.08-.07-.45-.41c-.62-.57-1.24-1.12-1.86-1.66l-.79-.68c-.57-.49-1.13-1-1.7-1.42l-.73-.6c-.76-.6-1.52-1.19-2.28-1.75l-.09-.07-.15-.11-.05,0c-.72-.53-1.45-1-2.17-1.52l-.73-.48q-.84-.54-1.68-1l-.76-.45c-.64-.37-1.27-.72-1.9-1l-.42-.23h-.06c-.75-.38-1.51-.73-2.26-1-.2-.09-.4-.16-.61-.24-.56-.23-1.12-.43-1.68-.62l-.75-.23c-.55-.17-1.1-.31-1.65-.44l-.61-.14c-.4-.08-.8-.12-1.2-.18-4.2,0-7.12.67-9.26,1.85-.31.18-.62.37-.92.57-8.34,5.83-3.11,21.76-24.78,43.18-8.37,8.27-16.76,13.29-24.68,16.14-18.06,6.5-33.63,1.65-40.72-2.08-5.34-2.8-10.47-10.38-14.14-17-.7-1.26-1.35-2.49-1.94-3.64h0c-5.6-9.32-14.13-9.83-21-8.22-20.37,5.16-47.67,56.87-47.67,56.87-9.32,17.79-15.62,33.13-16.79,36a299.82,299.82,0,0,0-12,40.62q-1.86,8.58-3,16.55c-.76,5.23-1.29,10.25-1.63,15,100.12-34.71,176-29.69,243.12-17.29h0s90.25,16.51,80.41-25M301,234.36l-8.14,7.94a.8.8,0,0,0-.24.72l1.92,11.21a.81.81,0,0,1-1.18.86l-10.07-5.29a.79.79,0,0,0-.76,0l-10.06,5.29a.82.82,0,0,1-1.19-.86L273.2,243a.82.82,0,0,0-.23-.73l-8.15-7.93a.82.82,0,0,1,.46-1.4l11.25-1.63a.83.83,0,0,0,.62-.45l5-10.2a.83.83,0,0,1,1.47,0l5,10.2a.83.83,0,0,0,.61.45L300.55,233a.82.82,0,0,1,.45,1.4m58.4-61.78-8.15,7.94a.8.8,0,0,0-.23.72l1.92,11.21a.82.82,0,0,1-1.19.86L341.69,188a.79.79,0,0,0-.76,0l-10.07,5.29a.81.81,0,0,1-1.18-.86l1.92-11.21a.81.81,0,0,0-.24-.72l-8.14-7.94a.82.82,0,0,1,.45-1.4l11.26-1.63a.83.83,0,0,0,.61-.45l5-10.2a.82.82,0,0,1,1.46,0l5,10.2a.83.83,0,0,0,.62.45l11.25,1.63a.83.83,0,0,1,.46,1.4m22.06,116.47-3.26,3.18a.8.8,0,0,0-.24.72l.77,4.49a.82.82,0,0,1-1.19.86l-4-2.12a.85.85,0,0,0-.76,0l-4,2.12a.82.82,0,0,1-1.19-.86l.77-4.49a.79.79,0,0,0-.23-.72l-3.27-3.18a.82.82,0,0,1,.46-1.4l4.51-.65a.83.83,0,0,0,.61-.45l2-4.09a.81.81,0,0,1,1.46,0l2,4.09a.83.83,0,0,0,.62.45l4.51.65a.82.82,0,0,1,.45,1.4" fill="#1b6a36"/>
          <path d="M414.26,386.84c-3.43-3-6.41-5.43-8.55-7.1-1.14-.83-2.29-1.69-3.49-2.62-56-44-115.78-60.66-167.63-64.79A295.17,295.17,0,0,0,177.48,315c-1.49.37-4.56.88-10,1.6h-.08a125.34,125.34,0,0,0-18.88,4c-14.41,4.23-22.73,9.59-23.47,10.08-7.18,4.8-14,11.56-14.4,20.14a76.13,76.13,0,0,0,2.48,12c.24.55.48,1.07.73,1.55a17.39,17.39,0,0,0,3.19,4.47c.28.27.55.52.83.75a11.42,11.42,0,0,0,1.6,1.12,11.18,11.18,0,0,0,1.48.73,9.54,9.54,0,0,0,1.27.4,8.12,8.12,0,0,0,1.59.22H124l.69,0,.69,0c.34,0,.67,0,1-.05h0l.29,0,.88-.11c.35,0,.7-.08,1.06-.14l1.22-.24c.37-.07.73-.14,1.1-.23l.78-.2.48-.12h0l1.12-.3h0l1.3-.41h0l1.14-.37h0l.74-.27.6-.21,1.14-.42,1.37-.56,1.12-.46h0l1.35-.59h0l1.12-.5h0l.16-.08,1.23-.57,1.07-.52h0l1.37-.68,1-.53h0l1.31-.69.05,0,1-.52h0l1.25-.69.08,0,1-.52h0l1.21-.69.12-.07.84-.48,1.38-.82.68-.4h0l1.09-.66.32-.2.51-.31h0l.88-.55.59-.36.29-.18c1.22-.91,2.48-1.75,3.75-2.57.8-.52,1.61-1,2.42-1.52l.16-.11h0c1.4-.84,2.82-1.62,4.26-2.37l.88-.44c1.26-.63,2.53-1.25,3.81-1.82l.47-.21q4.62-2,9.43-3.61c.58-.19,1.14-.4,1.73-.58.82-.26,1.64-.46,2.47-.7,1.41-.4,2.82-.77,4.23-1.13s3-.73,4.54-1h0c1.18-.24,2.35-.44,3.53-.65l1.58-.29.22,0,1.46-.21c1.23-.18,2.45-.36,3.67-.51.56-.07,1.13-.11,1.69-.17,1.14-.12,2.29-.24,3.42-.34l2-.12c1-.07,2-.14,3.06-.18.73,0,1.45,0,2.17-.05h0c.8,0,1.6-.06,2.39-.06h.93c1,0,2,0,3.08,0l1,0c1.53,0,3,.11,4.57.21l1.14.08,3.39.27,1.62.17c1,.1,1.92.2,2.88.32l1.73.22,2.74.4c.58.08,1.16.17,1.73.27q1.4.22,2.76.48l1.62.29,3,.61,1.33.28c1.39.3,2.77.62,4.14,1l.11,0c1.41.35,2.82.71,4.22,1.09l1.18.33,2.95.84,1.45.45c.88.26,1.76.54,2.62.81l1.51.5c.85.28,1.7.56,2.53.85.49.17,1,.33,1.46.51.87.3,1.72.61,2.57.92l1.32.49,2.9,1.12.88.34c1.27.51,2.52,1,3.76,1.54l.36.15c1.1.46,2.18.93,3.25,1.4l1.11.5,2.42,1.1,1.25.58,2.2,1.05c.43.2.85.4,1.26.61l2.13,1.05,1.19.6,2.17,1.12,1,.53,2.57,1.37.5.27,3,1.65.75.43,2.1,1.2,1,.58,1.76,1,1,.62,1.59,1,1,.62,1.53,1,.9.57,1.59,1,.7.46.86.56,1.15-6.7a.81.81,0,0,0-.23-.72l-8.15-7.94a.82.82,0,0,1,.46-1.39l11.25-1.64a.83.83,0,0,0,.62-.45l5-10.19a.81.81,0,0,1,1.46,0l5,10.19a.83.83,0,0,0,.61.45L359,357a.81.81,0,0,1,.45,1.39l-8.14,7.94a.82.82,0,0,0-.24.72l1.92,11.21a.81.81,0,0,1-1.18.86l-10.07-5.29a.79.79,0,0,0-.76,0L335,377c3.71,2.73,7.39,5.44,11,8h0q2.2,1.59,4.39,3.13l1.38,1,3,2.08,1.64,1.14,2.64,1.8,1.76,1.19,2.47,1.64,1.79,1.17,2.4,1.55c.59.37,1.18.75,1.77,1.11l2.38,1.47c.56.35,1.13.69,1.7,1l2.4,1.41,1.6.92,2.57,1.42c.45.24.9.5,1.35.73,1.15.61,2.28,1.19,3.41,1.75.14.07.28.15.42.21,1.26.62,2.51,1.2,3.74,1.75l1.12.47c.84.37,1.69.72,2.52,1.05l1.37.51c.73.28,1.46.55,2.18.79l1.43.45q1,.33,2,.6c.48.14,1,.25,1.42.37.66.16,1.3.3,1.94.43.47.1.94.18,1.4.26.63.11,1.26.19,1.88.27l1.33.15c.63.05,1.25.07,1.86.09l1.29,0,1.06-.05c.27,0,.53,0,.8-.06l.81-.05c.36,0,.71-.1,1.07-.15s1-.17,1.51-.28.69-.15,1-.24h0c.49-.13,1-.28,1.46-.45l1-.34c.49-.19,1-.42,1.44-.64.3-.14.59-.27.88-.43.45-.24.88-.51,1.32-.79l.23-.14h0c.22-.14.45-.26.67-.42h0a22.76,22.76,0,0,0,2.11-1.65h0l.15-.15h0c.62-.56,1.23-1.16,1.82-1.81h0c.17-.19.34-.41.51-.6-1.42-9.95-11.48-19.54-14.13-21.91" fill="#1b6a36"/>
          <path d="M440.55,374.68c-.12.77-.23,1.53-.36,2.3.13-.77.24-1.53.36-2.3" fill="#1b6a36"/>
          <path d="M441.46,368.12l.18-1.74c-.11,1.06-.25,2.12-.38,3.19.06-.49.14-1,.2-1.45" fill="#1b6a36"/>
          <path d="M442.24,359.63c.18-2.46.3-4.9.38-7.33-.08,2.43-.2,4.87-.38,7.33" fill="#1b6a36"/>
          <path d="M441.26,369.57c-.22,1.7-.45,3.4-.71,5.11.26-1.71.49-3.41.71-5.11" fill="#1b6a36"/>
          <path d="M441.88,364.1c.12-1.23.21-2.47.3-3.7-.12,1.66-.27,3.33-.44,5,.05-.43.1-.86.14-1.3" fill="#1b6a36"/>
          <path d="M441.74,365.4c0,.33-.07.65-.1,1,0-.33.07-.65.1-1" fill="#1b6a36"/>
          <path d="M442.24,359.76a.53.53,0,0,1,0-.13c0,.25-.05.51-.07.77l.06-.64" fill="#1b6a36"/>
          <path d="M428.51,408.61c.42-.5.84-1,1.24-1.54h0c-.4.54-.82,1.05-1.25,1.54h0" fill="#1b6a36"/>
          <path d="M357.72,410.38c.36.51.7,1,1,1.57a137,137,0,0,0,22,24.82,21.32,21.32,0,0,0,27.12.44A63,63,0,0,0,418,427a50.75,50.75,0,0,0,3.18-4.59l1.47-2.17c1.5-2.22,3.62-5.33,3.62-5.33a38.58,38.58,0,0,1-19.71,7.73c-23.62,2.69-48.85-12.22-48.85-12.22" fill="#1b6a36"/>
          <path d="M440.66,315.23q-.77-5.72-1.78-11.26c1.5,11.66-11.35,12.24-13.8,12.25-12-.18-29.76-2-56-7.32q-7.86-1.59-15.87-3.07c-67.17-12.4-143-17.42-243.12,17.3h0a2.64,2.64,0,0,0,0,.29c0,.24,0,.46,0,.7h0a369.25,369.25,0,0,1,124.55-11.79c51.85,4.13,111.62,20.82,167.63,64.79,1.2.93,2.35,1.79,3.49,2.62,2.14,1.67,5.13,4.08,8.55,7.1,2.65,2.37,12.71,12,14.13,21.91h0a1.71,1.71,0,0,0,.11-.14c.43-.49.85-1,1.25-1.54.24-.32.46-.66.69-1,.36-.53.72-1.07,1.07-1.64l.06-.08c.21-.35.41-.71.61-1.08.33-.58.65-1.17,1-1.79.21-.43.43-.87.63-1.31.31-.65.6-1.33.89-2,.2-.47.39-.94.58-1.43.29-.74.56-1.52.83-2.3.17-.5.34-1,.5-1.49.28-.89.55-1.84.81-2.79.07-.23.14-.45.2-.68s.13-.45.19-.68.15-.66.23-1c.28-1.15.57-2.31.83-3.54a183.77,183.77,0,0,0,3.4-24.52c.38-5.37.54-10.7.5-16s-.29-10.66-.7-15.86q-.53-6.45-1.38-12.71" fill="#fed500"/>
          <path d="M110,324.12c-.1,1.55-.18,3.09-.24,4.6,0,1.34-.09,2.68-.11,4v.21c0,4.43.08,8.61.4,12.51.15,1.86.36,3.62.59,5.35.44-8.58,7.22-15.34,14.4-20.14l.24-.15c1.61-1,9.76-6,23.23-9.93a125.34,125.34,0,0,1,18.88-4h.08c3.24-.58,6.57-1.11,10-1.6a295.17,295.17,0,0,1,57.11-2.63A369.25,369.25,0,0,0,110,324.12" fill="#fff"/>
        </g>
        <g clip-path="url(#clip-path)">
          <g>
            <rect x="364.32" y="281.85" width="2.73" height="16.76" fill="#005c26"/>
            <rect x="367.05" y="281.85" width="3.06" height="16.76" fill="#005b26"/>
            <rect x="370.11" y="281.85" width="3.06" height="16.76" fill="#005b25"/>
            <rect x="373.17" y="281.85" width="3.06" height="16.76" fill="#005a25"/>
            <rect x="376.23" y="281.85" width="3.06" height="16.76" fill="#005a24"/>
            <rect x="379.29" y="281.85" width="2.66" height="16.76" fill="#005924"/>
            <rect x="322.74" y="158.3" width="1.49" height="35.33" fill="#00612b"/>
            <rect x="324.23" y="158.3" width="3.06" height="35.33" fill="#00612b"/>
            <rect x="327.29" y="158.3" width="3.06" height="35.33" fill="#00602b"/>
            <rect x="330.34" y="158.3" width="3.06" height="35.33" fill="#00602a"/>
            <rect x="333.4" y="158.3" width="3.06" height="35.33" fill="#00602a"/>
            <rect x="336.46" y="158.3" width="3.06" height="35.33" fill="#005f2a"/>
            <rect x="339.52" y="158.3" width="3.06" height="35.33" fill="#005f29"/>
            <rect x="342.58" y="158.3" width="3.06" height="35.33" fill="#005e29"/>
            <rect x="345.64" y="158.3" width="3.06" height="35.33" fill="#005e29"/>
            <rect x="348.7" y="158.3" width="3.06" height="35.33" fill="#005e28"/>
            <rect x="351.76" y="158.3" width="3.06" height="35.33" fill="#005d28"/>
            <rect x="354.82" y="158.3" width="3.06" height="35.33" fill="#005d27"/>
            <rect x="357.88" y="158.3" width="2.01" height="35.33" fill="#005c27"/>
            <rect x="264.34" y="220.08" width="1.77" height="35.33" fill="#0f6630"/>
            <rect x="266.11" y="220.08" width="3.06" height="35.33" fill="#0e6530"/>
            <rect x="269.17" y="220.08" width="3.06" height="35.33" fill="#0e6530"/>
            <rect x="272.22" y="220.08" width="3.06" height="35.33" fill="#0d6530"/>
            <rect x="275.28" y="220.08" width="3.06" height="35.33" fill="#0c6530"/>
            <rect x="278.34" y="220.08" width="3.06" height="35.33" fill="#0b652f"/>
            <rect x="281.4" y="220.08" width="3.06" height="35.33" fill="#0a642f"/>
            <rect x="284.46" y="220.08" width="3.06" height="35.33" fill="#0a642f"/>
            <rect x="287.52" y="220.08" width="3.06" height="35.33" fill="#09642f"/>
            <rect x="290.58" y="220.08" width="3.06" height="35.33" fill="#08642e"/>
            <rect x="293.64" y="220.08" width="3.06" height="35.33" fill="#07632e"/>
            <rect x="296.7" y="220.08" width="3.06" height="35.33" fill="#06632e"/>
            <rect x="299.76" y="220.08" width="1.73" height="35.33" fill="#05632e"/>
            <rect x="110.1" y="127.17" width="3.06" height="195.96" fill="#1b6a36"/>
            <rect x="113.16" y="127.17" width="3.06" height="195.96" fill="#1b6a36"/>
            <rect x="116.22" y="127.17" width="3.06" height="195.96" fill="#1b6a36"/>
            <rect x="119.28" y="127.17" width="3.06" height="195.96" fill="#1b6a36"/>
            <rect x="122.34" y="127.17" width="3.06" height="195.96" fill="#1b6a36"/>
            <rect x="125.4" y="127.17" width="3.06" height="195.96" fill="#1b6a35"/>
            <rect x="128.45" y="127.17" width="3.06" height="195.96" fill="#1b6a35"/>
            <rect x="131.51" y="127.17" width="3.06" height="195.96" fill="#1b6a35"/>
            <rect x="134.57" y="127.17" width="3.06" height="195.96" fill="#1b6a35"/>
            <rect x="137.63" y="127.17" width="3.06" height="195.96" fill="#1b6a35"/>
            <rect x="140.69" y="127.17" width="3.06" height="195.96" fill="#1b6a35"/>
            <rect x="143.75" y="127.17" width="3.06" height="195.96" fill="#1b6a35"/>
            <rect x="146.81" y="127.17" width="3.06" height="195.96" fill="#1a6a35"/>
            <rect x="149.87" y="127.17" width="3.06" height="195.96" fill="#1a6935"/>
            <rect x="152.93" y="127.17" width="3.06" height="195.96" fill="#1a6935"/>
            <rect x="155.99" y="127.17" width="3.06" height="195.96" fill="#1a6935"/>
            <rect x="159.04" y="127.17" width="3.06" height="195.96" fill="#1a6935"/>
            <rect x="162.1" y="127.17" width="3.06" height="195.96" fill="#1a6935"/>
            <rect x="165.16" y="127.17" width="3.06" height="195.96" fill="#1a6935"/>
            <rect x="168.22" y="127.17" width="3.06" height="195.96" fill="#1a6935"/>
            <rect x="171.28" y="127.17" width="3.06" height="195.96" fill="#196935"/>
            <rect x="174.34" y="127.17" width="3.06" height="195.96" fill="#196935"/>
            <rect x="177.4" y="127.17" width="3.06" height="195.96" fill="#196935"/>
            <rect x="180.46" y="127.17" width="3.06" height="195.96" fill="#196935"/>
            <rect x="183.52" y="127.17" width="3.06" height="195.96" fill="#196935"/>
            <rect x="186.57" y="127.17" width="3.06" height="195.96" fill="#186934"/>
            <rect x="189.63" y="127.17" width="3.06" height="195.96" fill="#186934"/>
            <rect x="192.69" y="127.17" width="3.06" height="195.96" fill="#186934"/>
            <rect x="195.75" y="127.17" width="3.06" height="195.96" fill="#186934"/>
            <rect x="198.81" y="127.17" width="3.06" height="195.96" fill="#176934"/>
            <rect x="201.87" y="127.17" width="3.06" height="195.96" fill="#176834"/>
            <rect x="204.93" y="127.17" width="3.06" height="195.96" fill="#176834"/>
            <rect x="207.99" y="127.17" width="3.06" height="195.96" fill="#176834"/>
            <rect x="211.05" y="127.17" width="3.06" height="195.96" fill="#166834"/>
            <rect x="214.11" y="127.17" width="3.06" height="195.96" fill="#166833"/>
            <rect x="217.16" y="127.17" width="3.06" height="195.96" fill="#166833"/>
            <rect x="220.22" y="127.17" width="3.06" height="195.96" fill="#156833"/>
            <rect x="223.28" y="127.17" width="3.06" height="195.96" fill="#156833"/>
            <rect x="226.34" y="127.17" width="3.06" height="195.96" fill="#156833"/>
            <rect x="229.4" y="127.17" width="3.06" height="195.96" fill="#146832"/>
            <rect x="232.46" y="127.17" width="3.06" height="195.96" fill="#146732"/>
            <rect x="235.52" y="127.17" width="3.06" height="195.96" fill="#136732"/>
            <rect x="238.58" y="127.17" width="3.06" height="195.96" fill="#136732"/>
            <rect x="241.64" y="127.17" width="3.06" height="195.96" fill="#136732"/>
            <rect x="244.69" y="127.17" width="3.06" height="195.96" fill="#126732"/>
            <rect x="247.75" y="127.17" width="3.06" height="195.96" fill="#126731"/>
            <rect x="250.81" y="127.17" width="3.06" height="195.96" fill="#116631"/>
            <rect x="253.87" y="127.17" width="3.06" height="195.96" fill="#116631"/>
            <rect x="256.93" y="127.17" width="3.06" height="195.96" fill="#106631"/>
            <rect x="259.99" y="127.17" width="3.06" height="195.96" fill="#106631"/>
            <rect x="263.05" y="127.17" width="3.06" height="195.96" fill="#0f6630"/>
            <rect x="266.11" y="127.17" width="3.06" height="195.96" fill="#0e6530"/>
            <rect x="269.17" y="127.17" width="3.06" height="195.96" fill="#0e6530"/>
            <rect x="272.22" y="127.17" width="3.06" height="195.96" fill="#0d6530"/>
            <rect x="275.28" y="127.17" width="3.06" height="195.96" fill="#0c6530"/>
            <rect x="278.34" y="127.17" width="3.06" height="195.96" fill="#0b652f"/>
            <rect x="281.4" y="127.17" width="3.06" height="195.96" fill="#0a642f"/>
            <rect x="284.46" y="127.17" width="3.06" height="195.96" fill="#0a642f"/>
            <rect x="287.52" y="127.17" width="3.06" height="195.96" fill="#09642f"/>
            <rect x="290.58" y="127.17" width="3.06" height="195.96" fill="#08642e"/>
            <rect x="293.64" y="127.17" width="3.06" height="195.96" fill="#07632e"/>
            <rect x="296.7" y="127.17" width="3.06" height="195.96" fill="#06632e"/>
            <rect x="299.76" y="127.17" width="3.06" height="195.96" fill="#05632e"/>
            <rect x="302.81" y="127.17" width="3.06" height="195.96" fill="#05632d"/>
            <rect x="305.87" y="127.17" width="3.06" height="195.96" fill="#04622d"/>
            <rect x="308.93" y="127.17" width="3.06" height="195.96" fill="#03622d"/>
            <rect x="311.99" y="127.17" width="3.06" height="195.96" fill="#02622c"/>
            <rect x="315.05" y="127.17" width="3.06" height="195.96" fill="#01612c"/>
            <rect x="318.11" y="127.17" width="3.06" height="195.96" fill="#00612c"/>
            <rect x="321.17" y="127.17" width="3.06" height="195.96" fill="#00612b"/>
            <rect x="324.23" y="127.17" width="3.06" height="195.96" fill="#00612b"/>
            <rect x="327.29" y="127.17" width="3.06" height="195.96" fill="#00602b"/>
            <rect x="330.34" y="127.17" width="3.06" height="195.96" fill="#00602a"/>
            <rect x="333.4" y="127.17" width="3.06" height="195.96" fill="#00602a"/>
            <rect x="336.46" y="127.17" width="3.06" height="195.96" fill="#005f2a"/>
            <rect x="339.52" y="127.17" width="3.06" height="195.96" fill="#005f29"/>
            <rect x="342.58" y="127.17" width="3.06" height="195.96" fill="#005e29"/>
            <rect x="345.64" y="127.17" width="3.06" height="195.96" fill="#005e29"/>
            <rect x="348.7" y="127.17" width="3.06" height="195.96" fill="#005e28"/>
            <rect x="351.76" y="127.17" width="3.06" height="195.96" fill="#005d28"/>
            <rect x="354.82" y="127.17" width="3.06" height="195.96" fill="#005d27"/>
            <rect x="357.88" y="127.17" width="3.06" height="195.96" fill="#005c27"/>
            <rect x="360.93" y="127.17" width="3.06" height="195.96" fill="#005c27"/>
            <rect x="363.99" y="127.17" width="3.06" height="195.96" fill="#005c26"/>
            <rect x="367.05" y="127.17" width="3.06" height="195.96" fill="#005b26"/>
            <rect x="370.11" y="127.17" width="3.06" height="195.96" fill="#005b25"/>
            <rect x="373.17" y="127.17" width="3.06" height="195.96" fill="#005a25"/>
            <rect x="376.23" y="127.17" width="3.06" height="195.96" fill="#005a24"/>
            <rect x="379.29" y="127.17" width="3.06" height="195.96" fill="#005924"/>
            <rect x="382.35" y="127.17" width="3.06" height="195.96" fill="#005823"/>
            <rect x="385.41" y="127.17" width="3.06" height="195.96" fill="#005823"/>
            <rect x="388.46" y="127.17" width="3.06" height="195.96" fill="#005722"/>
            <rect x="391.52" y="127.17" width="3.06" height="195.96" fill="#005722"/>
            <rect x="394.58" y="127.17" width="3.06" height="195.96" fill="#005621"/>
            <rect x="397.64" y="127.17" width="3.06" height="195.96" fill="#005621"/>
            <rect x="400.7" y="127.17" width="3.06" height="195.96" fill="#005520"/>
            <rect x="403.76" y="127.17" width="3.06" height="195.96" fill="#005520"/>
            <rect x="406.82" y="127.17" width="3.06" height="195.96" fill="#00541f"/>
            <rect x="409.88" y="127.17" width="3.06" height="195.96" fill="#00531e"/>
            <rect x="412.94" y="127.17" width="3.06" height="195.96" fill="#00531e"/>
            <rect x="416" y="127.17" width="3.06" height="195.96" fill="#00521d"/>
            <rect x="419.05" y="127.17" width="3.06" height="195.96" fill="#00511d"/>
            <rect x="422.11" y="127.17" width="3.06" height="195.96" fill="#00511c"/>
            <rect x="425.17" y="127.17" width="3.06" height="195.96" fill="#00501b"/>
            <rect x="428.23" y="127.17" width="3.06" height="195.96" fill="#004f1a"/>
            <rect x="431.29" y="127.17" width="3.06" height="195.96" fill="#004e1a"/>
            <rect x="434.35" y="127.17" width="9.09" height="195.96" fill="#004e1a"/>
          </g>
        </g>
        <g clip-path="url(#clip-path-2)">
          <g>
            <rect x="110.68" y="311.26" width="3" height="105.74" fill="#1b6a36"/>
            <rect x="113.68" y="311.26" width="3" height="105.74" fill="#1b6a36"/>
            <rect x="116.67" y="311.26" width="3" height="105.74" fill="#1b6a36"/>
            <rect x="119.67" y="311.26" width="3" height="105.74" fill="#1b6a36"/>
            <rect x="122.67" y="311.26" width="3" height="105.74" fill="#1b6a36"/>
            <rect x="125.66" y="311.26" width="3" height="105.74" fill="#1b6a35"/>
            <rect x="128.66" y="311.26" width="3" height="105.74" fill="#1b6a35"/>
            <rect x="131.66" y="311.26" width="3" height="105.74" fill="#1b6a35"/>
            <rect x="134.66" y="311.26" width="3" height="105.74" fill="#1b6a35"/>
            <rect x="137.65" y="311.26" width="3" height="105.74" fill="#1b6a35"/>
            <rect x="140.65" y="311.26" width="3" height="105.74" fill="#1b6a35"/>
            <rect x="143.65" y="311.26" width="3" height="105.74" fill="#1b6a35"/>
            <rect x="146.65" y="311.26" width="3" height="105.74" fill="#1a6a35"/>
            <rect x="149.64" y="311.26" width="3" height="105.74" fill="#1a6935"/>
            <rect x="152.64" y="311.26" width="3" height="105.74" fill="#1a6935"/>
            <rect x="155.64" y="311.26" width="3" height="105.74" fill="#1a6935"/>
            <rect x="158.63" y="311.26" width="3" height="105.74" fill="#1a6935"/>
            <rect x="161.63" y="311.26" width="3" height="105.74" fill="#1a6935"/>
            <rect x="164.63" y="311.26" width="3" height="105.74" fill="#1a6935"/>
            <rect x="167.63" y="311.26" width="3" height="105.74" fill="#1a6935"/>
            <rect x="170.62" y="311.26" width="3" height="105.74" fill="#196935"/>
            <rect x="173.62" y="311.26" width="3" height="105.74" fill="#196935"/>
            <rect x="176.62" y="311.26" width="3" height="105.74" fill="#196935"/>
            <rect x="179.62" y="311.26" width="3" height="105.74" fill="#196935"/>
            <rect x="182.61" y="311.26" width="3" height="105.74" fill="#196935"/>
            <rect x="185.61" y="311.26" width="3" height="105.74" fill="#186934"/>
            <rect x="188.61" y="311.26" width="3" height="105.74" fill="#186934"/>
            <rect x="191.6" y="311.26" width="3" height="105.74" fill="#186934"/>
            <rect x="194.6" y="311.26" width="3" height="105.74" fill="#186934"/>
            <rect x="197.6" y="311.26" width="3" height="105.74" fill="#176934"/>
            <rect x="200.6" y="311.26" width="3" height="105.74" fill="#176834"/>
            <rect x="203.59" y="311.26" width="3" height="105.74" fill="#176834"/>
            <rect x="206.59" y="311.26" width="3" height="105.74" fill="#176834"/>
            <rect x="209.59" y="311.26" width="3" height="105.74" fill="#166834"/>
            <rect x="212.59" y="311.26" width="3" height="105.74" fill="#166833"/>
            <rect x="215.58" y="311.26" width="3" height="105.74" fill="#166833"/>
            <rect x="218.58" y="311.26" width="3" height="105.74" fill="#156833"/>
            <rect x="221.58" y="311.26" width="3" height="105.74" fill="#156833"/>
            <rect x="224.57" y="311.26" width="3" height="105.74" fill="#156833"/>
            <rect x="227.57" y="311.26" width="3" height="105.74" fill="#146832"/>
            <rect x="230.57" y="311.26" width="3" height="105.74" fill="#146732"/>
            <rect x="233.57" y="311.26" width="3" height="105.74" fill="#136732"/>
            <rect x="236.56" y="311.26" width="3" height="105.74" fill="#136732"/>
            <rect x="239.56" y="311.26" width="3" height="105.74" fill="#136732"/>
            <rect x="242.56" y="311.26" width="3" height="105.74" fill="#126732"/>
            <rect x="245.56" y="311.26" width="3" height="105.74" fill="#126731"/>
            <rect x="248.55" y="311.26" width="3" height="105.74" fill="#116631"/>
            <rect x="251.55" y="311.26" width="3" height="105.74" fill="#116631"/>
            <rect x="254.55" y="311.26" width="3" height="105.74" fill="#106631"/>
            <rect x="257.54" y="311.26" width="3" height="105.74" fill="#106631"/>
            <rect x="260.54" y="311.26" width="3" height="105.74" fill="#0f6630"/>
            <rect x="263.54" y="311.26" width="3" height="105.74" fill="#0e6530"/>
            <rect x="266.54" y="311.26" width="3" height="105.74" fill="#0e6530"/>
            <rect x="269.53" y="311.26" width="3" height="105.74" fill="#0d6530"/>
            <rect x="272.53" y="311.26" width="3" height="105.74" fill="#0c6530"/>
            <rect x="275.53" y="311.26" width="3" height="105.74" fill="#0b652f"/>
            <rect x="278.53" y="311.26" width="3" height="105.74" fill="#0a642f"/>
            <rect x="281.52" y="311.26" width="3" height="105.74" fill="#0a642f"/>
            <rect x="284.52" y="311.26" width="3" height="105.74" fill="#09642f"/>
            <rect x="287.52" y="311.26" width="3" height="105.74" fill="#08642e"/>
            <rect x="290.51" y="311.26" width="3" height="105.74" fill="#07632e"/>
            <rect x="293.51" y="311.26" width="3" height="105.74" fill="#06632e"/>
            <rect x="296.51" y="311.26" width="3" height="105.74" fill="#05632e"/>
            <rect x="299.51" y="311.26" width="3" height="105.74" fill="#05632d"/>
            <rect x="302.5" y="311.26" width="3" height="105.74" fill="#04622d"/>
            <rect x="305.5" y="311.26" width="3" height="105.74" fill="#03622d"/>
            <rect x="308.5" y="311.26" width="3" height="105.74" fill="#02622c"/>
            <rect x="311.5" y="311.26" width="3" height="105.74" fill="#01612c"/>
            <rect x="314.49" y="311.26" width="3" height="105.74" fill="#00612c"/>
            <rect x="317.49" y="311.26" width="3" height="105.74" fill="#00612b"/>
            <rect x="320.49" y="311.26" width="3" height="105.74" fill="#00612b"/>
            <rect x="323.48" y="311.26" width="3" height="105.74" fill="#00602b"/>
            <rect x="326.48" y="311.26" width="3" height="105.74" fill="#00602a"/>
            <rect x="329.48" y="311.26" width="3" height="105.74" fill="#00602a"/>
            <rect x="332.48" y="311.26" width="3" height="105.74" fill="#005f2a"/>
            <rect x="335.47" y="311.26" width="3" height="105.74" fill="#005f29"/>
            <rect x="338.47" y="311.26" width="3" height="105.74" fill="#005e29"/>
            <rect x="341.47" y="311.26" width="3" height="105.74" fill="#005e29"/>
            <rect x="344.47" y="311.26" width="3" height="105.74" fill="#005e28"/>
            <rect x="347.46" y="311.26" width="3" height="105.74" fill="#005d28"/>
            <rect x="350.46" y="311.26" width="3" height="105.74" fill="#005d27"/>
            <rect x="353.46" y="311.26" width="3" height="105.74" fill="#005c27"/>
            <rect x="356.45" y="311.26" width="3" height="105.74" fill="#005c27"/>
            <rect x="359.45" y="311.26" width="3" height="105.74" fill="#005c26"/>
            <rect x="362.45" y="311.26" width="3" height="105.74" fill="#005b26"/>
            <rect x="365.45" y="311.26" width="3" height="105.74" fill="#005b25"/>
            <rect x="368.44" y="311.26" width="3" height="105.74" fill="#005a25"/>
            <rect x="371.44" y="311.26" width="3" height="105.74" fill="#005a24"/>
            <rect x="374.44" y="311.26" width="3" height="105.74" fill="#005924"/>
            <rect x="377.44" y="311.26" width="3" height="105.74" fill="#005823"/>
            <rect x="380.43" y="311.26" width="3" height="105.74" fill="#005823"/>
            <rect x="383.43" y="311.26" width="3" height="105.74" fill="#005722"/>
            <rect x="386.43" y="311.26" width="3" height="105.74" fill="#005722"/>
            <rect x="389.42" y="311.26" width="3" height="105.74" fill="#005621"/>
            <rect x="392.42" y="311.26" width="3" height="105.74" fill="#005621"/>
            <rect x="395.42" y="311.26" width="3" height="105.74" fill="#005520"/>
            <rect x="398.42" y="311.26" width="3" height="105.74" fill="#005520"/>
            <rect x="401.41" y="311.26" width="3" height="105.74" fill="#00541f"/>
            <rect x="404.41" y="311.26" width="3" height="105.74" fill="#00531e"/>
            <rect x="407.41" y="311.26" width="3" height="105.74" fill="#00531e"/>
            <rect x="410.41" y="311.26" width="3" height="105.74" fill="#00521d"/>
            <rect x="413.4" y="311.26" width="3" height="105.74" fill="#00511d"/>
            <rect x="416.4" y="311.26" width="3" height="105.74" fill="#00511c"/>
            <rect x="419.4" y="311.26" width="3" height="105.74" fill="#00501b"/>
            <rect x="422.39" y="311.26" width="3" height="105.74" fill="#004f1a"/>
            <rect x="425.39" y="311.26" width="3" height="105.74" fill="#004e1a"/>
          </g>
        </g>
        <g clip-path="url(#clip-path-3)">
          <g>
            <rect x="357.72" y="410.38" width="0.65" height="33.2" fill="#1b6a36"/>
            <rect x="358.36" y="410.38" width="0.65" height="33.2" fill="#1b6a36"/>
            <rect x="359.01" y="410.38" width="0.65" height="33.2" fill="#1b6a36"/>
            <rect x="359.66" y="410.38" width="0.65" height="33.2" fill="#1b6a36"/>
            <rect x="360.31" y="410.38" width="0.65" height="33.2" fill="#1b6a36"/>
            <rect x="360.95" y="410.38" width="0.65" height="33.2" fill="#1b6a35"/>
            <rect x="361.6" y="410.38" width="0.65" height="33.2" fill="#1b6a35"/>
            <rect x="362.25" y="410.38" width="0.65" height="33.2" fill="#1b6a35"/>
            <rect x="362.89" y="410.38" width="0.65" height="33.2" fill="#1b6a35"/>
            <rect x="363.54" y="410.38" width="0.65" height="33.2" fill="#1b6a35"/>
            <rect x="364.19" y="410.38" width="0.65" height="33.2" fill="#1b6a35"/>
            <rect x="364.83" y="410.38" width="0.65" height="33.2" fill="#1b6a35"/>
            <rect x="365.48" y="410.38" width="0.65" height="33.2" fill="#1a6a35"/>
            <rect x="366.13" y="410.38" width="0.65" height="33.2" fill="#1a6935"/>
            <rect x="366.77" y="410.38" width="0.65" height="33.2" fill="#1a6935"/>
            <rect x="367.42" y="410.38" width="0.65" height="33.2" fill="#1a6935"/>
            <rect x="368.07" y="410.38" width="0.65" height="33.2" fill="#1a6935"/>
            <rect x="368.71" y="410.38" width="0.65" height="33.2" fill="#1a6935"/>
            <rect x="369.36" y="410.38" width="0.65" height="33.2" fill="#1a6935"/>
            <rect x="370.01" y="410.38" width="0.65" height="33.2" fill="#1a6935"/>
            <rect x="370.65" y="410.38" width="0.65" height="33.2" fill="#196935"/>
            <rect x="371.3" y="410.38" width="0.65" height="33.2" fill="#196935"/>
            <rect x="371.95" y="410.38" width="0.65" height="33.2" fill="#196935"/>
            <rect x="372.6" y="410.38" width="0.65" height="33.2" fill="#196935"/>
            <rect x="373.24" y="410.38" width="0.65" height="33.2" fill="#196935"/>
            <rect x="373.89" y="410.38" width="0.65" height="33.2" fill="#186934"/>
            <rect x="374.54" y="410.38" width="0.65" height="33.2" fill="#186934"/>
            <rect x="375.18" y="410.38" width="0.65" height="33.2" fill="#186934"/>
            <rect x="375.83" y="410.38" width="0.65" height="33.2" fill="#186934"/>
            <rect x="376.48" y="410.38" width="0.65" height="33.2" fill="#176934"/>
            <rect x="377.12" y="410.38" width="0.65" height="33.2" fill="#176834"/>
            <rect x="377.77" y="410.38" width="0.65" height="33.2" fill="#176834"/>
            <rect x="378.42" y="410.38" width="0.65" height="33.2" fill="#176834"/>
            <rect x="379.06" y="410.38" width="0.65" height="33.2" fill="#166834"/>
            <rect x="379.71" y="410.38" width="0.65" height="33.2" fill="#166833"/>
            <rect x="380.36" y="410.38" width="0.65" height="33.2" fill="#166833"/>
            <rect x="381" y="410.38" width="0.65" height="33.2" fill="#156833"/>
            <rect x="381.65" y="410.38" width="0.65" height="33.2" fill="#156833"/>
            <rect x="382.3" y="410.38" width="0.65" height="33.2" fill="#156833"/>
            <rect x="382.94" y="410.38" width="0.65" height="33.2" fill="#146832"/>
            <rect x="383.59" y="410.38" width="0.65" height="33.2" fill="#146732"/>
            <rect x="384.24" y="410.38" width="0.65" height="33.2" fill="#136732"/>
            <rect x="384.89" y="410.38" width="0.65" height="33.2" fill="#136732"/>
            <rect x="385.53" y="410.38" width="0.65" height="33.2" fill="#136732"/>
            <rect x="386.18" y="410.38" width="0.65" height="33.2" fill="#126732"/>
            <rect x="386.83" y="410.38" width="0.65" height="33.2" fill="#126731"/>
            <rect x="387.47" y="410.38" width="0.65" height="33.2" fill="#116631"/>
            <rect x="388.12" y="410.38" width="0.65" height="33.2" fill="#116631"/>
            <rect x="388.77" y="410.38" width="0.65" height="33.2" fill="#106631"/>
            <rect x="389.41" y="410.38" width="0.65" height="33.2" fill="#106631"/>
            <rect x="390.06" y="410.38" width="0.65" height="33.2" fill="#0f6630"/>
            <rect x="390.71" y="410.38" width="0.65" height="33.2" fill="#0e6530"/>
            <rect x="391.35" y="410.38" width="0.65" height="33.2" fill="#0e6530"/>
            <rect x="392" y="410.38" width="0.65" height="33.2" fill="#0d6530"/>
            <rect x="392.65" y="410.38" width="0.65" height="33.2" fill="#0c6530"/>
            <rect x="393.29" y="410.38" width="0.65" height="33.2" fill="#0b652f"/>
            <rect x="393.94" y="410.38" width="0.65" height="33.2" fill="#0a642f"/>
            <rect x="394.59" y="410.38" width="0.65" height="33.2" fill="#0a642f"/>
            <rect x="395.23" y="410.38" width="0.65" height="33.2" fill="#09642f"/>
            <rect x="395.88" y="410.38" width="0.65" height="33.2" fill="#08642e"/>
            <rect x="396.53" y="410.38" width="0.65" height="33.2" fill="#07632e"/>
            <rect x="397.18" y="410.38" width="0.65" height="33.2" fill="#06632e"/>
            <rect x="397.82" y="410.38" width="0.65" height="33.2" fill="#05632e"/>
            <rect x="398.47" y="410.38" width="0.65" height="33.2" fill="#05632d"/>
            <rect x="399.12" y="410.38" width="0.65" height="33.2" fill="#04622d"/>
            <rect x="399.76" y="410.38" width="0.65" height="33.2" fill="#03622d"/>
            <rect x="400.41" y="410.38" width="0.65" height="33.2" fill="#02622c"/>
            <rect x="401.06" y="410.38" width="0.65" height="33.2" fill="#01612c"/>
            <rect x="401.7" y="410.38" width="0.65" height="33.2" fill="#00612c"/>
            <rect x="402.35" y="410.38" width="0.65" height="33.2" fill="#00612b"/>
            <rect x="403" y="410.38" width="0.65" height="33.2" fill="#00612b"/>
            <rect x="403.64" y="410.38" width="0.65" height="33.2" fill="#00602b"/>
            <rect x="404.29" y="410.38" width="0.65" height="33.2" fill="#00602a"/>
            <rect x="404.94" y="410.38" width="0.65" height="33.2" fill="#00602a"/>
            <rect x="405.58" y="410.38" width="0.65" height="33.2" fill="#005f2a"/>
            <rect x="406.23" y="410.38" width="0.65" height="33.2" fill="#005f29"/>
            <rect x="406.88" y="410.38" width="0.65" height="33.2" fill="#005e29"/>
            <rect x="407.52" y="410.38" width="0.65" height="33.2" fill="#005e29"/>
            <rect x="408.17" y="410.38" width="0.65" height="33.2" fill="#005e28"/>
            <rect x="408.82" y="410.38" width="0.65" height="33.2" fill="#005d28"/>
            <rect x="409.47" y="410.38" width="0.65" height="33.2" fill="#005d27"/>
            <rect x="410.11" y="410.38" width="0.65" height="33.2" fill="#005c27"/>
            <rect x="410.76" y="410.38" width="0.65" height="33.2" fill="#005c27"/>
            <rect x="411.41" y="410.38" width="0.65" height="33.2" fill="#005c26"/>
            <rect x="412.05" y="410.38" width="0.65" height="33.2" fill="#005b26"/>
            <rect x="412.7" y="410.38" width="0.65" height="33.2" fill="#005b25"/>
            <rect x="413.35" y="410.38" width="0.65" height="33.2" fill="#005a25"/>
            <rect x="413.99" y="410.38" width="0.65" height="33.2" fill="#005a24"/>
            <rect x="414.64" y="410.38" width="0.65" height="33.2" fill="#005924"/>
            <rect x="415.29" y="410.38" width="0.65" height="33.2" fill="#005823"/>
            <rect x="415.93" y="410.38" width="0.65" height="33.2" fill="#005823"/>
            <rect x="416.58" y="410.38" width="0.65" height="33.2" fill="#005722"/>
            <rect x="417.23" y="410.38" width="0.65" height="33.2" fill="#005722"/>
            <rect x="417.87" y="410.38" width="0.65" height="33.2" fill="#005621"/>
            <rect x="418.52" y="410.38" width="0.65" height="33.2" fill="#005621"/>
            <rect x="419.17" y="410.38" width="0.65" height="33.2" fill="#005520"/>
            <rect x="419.81" y="410.38" width="0.65" height="33.2" fill="#005520"/>
            <rect x="420.46" y="410.38" width="0.65" height="33.2" fill="#00541f"/>
            <rect x="421.11" y="410.38" width="0.65" height="33.2" fill="#00531e"/>
            <rect x="421.76" y="410.38" width="0.65" height="33.2" fill="#00531e"/>
            <rect x="422.4" y="410.38" width="0.65" height="33.2" fill="#00521d"/>
            <rect x="423.05" y="410.38" width="0.65" height="33.2" fill="#00511d"/>
            <rect x="423.7" y="410.38" width="0.65" height="33.2" fill="#00511c"/>
            <rect x="424.34" y="410.38" width="0.65" height="33.2" fill="#00501b"/>
            <rect x="424.99" y="410.38" width="0.65" height="33.2" fill="#004f1a"/>
            <rect x="425.64" y="410.38" width="0.65" height="33.2" fill="#004e1a"/>
          </g>
        </g>
        <g clip-path="url(#clip-path-4)">
          <g>
            <rect x="196.17" y="310.06" width="3.55" height="184.43" fill="#1b6a36"/>
            <rect x="199.71" y="310.06" width="3.55" height="184.43" fill="#1b6a36"/>
            <rect x="203.26" y="310.06" width="3.55" height="184.43" fill="#1b6a36"/>
            <rect x="206.81" y="310.06" width="3.55" height="184.43" fill="#1b6a36"/>
            <rect x="210.35" y="310.06" width="3.55" height="184.43" fill="#1b6a36"/>
            <rect x="213.9" y="310.06" width="3.55" height="184.43" fill="#1b6a36"/>
            <rect x="217.45" y="310.06" width="3.55" height="184.43" fill="#1b6a36"/>
            <rect x="220.99" y="310.06" width="3.55" height="184.43" fill="#1b6a36"/>
            <rect x="224.54" y="310.06" width="3.55" height="184.43" fill="#1b6a36"/>
            <rect x="228.09" y="310.06" width="3.55" height="184.43" fill="#1b6a36"/>
            <rect x="231.63" y="310.06" width="3.55" height="184.43" fill="#1b6b36"/>
            <rect x="235.18" y="310.06" width="3.55" height="184.43" fill="#1b6b36"/>
            <rect x="238.73" y="310.06" width="3.55" height="184.43" fill="#1b6b36"/>
            <rect x="242.27" y="310.06" width="3.55" height="184.43" fill="#1b6b36"/>
            <rect x="245.82" y="310.06" width="3.55" height="184.43" fill="#1b6b36"/>
            <rect x="249.37" y="310.06" width="3.55" height="184.43" fill="#1b6c36"/>
            <rect x="252.91" y="310.06" width="3.55" height="184.43" fill="#1b6c36"/>
            <rect x="256.46" y="310.06" width="3.55" height="184.43" fill="#1b6c37"/>
            <rect x="260.01" y="310.06" width="3.55" height="184.43" fill="#1b6d37"/>
            <rect x="263.55" y="310.06" width="3.55" height="184.43" fill="#1b6d37"/>
            <rect x="267.1" y="310.06" width="3.55" height="184.43" fill="#1b6d37"/>
            <rect x="270.65" y="310.06" width="3.55" height="184.43" fill="#1b6e37"/>
            <rect x="274.19" y="310.06" width="3.55" height="184.43" fill="#1b6e37"/>
            <rect x="277.74" y="310.06" width="3.55" height="184.43" fill="#1b6f37"/>
            <rect x="281.29" y="310.06" width="3.55" height="184.43" fill="#1b6f38"/>
            <rect x="284.83" y="310.06" width="3.55" height="184.43" fill="#1b6f38"/>
            <rect x="288.38" y="310.06" width="3.55" height="184.43" fill="#1b7038"/>
            <rect x="291.93" y="310.06" width="3.55" height="184.43" fill="#1b7138"/>
            <rect x="295.47" y="310.06" width="3.55" height="184.43" fill="#1b7138"/>
            <rect x="299.02" y="310.06" width="3.55" height="184.43" fill="#1b7239"/>
            <rect x="302.57" y="310.06" width="3.55" height="184.43" fill="#1b7239"/>
            <rect x="306.11" y="310.06" width="3.55" height="184.43" fill="#1b7339"/>
            <rect x="309.66" y="310.06" width="3.55" height="184.43" fill="#1b7439"/>
            <rect x="313.21" y="310.06" width="3.55" height="184.43" fill="#1b743a"/>
            <rect x="316.75" y="310.06" width="3.55" height="184.43" fill="#1b753a"/>
            <rect x="320.3" y="310.06" width="3.55" height="184.43" fill="#1b763a"/>
            <rect x="323.85" y="310.06" width="3.55" height="184.43" fill="#1b773a"/>
            <rect x="327.39" y="310.06" width="3.55" height="184.43" fill="#1b773b"/>
            <rect x="330.94" y="310.06" width="3.55" height="184.43" fill="#1b783b"/>
            <rect x="334.49" y="310.06" width="3.55" height="184.43" fill="#1b793b"/>
            <rect x="338.03" y="310.06" width="3.55" height="184.43" fill="#1b7a3c"/>
            <rect x="341.58" y="310.06" width="3.55" height="184.43" fill="#1b7b3c"/>
            <rect x="345.13" y="310.06" width="3.55" height="184.43" fill="#1b7c3c"/>
            <rect x="348.67" y="310.06" width="3.55" height="184.43" fill="#1b7c3c"/>
            <rect x="352.22" y="310.06" width="3.55" height="184.43" fill="#1b7d3d"/>
            <rect x="355.77" y="310.06" width="3.55" height="184.43" fill="#1b7e3d"/>
            <rect x="359.31" y="310.06" width="3.55" height="184.43" fill="#1b803e"/>
            <rect x="362.86" y="310.06" width="3.55" height="184.43" fill="#1b813e"/>
            <rect x="366.41" y="310.06" width="3.55" height="184.43" fill="#1b823e"/>
            <rect x="369.95" y="310.06" width="3.55" height="184.43" fill="#1b833f"/>
            <rect x="373.5" y="310.06" width="3.55" height="184.43" fill="#1b843f"/>
            <rect x="377.05" y="310.06" width="3.55" height="184.43" fill="#1b853f"/>
            <rect x="380.59" y="310.06" width="3.55" height="184.43" fill="#1b8640"/>
            <rect x="384.14" y="310.06" width="3.55" height="184.43" fill="#1b8740"/>
            <rect x="387.69" y="310.06" width="3.55" height="184.43" fill="#1a8941"/>
            <rect x="391.23" y="310.06" width="3.55" height="184.43" fill="#1a8a41"/>
            <rect x="394.78" y="310.06" width="3.55" height="184.43" fill="#1a8b42"/>
            <rect x="398.33" y="310.06" width="3.55" height="184.43" fill="#1a8d42"/>
            <rect x="401.87" y="310.06" width="3.55" height="184.43" fill="#198e42"/>
            <rect x="405.42" y="310.06" width="3.55" height="184.43" fill="#198f43"/>
            <rect x="408.97" y="310.06" width="3.55" height="184.43" fill="#189143"/>
            <rect x="412.51" y="310.06" width="3.55" height="184.43" fill="#189244"/>
            <rect x="416.06" y="310.06" width="3.55" height="184.43" fill="#179444"/>
            <rect x="419.61" y="310.06" width="3.55" height="184.43" fill="#179545"/>
            <rect x="423.15" y="310.06" width="3.55" height="184.43" fill="#169745"/>
            <rect x="426.7" y="310.06" width="3.55" height="184.43" fill="#159846"/>
            <rect x="430.25" y="310.06" width="3.55" height="184.43" fill="#159a46"/>
            <rect x="433.79" y="310.06" width="3.55" height="184.43" fill="#149c47"/>
            <rect x="437.34" y="310.06" width="3.55" height="184.43" fill="#139d47"/>
            <rect x="440.89" y="310.06" width="3.55" height="184.43" fill="#129f48"/>
            <rect x="444.43" y="310.06" width="3.55" height="184.43" fill="#11a148"/>
            <rect x="447.98" y="310.06" width="3.55" height="184.43" fill="#10a349"/>
            <rect x="451.53" y="310.06" width="3.55" height="184.43" fill="#0fa549"/>
            <rect x="455.07" y="310.06" width="3.55" height="184.43" fill="#0da74a"/>
            <rect x="458.62" y="310.06" width="3.55" height="184.43" fill="#0baa4b"/>
          </g>
        </g>
        <g clip-path="url(#clip-path-5)">
          <g>
            <rect x="38.84" y="139.51" width="6.17" height="236.32" fill="#1b6a36"/>
            <rect x="45.01" y="139.51" width="6.17" height="236.32" fill="#1b6a36"/>
            <rect x="51.18" y="139.51" width="6.17" height="236.32" fill="#1b6a36"/>
            <rect x="57.35" y="139.51" width="6.17" height="236.32" fill="#1b6a36"/>
            <rect x="63.52" y="139.51" width="6.17" height="236.32" fill="#1b6a36"/>
            <rect x="69.69" y="139.51" width="6.17" height="236.32" fill="#1b6a36"/>
            <rect x="75.86" y="139.51" width="6.17" height="236.32" fill="#1b6a36"/>
            <rect x="82.02" y="139.51" width="6.17" height="236.32" fill="#1b6a36"/>
            <rect x="88.19" y="139.51" width="6.17" height="236.32" fill="#1b6a36"/>
            <rect x="94.36" y="139.51" width="6.17" height="236.32" fill="#1b6a36"/>
            <rect x="100.53" y="139.51" width="6.17" height="236.32" fill="#1b6b36"/>
            <rect x="106.7" y="139.51" width="6.17" height="236.32" fill="#1b6b36"/>
            <rect x="112.87" y="139.51" width="6.17" height="236.32" fill="#1b6b36"/>
            <rect x="119.04" y="139.51" width="6.17" height="236.32" fill="#1b6b36"/>
            <rect x="125.21" y="139.51" width="6.17" height="236.32" fill="#1b6b36"/>
            <rect x="131.37" y="139.51" width="6.17" height="236.32" fill="#1b6c36"/>
            <rect x="137.54" y="139.51" width="6.17" height="236.32" fill="#1b6c36"/>
            <rect x="143.71" y="139.51" width="6.17" height="236.32" fill="#1b6c37"/>
            <rect x="149.88" y="139.51" width="6.17" height="236.32" fill="#1b6d37"/>
            <rect x="156.05" y="139.51" width="6.17" height="236.32" fill="#1b6d37"/>
            <rect x="162.22" y="139.51" width="6.17" height="236.32" fill="#1b6d37"/>
            <rect x="168.39" y="139.51" width="6.17" height="236.32" fill="#1b6e37"/>
            <rect x="174.56" y="139.51" width="6.17" height="236.32" fill="#1b6e37"/>
            <rect x="180.72" y="139.51" width="6.17" height="236.32" fill="#1b6f37"/>
            <rect x="186.89" y="139.51" width="6.17" height="236.32" fill="#1b6f38"/>
            <rect x="193.06" y="139.51" width="6.17" height="236.32" fill="#1b6f38"/>
            <rect x="199.23" y="139.51" width="6.17" height="236.32" fill="#1b7038"/>
            <rect x="205.4" y="139.51" width="6.17" height="236.32" fill="#1b7138"/>
            <rect x="211.57" y="139.51" width="6.17" height="236.32" fill="#1b7138"/>
            <rect x="217.74" y="139.51" width="6.17" height="236.32" fill="#1b7239"/>
            <rect x="223.91" y="139.51" width="6.17" height="236.32" fill="#1b7239"/>
            <rect x="230.07" y="139.51" width="6.17" height="236.32" fill="#1b7339"/>
            <rect x="236.24" y="139.51" width="6.17" height="236.32" fill="#1b7439"/>
            <rect x="242.41" y="139.51" width="6.17" height="236.32" fill="#1b743a"/>
            <rect x="248.58" y="139.51" width="6.17" height="236.32" fill="#1b753a"/>
            <rect x="254.75" y="139.51" width="6.17" height="236.32" fill="#1b763a"/>
            <rect x="260.92" y="139.51" width="6.17" height="236.32" fill="#1b773a"/>
            <rect x="267.09" y="139.51" width="6.17" height="236.32" fill="#1b773b"/>
            <rect x="273.26" y="139.51" width="6.17" height="236.32" fill="#1b783b"/>
            <rect x="279.42" y="139.51" width="6.17" height="236.32" fill="#1b793b"/>
            <rect x="285.59" y="139.51" width="6.17" height="236.32" fill="#1b7a3c"/>
            <rect x="291.76" y="139.51" width="6.17" height="236.32" fill="#1b7b3c"/>
            <rect x="297.93" y="139.51" width="6.17" height="236.32" fill="#1b7c3c"/>
            <rect x="304.1" y="139.51" width="6.17" height="236.32" fill="#1b7c3c"/>
            <rect x="310.27" y="139.51" width="6.17" height="236.32" fill="#1b7d3d"/>
            <rect x="316.44" y="139.51" width="6.17" height="236.32" fill="#1b7e3d"/>
            <rect x="322.61" y="139.51" width="6.17" height="236.32" fill="#1b803e"/>
            <rect x="328.77" y="139.51" width="6.17" height="236.32" fill="#1b813e"/>
            <rect x="334.94" y="139.51" width="6.17" height="236.32" fill="#1b823e"/>
            <rect x="341.11" y="139.51" width="6.17" height="236.32" fill="#1b833f"/>
            <rect x="347.28" y="139.51" width="6.17" height="236.32" fill="#1b843f"/>
            <rect x="353.45" y="139.51" width="6.17" height="236.32" fill="#1b853f"/>
            <rect x="359.62" y="139.51" width="6.17" height="236.32" fill="#1b8640"/>
            <rect x="365.79" y="139.51" width="6.17" height="236.32" fill="#1b8740"/>
            <rect x="371.96" y="139.51" width="6.17" height="236.32" fill="#1a8941"/>
            <rect x="378.12" y="139.51" width="6.17" height="236.32" fill="#1a8a41"/>
            <rect x="384.29" y="139.51" width="6.17" height="236.32" fill="#1a8b42"/>
            <rect x="390.46" y="139.51" width="6.17" height="236.32" fill="#1a8d42"/>
            <rect x="396.63" y="139.51" width="6.17" height="236.32" fill="#198e42"/>
            <rect x="402.8" y="139.51" width="6.17" height="236.32" fill="#198f43"/>
            <rect x="408.97" y="139.51" width="6.17" height="236.32" fill="#189143"/>
            <rect x="415.14" y="139.51" width="6.17" height="236.32" fill="#189244"/>
            <rect x="421.3" y="139.51" width="6.17" height="236.32" fill="#179444"/>
            <rect x="427.47" y="139.51" width="6.17" height="236.32" fill="#179545"/>
            <rect x="433.64" y="139.51" width="6.17" height="236.32" fill="#169745"/>
            <rect x="439.81" y="139.51" width="6.17" height="236.32" fill="#159846"/>
            <rect x="445.98" y="139.51" width="6.17" height="236.32" fill="#159a46"/>
            <rect x="452.15" y="139.51" width="6.17" height="236.32" fill="#149c47"/>
            <rect x="458.32" y="139.51" width="6.17" height="236.32" fill="#139d47"/>
            <rect x="464.49" y="139.51" width="6.17" height="236.32" fill="#129f48"/>
            <rect x="470.65" y="139.51" width="6.17" height="236.32" fill="#11a148"/>
            <rect x="476.82" y="139.51" width="6.17" height="236.32" fill="#10a349"/>
            <rect x="482.99" y="139.51" width="6.17" height="236.32" fill="#0fa549"/>
            <rect x="489.16" y="139.51" width="6.17" height="236.32" fill="#0da74a"/>
            <rect x="495.33" y="139.51" width="6.17" height="236.32" fill="#0baa4b"/>
          </g>
        </g>
        <g>
          <path d="M61.75,254.28,62.9,245l36.85-10.5-1.27,10.34L92,246.59,90.31,260l5.9,3.25L95,273.39Zm22.36-5.83-10.37,2.66,9.41,5.14Z" fill="#1b6a36"/>
          <path d="M85.77,228.57l-18.62-6.35,3.18-9.33,18.43,6.28c4.79,1.63,7.89,0,9.15-3.7s-.1-6.86-4.74-8.44L74.5,200.66l3.18-9.33,18.38,6.27c10.72,3.65,13.32,11.36,10.11,20.79s-10,13.72-20.4,10.18" fill="#1b6a36"/>
          <path d="M107.53,197.5l-2.89-7.91a18,18,0,0,0,9.31-7.74c1.3-2.26,1.22-3.92-.08-4.67l-.09-.05c-1.26-.72-2.53-.13-5.85,3.44-5.2,5.61-9.89,9.55-16.14,6l-.08-.05c-5.64-3.25-7.14-10.06-2.94-17.34,3-5.16,6.68-8.39,11.22-10.17l3.52,7.63a17.57,17.57,0,0,0-7.89,6.78c-1.17,2-.88,3.53.2,4.15l.09.06c1.39.8,2.59.1,6-3.55,5.54-6.11,10.29-9.14,16-5.87l.09.05c6.2,3.57,7.06,10.59,2.82,18a24.5,24.5,0,0,1-13.23,11.33" fill="#1b6a36"/>
          <polygon points="114.75 146.98 107.98 155.03 101.47 149.55 121.25 126.01 127.77 131.49 121 139.54 141.32 156.62 135.07 164.06 114.75 146.98" fill="#1b6a36"/>
          <path d="M128.87,118.59l12.85-10.45c4.16-3.38,7.91-4.63,11.26-4.26a10.92,10.92,0,0,1,7.55,4.38l.07.07a11.09,11.09,0,0,1,1.2,12.9l14.19,4.2-8.7,7.08-12.17-3.78-3.3,2.69,6.7,8.23L151,145.78l-22.11-27.19ZM152,121.47c2.56-2.09,3-4.53,1.41-6.51l-.06-.08c-1.74-2.13-4.17-2-6.7.1l-4.93,4,5.31,6.52,5-4Z" fill="#1b6a36"/>
          <path d="M172.64,87.13l8.3-4.33,29.54,24.41L201.24,112l-5.15-4.37-12,6.25.67,6.7-9.06,4.72-3.07-38.19Zm17.47,15.11-8.07-7,1.1,10.66Z" fill="#1b6a36"/>
          <polygon points="203.73 73.11 213.05 70.38 220.51 95.83 236.79 91.06 239.18 99.22 213.59 106.72 203.73 73.11" fill="#1b6a36"/>
          <rect x="241.53" y="63.18" width="9.76" height="35.05" transform="translate(-9.28 37.66) rotate(-8.58)" fill="#1b6a36"/>
          <path d="M273,60.64l9.36.15,14.35,35.53-10.42-.17-2.45-6.29-13.51-.22-2.61,6.21-10.21-.17Zm8.16,21.61-3.74-10-4.11,9.89Z" fill="#1b6a36"/>
          <polygon points="307.36 62.56 316.2 64.55 326.21 85.77 330.26 67.7 339.64 69.8 331.97 103.99 323.67 102.12 313.27 80.1 309.07 98.85 299.69 96.75 307.36 62.56" fill="#1b6a36"/>
          <path d="M359.15,95.78l.05-.09c5.06-8.7,16.17-11.67,25.52-6.24s12.21,16.43,7.16,25.13l-.06.09c-5.05,8.69-16.16,11.67-25.51,6.23s-12.22-16.42-7.16-25.12m24.06,14,.05-.09c2.54-4.37,1.59-10-3-12.7s-9.83-.74-12.37,3.63l-.05.09c-2.54,4.37-1.6,10,3,12.68s9.87.76,12.41-3.61" fill="#1b6a36"/>
          <polygon points="407.88 103.77 415.19 110.97 405.32 129.7 424.43 119.93 430.38 125.79 420.9 145.05 439.48 134.89 446.65 141.95 413.55 158.87 407.52 152.94 416.64 133.62 397.5 143.07 391.47 137.13 407.88 103.77" fill="#1b6a36"/>
          <polygon points="452.74 151.92 457.38 159.7 448.84 181.56 464.75 172.09 469.67 180.34 439.57 198.27 435.22 190.96 444.07 168.27 427.56 178.11 422.64 169.85 452.74 151.92" fill="#1b6a36"/>
          <polygon points="474.85 192.01 484.21 218.61 476.41 221.35 470.25 203.82 465.24 205.58 470.82 221.46 463.59 224 458.01 208.12 452.76 209.97 459.01 227.73 451.21 230.47 441.78 203.64 474.85 192.01" fill="#1b6a36"/>
          <path d="M487.09,230l1.9,13.38c1.75,12.39-4.37,20.59-14.38,22l-.1,0c-10,1.42-18.47-4.82-20.24-17.31l-1.87-13.18L487.09,230Zm-24.25,17.23c.82,5.75,4.53,9.12,10.13,8.33l.1,0c5.55-.78,8.23-5.06,7.41-10.8l-.55-3.92-17.64,2.5Z" fill="#1b6a36"/>
          <path d="M119.73,397.16l.08-.06a17.93,17.93,0,0,1,25.81,1.35c4.81,5.27,5.7,10.67,4.61,15.85l-9.07-1.58c.5-3.15.13-5.93-2.12-8.39-3.3-3.61-8.68-3.36-12.43.07l-.08.06c-3.86,3.53-4.57,8.83-1.27,12.44,2.45,2.69,5.15,3.13,8.44,3l1.08,8.88c-5.57.63-11-.4-16.24-6.11a17.72,17.72,0,0,1,1.19-25.47" fill="#1b6a36"/>
          <polygon points="156.31 410.58 178.59 427.67 173.58 434.2 158.9 422.94 155.68 427.13 168.98 437.33 164.34 443.39 151.04 433.19 147.67 437.58 162.55 448.99 157.55 455.52 135.07 438.29 156.31 410.58" fill="#1b6a36"/>
          <path d="M180.41,428.85l14.67,7.58c4.73,2.45,7.37,5.39,8.35,8.59a10.82,10.82,0,0,1-1,8.64l0,.09A11,11,0,0,1,191.1,460l1.8,14.63L183,469.48l-1.39-12.62-3.77-1.95L173,464.3l-8.6-4.44,16-31ZM187,451.11c2.92,1.51,5.34,1,6.51-1.29l0-.09c1.26-2.44.13-4.6-2.75-6.09l-5.62-2.9-3.85,7.44,5.67,2.93Z" fill="#1b6a36"/>
          <polygon points="215.39 454.2 205.4 451.09 207.92 442.99 237.15 452.11 234.63 460.21 224.63 457.09 216.76 482.32 207.52 479.44 215.39 454.2" fill="#1b6a36"/>
          <rect x="223.77" y="465.22" width="34.91" height="9.72" transform="translate(-264.36 623.56) rotate(-79.72)" fill="#1b6a36"/>
          <polygon points="253.28 454.78 281.17 456.35 280.69 464.82 262.47 463.79 262.13 469.72 278.62 470.64 278.16 478.66 261.68 477.73 260.98 490.18 251.32 489.63 253.28 454.78" fill="#1b6a36"/>
          <rect x="284.79" y="455.35" width="9.73" height="34.91" transform="translate(-31.37 20.71) rotate(-3.89)" fill="#1b6a36"/>
          <polygon points="297.55 455.05 325.1 449.61 326.69 457.69 308.54 461.27 309.56 466.46 326 463.21 327.48 470.7 311.04 473.94 312.11 479.38 330.51 475.75 332.1 483.82 304.31 489.3 297.55 455.05" fill="#1b6a36"/>
          <path d="M327.14,449.15l12.53-4.94c11.6-4.58,21-.56,24.66,8.81l0,.09c3.7,9.37-.37,19-12.06,23.64L340,481.62l-12.83-32.47Zm22.34,19.49c5.38-2.12,7.78-6.5,5.71-11.74l0-.09c-2-5.2-6.81-6.81-12.19-4.68l-3.67,1.45,6.53,16.51,3.66-1.45Z" fill="#1b6a36"/>
        </g>
        <g style="isolation: isolate">
          <g style="isolation: isolate">
            <path d="M207.34,382.91l-3.06,2.85,3.71,2.66-2.12,3-4.27-3.06-5.28,5.05-3.17-2.27,5.3-5-2.79-2-5.27,5.05-3.09-2.21,5.24-5.08-3.42-2.44,2.12-3,4,2.84,3.06-2.85-3.62-2.59,2.15-3,4.15,3,5.3-5.06L209.4,371l-5.29,5.06,2.85,2,5.3-5.05,3.09,2.21-5.3,5.05,3.45,2.47-2.15,3Zm-9-1.4,2.82,2,3.06-2.85-2.82-2Z" fill="#fff"/>
          </g>
        </g>
        <g style="isolation: isolate">
          <g style="isolation: isolate">
            <path d="M228.86,396.41q-2.91,6.1-6.32,8.09c-2.27,1.31-4.79,1.31-7.57,0a7.58,7.58,0,0,1-4.63-5.93c-.4-2.68.34-6,2.22-9.93q3-6.17,6.35-8.14t7.53,0a7.61,7.61,0,0,1,4.64,6Q231.68,390.51,228.86,396.41ZM217.46,391a20.14,20.14,0,0,0-2.2,6.5,2.88,2.88,0,0,0,5,2.36,27.63,27.63,0,0,0,5.86-12.29,2.86,2.86,0,0,0-5-2.37A20,20,0,0,0,217.46,391Z" fill="#fff"/>
          </g>
        </g>
        <g style="isolation: isolate">
          <g style="isolation: isolate">
            <path d="M247.73,410l-3-.86-1.49,5.15-5.13-1.48,1.49-5.14L229,404.59l1.05-3.65,15.51-12.89,4.84,1.39-4.5,15.61,3,.86Zm-6.95-6.41,1.22-4.21q.3-1,1-3c.44-1.32.71-2.09.81-2.29l-.14,0a19,19,0,0,1-2.29,2.28l-6.54,5.57Z" fill="#fff"/>
          </g>
        </g>
        <g style="isolation: isolate">
          <g style="isolation: isolate">
            <path d="M264.22,417.53l-5.42-.63,1.73-14.85.33-2.43.4-2.66c-1,.79-1.7,1.31-2.08,1.55l-3.23,2L253.72,397l9-5.62,4.46.52Z" fill="#fff"/>
          </g>
        </g>
        <g style="isolation: isolate">
          <g style="isolation: isolate">
            <path d="M291.2,402.59q.36,7.64-2.69,11.54T279,418.34a18.13,18.13,0,0,1-3.49-.09l-.2-4.38a12.83,12.83,0,0,0,3.12.23,11.09,11.09,0,0,0,4.47-1,5.67,5.67,0,0,0,2.58-2.65,11.12,11.12,0,0,0,.86-4.79h-.21a6.06,6.06,0,0,1-2.26,2.44,7.41,7.41,0,0,1-3.32.82,6.75,6.75,0,0,1-5.42-1.92,8.63,8.63,0,0,1-2.21-5.92,8.94,8.94,0,0,1,2.05-6.66,8.56,8.56,0,0,1,6.31-2.71,9.21,9.21,0,0,1,5.06,1.11,8.66,8.66,0,0,1,3.48,3.74A14.88,14.88,0,0,1,291.2,402.59Zm-9.66-6.51a3.26,3.26,0,0,0-2.59,1.29,5.18,5.18,0,0,0-.8,3.4,4.7,4.7,0,0,0,1,2.93,3.18,3.18,0,0,0,2.68,1,4,4,0,0,0,2.79-1.22,3.27,3.27,0,0,0,1.07-2.55,5.66,5.66,0,0,0-1.26-3.5A3.41,3.41,0,0,0,281.54,396.08Z" fill="#fff"/>
          </g>
        </g>
        <g style="isolation: isolate">
          <g style="isolation: isolate">
            <path d="M312,400.33q1.41,6.63-.08,10.26t-6,4.61a7.61,7.61,0,0,1-7.29-1.88q-2.92-2.82-4.29-9.23-1.43-6.69.06-10.32c1-2.42,3-3.95,6-4.59a7.64,7.64,0,0,1,7.32,1.91Q310.65,393.94,312,400.33ZM299.64,403a20.06,20.06,0,0,0,2.22,6.49,2.88,2.88,0,0,0,5.4-1.17A27.71,27.71,0,0,0,304.41,395a2.86,2.86,0,0,0-5.38,1.15A20.13,20.13,0,0,0,299.64,403Z" fill="#fff"/>
          </g>
        </g>
      </g>
    </g>
  </g>
</svg>
