<?xml version="1.0" encoding="UTF-8"?><svg id="Layer_1" xmlns="http://www.w3.org/2000/svg" width="500" height="500" viewBox="0 0 500 500"><path d="M238.49,193.3c-11.52-51.32-62.65-83.7-113.97-72.18-51.32,11.53-83.7,62.65-72.18,113.97,10.19,45.4,51.38,75.98,96.28,74.45,5.86-.2,11.77-.94,17.69-2.27,38.42-8.63,66.22-39.44,72.94-75.92-.53,82.27-62.46,157.96-152.16,178.11l.73,3.24c103.16-23.16,170.16-118.64,151.66-214.39-.28-1.67-.61-3.34-.98-5Z" fill="#00b098"/><path d="M446.93,198.3c-.28-1.67-.61-3.34-.98-5-11.52-51.32-62.65-83.7-113.97-72.18-51.32,11.53-83.7,62.65-72.18,113.97,10.19,45.4,51.38,75.98,96.28,74.45,5.86-.2,11.77-.94,17.69-2.27,38.42-8.63,66.22-39.44,72.94-75.92-.53,82.27-62.46,157.96-152.16,178.11l.73,3.24c103.16-23.16,170.16-118.64,151.66-214.39Z" fill="#00b098"/></svg>