<?xml version="1.0" encoding="UTF-8"?><svg id="Layer_1" xmlns="http://www.w3.org/2000/svg" width="500" height="500" viewBox="0 0 500 500"><path d="M416.6,174.92c-.18-.88-.36-1.77-.56-2.65-12.58-56.04-68.42-91.4-124.45-78.81-16.49,3.7-31.5,11.18-44.09,21.74-24.03-20.03-56.77-29.11-89.58-21.74-27.15,6.09-50.3,22.4-65.18,45.9-14.88,23.51-19.73,51.4-13.63,78.55,6.1,27.15,22.4,50.3,45.9,65.18,16.88,10.69,36.02,16.2,55.53,16.2,7.66,0,15.37-.85,23.02-2.57,16.76-3.76,31.66-11.39,43.99-21.74,3.5,2.92,7.21,5.63,11.13,8.11,2.98,1.89,6.03,3.6,9.15,5.17-4.97,11.23-11.05,22.16-18.26,32.64-30.7,44.66-77.8,76.04-132.64,88.35l.66,2.93c55.58-12.48,103.33-44.29,134.46-89.58,7.29-10.61,13.45-21.67,18.49-33.04,13.76,6.42,28.61,9.73,43.67,9.73,7.66,0,15.37-.85,23.02-2.57,27.15-6.1,50.3-22.4,65.18-45.9,7.97-12.59,13.06-26.44,15.13-40.76,.64,38.69-11.07,77.04-34.31,110.84-30.7,44.66-77.8,76.04-132.64,88.35l.66,2.93c55.58-12.48,103.33-44.29,134.46-89.58,30.62-44.55,41.53-96.89,30.89-147.68Zm-213.69,118.87c-26.36,5.92-53.46,1.22-76.29-13.24-22.83-14.46-38.66-36.94-44.58-63.3-5.92-26.36-1.22-53.46,13.24-76.29s36.94-38.66,63.3-44.58c7.43-1.67,14.86-2.47,22.18-2.47,23.89,0,46.6,8.55,64.44,23.28-7.17,6.39-13.5,13.82-18.78,22.16-14.88,23.51-19.73,51.4-13.63,78.55,4.85,21.62,16.19,40.7,32.47,55.09-11.9,9.89-26.24,17.18-42.34,20.79Zm77.09-118.28c7.19,36.4-6.27,72.4-32.44,95.51-15.98-14.01-27.1-32.64-31.84-53.77-5.92-26.36-1.22-53.46,13.24-76.29,5.21-8.22,11.46-15.54,18.56-21.81,15.54,13.63,27.08,32.1,31.94,53.77,.19,.86,.36,1.72,.54,2.58Zm-19.71,105.04c-3.66-2.32-7.14-4.85-10.43-7.56,18.31-16.3,30.51-38.75,34.02-63.27,.47,25.83-4.55,51.51-14.84,75.79-2.97-1.5-5.89-3.15-8.74-4.96Zm139.59-31.34c-14.46,22.83-36.94,38.66-63.3,44.58-22.08,4.96-44.67,2.46-64.84-6.97,15.12-35.6,19.1-74.16,11.21-111.88-.18-.89-.36-1.78-.56-2.67-4.98-22.16-16.72-41.08-32.56-55.09,12.14-10.09,26.59-17.24,42.44-20.79,7.43-1.67,14.86-2.47,22.18-2.47,46.27,0,88.14,32.02,98.69,79.01,.19,.86,.36,1.71,.54,2.57,5.06,25.55,.21,51.63-13.78,73.72Z" fill="#00af97"/></svg>