<?xml version="1.0" encoding="UTF-8"?>
<svg width="143px" height="115px" viewBox="0 0 143 115" version="1.1" xmlns="http://www.w3.org/2000/svg" xmlns:xlink="http://www.w3.org/1999/xlink">
    <title>Banter-B-black</title>
    <g id="Page-1" stroke="none" stroke-width="1" fill="none" fill-rule="evenodd">
        <g id="Artboard" transform="translate(-81.000000, -405.000000)" fill="#000000" fill-rule="nonzero">
            <g id="Banter-B-black" transform="translate(81.000000, 405.000000)">
                <path d="M140.939439,75.4894717 C134.172536,59.0398497 116.822512,55.3707342 105.206651,54.1919019 L100.79046,53.7547516 C107.11476,52.7281852 125.207373,48.7594499 131.821824,38.4741383 C134.02992,34.9523769 135.057741,30.6889335 135.057741,26.72511 C135.057741,5.28018622 109.175322,0 89.7647362,0 L29.2757067,0 C29.2757067,0 22.3563519,0.0392944091 22.3661875,0.0589416136 C15.692723,0.609063341 9.41268313,2.41169436 5.19812229,7.85397002 C1.64746544,12.2844146 0,18.7434331 0,24.1906206 C0,37.8699868 10.6568884,40.1539743 15.2206135,40.1539743 C23.3349955,40.1539743 28.5380356,34.3285781 28.5380356,27.9923547 C28.5380356,21.6561312 23.0891052,15.4525264 14.3354082,15.4525264 C10.1503542,15.4525264 5.96038242,16.9702729 3.42771167,19.3819673 C3.42771167,14.818904 3.68343765,12.2844146 5.2030401,9.87763208 C9.38809409,2.78007944 16.7451338,1.51774655 22.8333792,0.884124205 L26.9741729,0.874300602 C42.5587042,0.874300602 43.5914437,5.27527442 43.5914437,17.9133387 L43.5914437,97.0817495 C43.5914437,109.70999 42.5587042,114.125699 26.9741729,114.125699 L26.0889676,114.125699 L26.0889676,115 L95.7988858,115 C115.50454,115 129.180962,113.678725 138.441193,100.603511 C141.382041,96.4923333 143,91.3545893 143,86.0645795 C143,82.5379063 142.409863,79.0112331 140.939439,75.4894717 M77.2636701,0.874300602 L80.4995873,0.874300602 C90.3548731,0.874300602 99.4724878,1.60615897 100.50031,12.0437364 C101.085529,16.7443301 101.533049,23.2033486 101.533049,29.6623671 C101.533049,52.2812113 96.9742417,53.3077777 84.768244,53.3077777 L77.2636701,53.3077777 L77.2636701,0.874300602 L77.2636701,0.874300602 Z M103.293624,103.693034 C101.085529,112.352539 98.4397483,114.120788 87.7090928,114.120788 C78.7390123,114.120788 77.2636701,112.937044 77.2636701,100.750865 L77.2636701,54.339256 L82.2650801,54.339256 C88.1467776,54.339256 95.9415022,54.7764063 99.4724878,58.7451416 C103.588692,63.2934694 104.911583,74.4579934 104.911583,84.743305 C104.911583,92.6758638 104.178829,100.023918 103.293624,103.693034" id="Shape"></path>
            </g>
        </g>
    </g>
</svg>