<svg version="1.2" xmlns="http://www.w3.org/2000/svg" viewBox="0 0 780 224" width="780" height="224">
	<title>Banter-logo-white-svg</title>
	<style>
		.s0 { fill: #ffffff } 
	</style>
	<path id="Layer" fill-rule="evenodd" class="s0" d="m305 135.1c0 2.8 0 7.8 3.1 7.8 2.7 0 9.2-5.2 9.8-24h1.3c0 4.3-1.2 21.1-10 25.4-4.4 2.3-10.1 3.4-15.5 3.4-3.8 0-7.3-0.6-10.1-1.6-10.8-3.9-14-8-17.1-18.5-4 11.7-9.8 16.5-15.1 18.5-2.9 1-6.4 1.2-10.6 1.2-16.3 0-32.9-4.3-32.9-23.6 0-2.8 0.5-5.7 1.3-8.2 4.2-12.6 12.8-13.8 26.1-15.9l4.6-0.7c25.5-3.9 26.6-16.2 26.6-26.7 0-17.2-6.5-18.6-13.8-18.6-4 0-15.9 0.5-19.7 9.2 1.1-0.5 2.6-0.7 4.2-0.7 6.9 0 16.1 4.8 16.1 14.8 0 10.6-10 17.3-19.4 17.3-9.4 0-18.6-6.9-18.6-17.7 0-14.7 20-24.5 43.9-24.5 11.7 0 24.2 2.3 32.6 7.8 12.6 8.2 13.2 18.8 13.2 28.9v46.3zm-59.2-23.2c-0.6 3.6-0.8 6.6-0.8 9.4 0 4.1 0.4 7.8 0.8 12.1 0.2 3.5 0.5 10.2 5.3 10.2 1.4 0 2.9-0.3 3.9-1.2 10.9-6.6 11.3-22.4 11.3-35.8v-22.9c-0.8 4.2-3.9 7.2-5.8 8.5-12.4 8.5-13.4 9.7-14.7 19.7z"/>
	<path id="Layer" class="s0" d="m323.6 53.1h54.8v15.8c4.8-11.4 16.1-16.9 29.9-16.9 8 0 14.7 2 19.9 5.7 9.4 6.9 10.9 15.5 10.9 26.8v43.5c0 13.1 1.4 17.4 16.3 17.4v1h-63v-1c7.8 0 8.4-6.1 8.4-17.4v-47.4c0-17.9-3.6-21.3-9.2-21.3-1.1 0-6.9 0.5-9.9 6.2-2.1 3.9-3.3 6.8-3.3 21.1v41.4c0 11.3 0.6 17.4 8.4 17.4v1h-63.2v-1c14.9 0 16.3-4.3 16.3-17.4v-56.3c0-13.1-1.4-17.4-16.3-17.4v-1.2z"/>
	<path id="Layer" class="s0" d="m472.5 118.9v-64.5h-10v-1.3c12.6-0.5 22.6-4.6 31.2-10.1 6.2-3.9 15-10.8 16.3-23.8h1.2v33.9h17.4v1.2h-17.4v69.6c0 15.3 0.8 16.7 4.4 16.7 1.5 0 4.8-0.6 7.7-7.1 1.7-3.9 3.2-13 3.2-21.5h1.4c0 5.5-0.8 11.2-2 16.5-1.5 7.1-4.4 18.8-26.4 18.8-22.1 0-27-8.7-27-28.4"/>
	<path id="Layer" fill-rule="evenodd" class="s0" d="m578.6 98.9v10.8c0 22.5 4.4 36 22.1 36 20.5 0 32.2-20.2 34.3-38.1h1.3c-1.1 9.2-5.2 26.8-21.1 35.6-5.3 3.1-13.4 4.3-21.6 4.3-43 0-53.7-27.7-53.7-45.3 0-12.7 5.2-26.2 18.6-38.3 9.6-8.5 22.2-11.9 33.5-11.9 24.9 0 35.9 13.5 41.4 26.8 2.5 6.4 2.7 12.4 2.7 20.1h-57.5zm0-6.4v5.1h22.4c0.4-6.9 0.6-16.1 0.6-22.7 0-9.4-0.2-16.5-5.8-21-0.7-0.7-2.3-0.8-4.2-0.8-10.9 0-13 12.2-13 39.3z"/>
	<path id="Layer" fill-rule="evenodd" class="s0" d="m195.2 111.5c0 6.4-2.1 12.6-5.9 17.6-12.1 15.8-29.9 17.4-55.6 17.4h-90.9v-1.1h1.2c20.3 0 21.6-5.3 21.6-20.6v-95.6c0-15.3-1.3-20.6-21.6-20.6h-5.4c-8 0.8-17.5 2.3-23 10.9-2 2.9-2.3 5.9-2.3 11.4 3.3-2.9 8.7-4.7 14.2-4.7 11.4 0 18.5 7.5 18.5 15.1 0 7.7-6.8 14.7-17.3 14.7-6 0-19.9-2.7-19.9-19.2 0-6.6 2.2-14.4 6.8-19.8 5.5-6.6 13.7-8.7 22.4-9.4 0 0 9-0.1 9-0.1h78.8c25.3 0 59.1 6.4 59.1 32.3 0 4.8-1.4 9.9-4.3 14.2-8.6 12.4-32.2 17.2-40.4 18.5l5.8 0.5c15.1 1.4 37.7 5.8 46.5 25.7 1.9 4.3 2.7 8.5 2.7 12.8zm-85.7-102.9v63.3h9.8c15.9 0 21.8-1.2 21.8-28.5 0-7.8-0.5-15.6-1.3-21.3-1.3-12.6-13.2-13.5-26.1-13.5zm34 124.2c1.1-4.4 2.1-13.3 2.1-22.9 0-12.4-1.8-25.9-7.1-31.4-4.6-4.8-14.8-5.3-22.4-5.3h-6.6v56.1c0 14.7 2 16.1 13.7 16.1 14 0 17.4-2.1 20.3-12.6z"/>
	<path id="Layer" class="s0" d="m745.2 174.6c0 16.5-13.9 19.3-19.8 19.3-10.6 0-17.4-7.4-17.4-14.7 0-7.4 7.1-15.2 18.5-15.2 5.5 0 11 1.8 14.3 4.8 0-5.6-0.4-8.6-2.4-11.5-5.4-8.6-15-10.1-22.9-10.9h-71v-1c14.9 0 16.2-4.3 16.2-17.4v-56.8c0-13.1-1.3-16.8-16.2-16.8v-1.3h53.2v18.5c2.7-10 8.6-19.6 22.8-19.6 13.4 0 19.8 10 19.8 20.6 0 11.4-8.3 18.7-18.4 18.7-9.4 0-17.9-6.1-17.9-16.7 0-9.6 7.3-16.3 18.1-16.3 4.2 0 8.2 1.2 11.5 3.7-0.8-7.8-9.2-8.7-12.3-8.7-6.5 0-12.3 2.1-15.5 5.7-5.6 5.8-6.3 13.1-6.3 24.5v44.5c0 13.1 1.1 17.4 16.1 17.4h0.5c8.7 0.7 16.9 2.9 22.4 9.4 4.6 5.4 6.7 13.2 6.7 19.8z"/>
	<path id="Layer" class="s0" d="m313.5 204.2v-0.1c0-8 6.7-14.8 16-14.8 5.4 0 8.8 1.4 12 3.9l-3.5 3.8c-2.4-1.9-4.7-3.1-8.7-3.1-5.7 0-10.1 4.7-10.1 10.2 0 6 4.3 10.3 10.6 10.3 2.9 0 5.6-0.9 7.5-2.2v-5.4h-7.9v-4.4h13.2v12.1c-3.1 2.4-7.5 4.5-13 4.5-9.7 0-16.1-6.4-16.1-14.8z"/>
	<path id="Layer" fill-rule="evenodd" class="s0" d="m354.1 189.8h13.8c3.9 0 7 1 9 2.8 1.6 1.6 2.6 3.7 2.6 6.2v0.1c0 4.7-3.1 7.6-7.4 8.7l8.4 10.9h-6.5l-7.6-10h-6.8v10h-5.5zm13.4 14.2c3.9 0 6.4-1.8 6.4-4.8 0-3.1-2.4-4.8-6.4-4.8h-8v9.6c0 0 8 0 8 0z"/>
	<path id="Layer" fill-rule="evenodd" class="s0" d="m389.2 204.2v-0.1c0-8 6.8-14.8 16.3-14.8 9.6 0 16.2 6.7 16.2 14.8 0 8.1-6.7 14.9-16.3 14.9-9.5 0-16.2-6.7-16.2-14.8zm26.8 0v-0.1c0-5.5-4.4-10.2-10.6-10.2-6.2 0-10.4 4.6-10.4 10.2 0 5.6 4.3 10.2 10.5 10.2 6.2 0 10.5-4.5 10.5-10.1z"/>
	<path id="Layer" class="s0" d="m432.3 206.3v-16.5h5.4v16.3c0 5.4 3 8.2 7.9 8.2 4.8 0 7.8-2.7 7.8-8v-16.5h5.4v16.3c0 8.6-5.2 12.9-13.3 12.9-8.1 0-13.2-4.3-13.2-12.7z"/>
	<path id="Layer" fill-rule="evenodd" class="s0" d="m470.8 189.8h12.2c7.3 0 11.8 3.8 11.8 9.6v0.1c0 6.4-5.6 9.8-12.4 9.8h-6.2v9.2h-5.4c0 0 0-28.7 0-28.7zm11.8 14.9c4.1 0 6.7-2.1 6.7-5.1v-0.1c0-3.4-2.7-5.1-6.7-5.1h-6.4v10.3c0 0 6.4 0 6.4 0z"/>
	<path id="Layer" fill-rule="evenodd" class="s0" d="m754.6 60.4q0-1.8 0.7-3.3 0.7-1.5 1.9-2.6 1.2-1.1 2.8-1.8 1.7-0.6 3.5-0.6 1.9 0 3.5 0.6 1.6 0.7 2.8 1.8 1.3 1.1 2 2.6 0.7 1.5 0.7 3.3 0 1.7-0.7 3.2-0.8 1.5-2 2.6-1.2 1.1-2.8 1.8-1.6 0.6-3.5 0.6-1.8 0-3.5-0.6-1.6-0.7-2.8-1.8-1.2-1.1-1.9-2.6-0.7-1.5-0.7-3.2zm1.5 0q0 1.4 0.6 2.6 0.6 1.3 1.6 2.2 1 0.9 2.3 1.5 1.4 0.5 2.9 0.5 1.5 0 2.9-0.5 1.3-0.6 2.3-1.5 1-0.9 1.6-2.2 0.6-1.2 0.6-2.6 0-1.4-0.6-2.7-0.6-1.3-1.6-2.2-1-0.9-2.3-1.4-1.4-0.6-2.9-0.6-1.5 0-2.9 0.6-1.3 0.5-2.3 1.4-1 0.9-1.6 2.2-0.6 1.3-0.6 2.7zm4-4.8h3.9q1.9 0 2.7 0.7 0.9 0.7 0.9 2.1 0 1.3-0.7 1.9-0.6 0.6-1.7 0.8l2.6 4h-1.9l-2.6-3.9h-1.4v3.9h-1.9v-9.5zm1.9 4.1h1.4q0.4 0.1 0.9 0 0.4 0 0.7-0.2 0.4-0.1 0.6-0.4 0.2-0.2 0.2-0.7 0-0.5-0.2-0.7-0.2-0.3-0.6-0.4-0.3-0.2-0.7-0.2-0.5 0-0.9 0h-1.4z"/>
</svg>