<?xml version="1.0" encoding="utf-8"?><svg xmlns="http://www.w3.org/2000/svg" xmlns:xlink="http://www.w3.org/1999/xlink"><symbol viewBox="0 0 24 34" id="arrow-up" xmlns="http://www.w3.org/2000/svg"><path d="m.792 11.692 1.271 1.269 9.419-9.418v30.473h1.79V3.526l9.455 9.435 1.254-1.269L12.395.112z"/></symbol><symbol viewBox="0 0 96.227 96.227" xml:space="preserve" id="facebook" xmlns="http://www.w3.org/2000/svg"><path d="m73.099 15.973-9.058.004c-7.102 0-8.477 3.375-8.477 8.328v10.921h16.938l-.006 17.106H55.564v43.895H37.897V52.332h-14.77V35.226h14.77V22.612C37.897 7.972 46.84 0 59.9 0l13.2.021z" data-original="#000000" xmlns="http://www.w3.org/2000/svg"/></symbol><symbol viewBox="0 0 97.395 97.395" xml:space="preserve" id="instagram" xmlns="http://www.w3.org/2000/svg"><path d="M12.501 0h72.393c6.875 0 12.5 5.09 12.5 12.5v72.395c0 7.41-5.625 12.5-12.5 12.5H12.501C5.624 97.395 0 92.305 0 84.895V12.5C0 5.09 5.624 0 12.501 0zm58.447 10.821a4.395 4.395 0 0 0-4.383 4.385v10.495a4.396 4.396 0 0 0 4.383 4.385h11.008a4.398 4.398 0 0 0 4.385-4.385V15.206a4.397 4.397 0 0 0-4.385-4.385zm15.439 30.367h-8.572a28.486 28.486 0 0 1 1.25 8.355c0 16.2-13.556 29.332-30.275 29.332-16.718 0-30.272-13.132-30.272-29.332 0-2.904.438-5.708 1.25-8.355h-8.945v41.141a3.884 3.884 0 0 0 3.872 3.872h67.822a3.883 3.883 0 0 0 3.872-3.872V41.188zM48.789 29.533c-10.802 0-19.56 8.485-19.56 18.953s8.758 18.953 19.56 18.953c10.803 0 19.562-8.485 19.562-18.953s-8.758-18.953-19.562-18.953z" data-original="#000000" xmlns="http://www.w3.org/2000/svg"/></symbol><symbol viewBox="0 0 197.402 197.402" xml:space="preserve" id="left-2" xmlns="http://www.w3.org/2000/svg"><path d="M146.883 197.402 45.255 98.698 146.883 0l5.265 5.418-96.039 93.28 96.039 93.282z"/></symbol><symbol viewBox="0 0 93.06 93.06" xml:space="preserve" id="linkedin" xmlns="http://www.w3.org/2000/svg"><g xmlns="http://www.w3.org/2000/svg"><path d="M11.185.08C5.004.08.001 5.092 0 11.259c0 6.173 5.003 11.184 11.186 11.184 6.166 0 11.176-5.011 11.176-11.184C22.362 5.091 17.351.08 11.185.08zM1.538 30.926h19.287V92.98H1.538zM69.925 29.383c-9.382 0-15.673 5.144-18.248 10.022h-.258v-8.479H32.92v62.053h19.27V62.281c0-8.093 1.541-15.932 11.575-15.932 9.89 0 10.022 9.256 10.022 16.451v30.178H93.06V58.942c0-16.707-3.605-29.559-23.135-29.559z" data-original="#000000"/></g></symbol><symbol viewBox="0 0 24 24" id="linkedin-2" xmlns="http://www.w3.org/2000/svg"><path d="M12 2c5.514 0 10 4.486 10 10s-4.486 10-10 10S2 17.514 2 12 6.486 2 12 2zm0-2C5.373 0 0 5.373 0 12s5.373 12 12 12 12-5.373 12-12S18.627 0 12 0zm-2 8c0 .557-.447 1.008-1 1.008S8 8.558 8 8c0-.557.447-1.008 1-1.008S10 7.444 10 8zm0 2H8v6h2v-6zm3 0h-2v6h2v-2.861c0-1.722 2.002-1.881 2.002 0V16H17v-3.359c0-3.284-3.128-3.164-4-1.548V10z"/></symbol><symbol viewBox="0 0 56 16" xml:space="preserve" id="long-arrow-right" xmlns="http://www.w3.org/2000/svg"><path style="fill:#09b098" d="m47.59 1.47-.71.71 5.27 5.26H4.14v1h48.02l-5.28 5.28.71.7 6.48-6.47z"/></symbol><symbol viewBox="0 0 223.413 223.413" xml:space="preserve" id="right-2" xmlns="http://www.w3.org/2000/svg"><path d="m57.179 223.413-5.955-6.137L159.925 111.71 51.224 6.127 57.179 0l115.01 111.71z"/></symbol><symbol viewBox="0 0 96.875 96.875" xml:space="preserve" id="youtube" xmlns="http://www.w3.org/2000/svg"><path d="M95.201 25.538c-1.186-5.152-5.4-8.953-10.473-9.52-12.013-1.341-24.172-1.348-36.275-1.341-12.105-.007-24.266 0-36.279 1.341-5.07.567-9.281 4.368-10.467 9.52C.019 32.875 0 40.884 0 48.438S0 64 1.688 71.336c1.184 5.151 5.396 8.952 10.469 9.52 12.012 1.342 24.172 1.349 36.277 1.342 12.107.007 24.264 0 36.275-1.342 5.07-.567 9.285-4.368 10.471-9.52 1.689-7.337 1.695-15.345 1.695-22.898 0-7.554.014-15.563-1.674-22.9zM35.936 63.474V31.437a497491.15 497491.15 0 0 0 30.798 16.068c-10.3 5.342-20.504 10.631-30.798 15.969z" data-original="#000000" xmlns="http://www.w3.org/2000/svg"/></symbol></svg>